<?xml version="1.0" standalone="no"?>
<!DOCTYPE svg PUBLIC "-//W3C//DTD SVG 1.1//EN" "http://www.w3.org/Graphics/SVG/1.1/DTD/svg11.dtd" >
<svg xmlns="http://www.w3.org/2000/svg">
<metadata></metadata>
<defs>
<font id="sassoonprimaryinfantregular" horiz-adv-x="1124" >
<font-face units-per-em="2048" ascent="1638" descent="-410" />
<missing-glyph horiz-adv-x="628" />
<glyph horiz-adv-x="0" />
<glyph unicode="&#xd;" horiz-adv-x="628" />
<glyph unicode=" "  horiz-adv-x="628" />
<glyph unicode="&#x09;" horiz-adv-x="628" />
<glyph unicode="&#xa0;" horiz-adv-x="628" />
<glyph unicode="!" horiz-adv-x="536" d="M158 74q0 41 29.5 70.5t74.5 29.5q47 0 80 -30.5t33 -73.5t-29 -74t-74 -31q-49 0 -81.5 31t-32.5 78zM172 1432h174l-24 -1080l-123 -2z" />
<glyph unicode="&#x22;" horiz-adv-x="790" d="M102 770l88 567q6 43 34 69t67 26q43 0 71.5 -33t28.5 -82q0 -23 -4 -31l-209 -518zM459 764l104 582q6 39 30.5 61.5t61.5 22.5q45 0 76 -35t31 -88l-6 -31l-224 -510z" />
<glyph unicode="#" horiz-adv-x="1226" d="M80 414q0 150 75.5 242t223.5 120q-98 47 -159.5 137.5t-61.5 186.5q0 147 132 250.5t351 103.5q84 0 144.5 -10t144.5 -39l-21 -135q-45 18 -118.5 30.5t-143.5 12.5q-166 0 -253 -58.5t-87 -160.5q0 -133 136.5 -215t375.5 -82h252v-949h-129v336q-90 -113 -184 -161 t-226 -48q-197 0 -324.5 124t-127.5 315zM231 408q0 -125 84 -209t211 -84q201 0 311.5 140t110.5 431q-270 0 -412.5 -15.5t-223.5 -74.5t-81 -188z" />
<glyph unicode="$" d="M111 111v161q68 -37 195.5 -79.5t205.5 -42.5v503q-119 78 -238 158q-141 123 -141 301q0 150 110.5 229.5t256.5 79.5v158h104v-160q100 0 186.5 -21.5t165.5 -60.5v-153q-74 39 -167 66.5t-183 27.5v-465q213 -131 298 -215t85 -231q0 -154 -100.5 -256.5 t-265.5 -102.5v-182h-107v178q-113 0 -205 28.5t-200 78.5zM295 1106q0 -63 52.5 -126.5t156.5 -135.5v428q-98 0 -153.5 -43t-55.5 -123zM616 152q94 0 150.5 60t56.5 148q0 80 -46 138.5t-161 119.5v-466z" />
<glyph unicode="%" horiz-adv-x="1849" d="M104 1075q0 174 91.5 275.5t240.5 101.5q154 0 242 -104.5t88 -286.5q0 -172 -87 -273.5t-233 -101.5q-154 0 -248 106.5t-94 282.5zM254 1057q0 -242 180 -242q90 0 139.5 72t49.5 203q0 111 -47.5 172t-131.5 61q-86 0 -138 -69.5t-52 -196.5zM424 0l864 1423h154 l-869 -1423h-149zM1085 375q0 166 90.5 264t241.5 98q162 0 247 -107.5t85 -289.5q0 -172 -86 -268.5t-238 -96.5q-156 0 -248 107.5t-92 292.5zM1231 350q0 -117 50 -183.5t136 -66.5q88 0 136.5 68.5t48.5 193.5q0 117 -48.5 183.5t-136.5 66.5q-86 0 -136 -68.5 t-50 -193.5z" />
<glyph unicode="&#x26;" horiz-adv-x="1413" d="M86 354q0 141 90 246t289 193q-180 225 -180 376q0 133 93 211t253 78t261 -83t101 -214q0 -117 -72.5 -212t-238.5 -189q111 -139 171 -212t130 -155q78 86 118 142.5t99 158.5l119 -92q-55 -98 -107.5 -169t-128.5 -146q68 -78 144 -162t119 -123h-205 q-39 43 -92.5 99.5t-67.5 72.5q-231 -201 -475 -201q-182 0 -301 106.5t-119 274.5zM246 346q0 -96 76.5 -163.5t189.5 -67.5q187 0 367 172q-66 68 -154 176t-172 219q-180 -84 -243.5 -157.5t-63.5 -178.5zM449 1163q0 -72 149 -291q233 129 233 283q0 78 -55 123t-149 45 q-84 0 -131 -43t-47 -117z" />
<glyph unicode="'" horiz-adv-x="372" d="M55 770l88 567q6 41 35 68t66 27q41 0 70.5 -34t29.5 -83l-6 -35l-209 -512z" />
<glyph unicode="(" horiz-adv-x="536" d="M6 649q0 330 118 555.5t374 225.5l2 -117q-193 -25 -270.5 -195t-77.5 -504q0 -283 83.5 -452.5t272.5 -192.5l4 -114q-279 35 -392.5 245.5t-113.5 548.5z" />
<glyph unicode=")" horiz-adv-x="536" d="M29 1430q244 -23 347 -211.5t103 -589.5q0 -371 -109.5 -563.5t-326.5 -192.5v125q162 25 230.5 188.5t68.5 475.5q0 301 -76 463.5t-235 185.5z" />
<glyph unicode="*" horiz-adv-x="886" d="M70 1208l61 95l164 -93q45 -27 98 -90q-8 23 -12 52.5t-4 50.5v32v172h121v-172q0 -23 -1 -54.5t-12 -82.5q27 25 50.5 44.5t44.5 29.5l176 92l59 -106l-174 -93q-33 -20 -119 -41q53 -8 79 -22t48 -27l166 -98l-61 -100l-166 98q-37 23 -60.5 41t-50.5 51 q14 -43 19.5 -72.5t5.5 -66.5v-178h-119v184q0 47 2 64.5t14 68.5q-29 -35 -49 -50t-55 -34l-162 -86l-57 105l164 88q63 35 127 45q-55 16 -78 24t-53 27z" />
<glyph unicode="+" d="M86 430v145h406l-3 422h144v-422h411v-147h-409v-451h-146v453h-403z" />
<glyph unicode="," horiz-adv-x="516" d="M113 -317q63 55 89.5 104t26.5 104q0 37 -42 101.5t-42 101.5q0 29 22.5 51.5t51.5 22.5q53 0 95 -58.5t42 -136.5q0 -139 -55 -213.5t-76.5 -97t-60.5 -53.5z" />
<glyph unicode="-" horiz-adv-x="528" d="M31 406v118h467v-118h-467z" />
<glyph unicode="." horiz-adv-x="516" d="M164 66q0 39 26.5 65.5t67.5 26.5q39 0 66.5 -28t27.5 -69q0 -37 -26.5 -63.5t-67.5 -26.5q-39 0 -66.5 28t-27.5 67z" />
<glyph unicode="/" horiz-adv-x="657" d="M109 -129l307 1561h123l-306 -1561h-124z" />
<glyph unicode="0" d="M78 721q0 362 125 548.5t368 186.5q244 0 369 -182.5t125 -538.5q0 -358 -125 -561t-369 -203q-246 0 -369.5 198t-123.5 552zM240 694q0 -283 81.5 -439.5t249.5 -156.5q150 0 241 172t91 467q0 590 -332 590q-162 0 -246.5 -157.5t-84.5 -475.5z" />
<glyph unicode="1" d="M264 1178q119 80 190.5 133t133.5 119h129v-1430h-152v1227q-57 -45 -120.5 -92.5t-100.5 -71.5z" />
<glyph unicode="2" d="M102 1092q96 362 467 362q195 0 313.5 -114.5t118.5 -303.5q0 -152 -102 -319.5t-244.5 -307t-318.5 -268.5h668v-141h-898v131q209 162 365 311.5t258 307t102 292.5q0 123 -73.5 201t-190.5 78q-109 0 -193.5 -72.5t-123.5 -201.5z" />
<glyph unicode="3" d="M68 211l108 98q92 -104 176 -149t189 -45q127 0 206.5 73.5t79.5 194.5q0 147 -90 220t-293 73l-135 -4l-4 147q18 -2 47 -4t47 -2h47q168 0 260.5 74t92.5 198q0 100 -71 161t-185 61q-96 0 -168 -37t-148 -125l-104 110q72 90 185.5 143.5t242.5 53.5 q182 0 294.5 -102.5t112.5 -268.5q0 -123 -57 -202.5t-188 -135.5q280 -57 280 -366q0 -184 -124 -295t-330 -111q-150 0 -263.5 57.5t-207.5 182.5z" />
<glyph unicode="4" d="M84 352v142l537 938h172l-533 -934h479v610h146v-610h170v-144h-170v-354h-148v352h-653z" />
<glyph unicode="5" d="M72 172l96 102q100 -88 177 -122.5t171 -34.5q141 0 225 90t84 246q0 133 -75.5 215t-200.5 82q-80 0 -126 -18.5t-106 -78.5l-139 52l6 725h744v-148h-600l-11 -442q72 39 115 51t121 12q199 0 318.5 -126t119.5 -333t-133 -342t-328 -135q-139 0 -258.5 53.5 t-199.5 151.5z" />
<glyph unicode="6" d="M104 512q0 236 127 479.5t330 438.5h187q-63 -74 -147.5 -172.5t-162.5 -214t-121 -232.5q55 39 127 64.5t154 25.5q193 0 304.5 -124t111.5 -337t-117 -340t-313 -127q-217 0 -348.5 147.5t-131.5 391.5zM260 492q0 -174 86 -281t227 -107q129 0 207 90t78 244 q0 150 -71.5 236t-196.5 86q-176 0 -311 -131q-10 -47 -14.5 -75t-4.5 -62z" />
<glyph unicode="7" d="M147 1282v148h842v-121l-573 -1309h-164l561 1282h-666z" />
<glyph unicode="8" d="M80 367q0 139 84 231t233 145q-152 76 -215 162t-63 221q0 162 111.5 248t324.5 86q193 0 310.5 -95t117.5 -251q0 -117 -65.5 -202t-212.5 -160q172 -70 251.5 -167.5t79.5 -236.5q0 -172 -125 -274.5t-340 -102.5q-219 0 -355 109.5t-136 286.5zM238 371 q0 -119 89 -190.5t238 -71.5q141 0 223 65t82 180q0 102 -68.5 169t-269.5 155q-158 -61 -226 -133t-68 -174zM281 1114q0 -174 272 -301q125 68 195.5 145.5t70.5 163.5q0 98 -74.5 155.5t-201.5 57.5q-115 0 -188.5 -61.5t-73.5 -159.5z" />
<glyph unicode="9" d="M88 981q0 211 126 341t335 130q195 0 312.5 -98t117.5 -307l-27 -1045h-153l22 655q-76 -76 -150.5 -106.5t-168.5 -30.5q-184 0 -299 127t-115 334zM250 952q0 -133 70.5 -209.5t191.5 -76.5q119 0 211 75.5t92 188.5l4 131q0 111 -72.5 181.5t-189.5 70.5 q-139 0 -223 -98.5t-84 -262.5z" />
<glyph unicode=":" horiz-adv-x="516" d="M162 66q0 37 26.5 63.5t63.5 26.5q43 0 70.5 -28t27.5 -69q0 -37 -26.5 -63.5t-65.5 -26.5q-41 0 -68.5 28t-27.5 69zM162 580q0 39 26.5 65.5t63.5 26.5q39 0 67.5 -26.5t28.5 -67.5q0 -37 -26.5 -66t-65.5 -29t-66.5 28t-27.5 69z" />
<glyph unicode=";" horiz-adv-x="516" d="M115 -317q66 57 92 104t26 107q0 29 -43 97t-43 103q0 29 23 51.5t53 22.5q53 0 94 -59.5t41 -135.5q0 -66 -23.5 -135t-57 -114.5t-47 -58.5t-62.5 -56zM156 588q0 39 26.5 65.5t63.5 26.5q43 0 71.5 -26.5t28.5 -69.5q0 -37 -26.5 -66t-65.5 -29q-41 0 -69.5 29 t-28.5 70z" />
<glyph unicode="&#x3c;" horiz-adv-x="1024" d="M117 389q0 244 125 389.5t336 145.5q100 0 132.5 -4.5t166.5 -34.5v-1495h-140v733q-80 -82 -141 -112.5t-143 -30.5q-156 0 -246 110.5t-90 298.5zM266 385q0 -131 52.5 -199.5t152.5 -68.5q121 0 190.5 98.5t69.5 288.5v270q-45 12 -70.5 16.5t-60.5 4.5 q-158 0 -246 -108.5t-88 -301.5z" />
<glyph unicode="=" d="M86 274v144h958v-144h-958zM86 582v139h958v-139h-958z" />
<glyph unicode="&#x3e;" horiz-adv-x="1359" d="M131 729q0 340 165 535.5t452 195.5q285 0 438 -229l-119 -84q-129 174 -336 174q-209 0 -323.5 -157.5t-114.5 -444.5q0 -279 108.5 -440.5t296.5 -161.5q176 0 271.5 116.5t95.5 380.5v54h-264v137h405v-975h-141l2 330q-152 -186 -387 -187q-250 0 -399.5 205 t-149.5 551z" />
<glyph unicode="?" horiz-adv-x="905" d="M100 1380q143 76 287 76q184 0 299 -112.5t115 -294.5q0 -166 -89 -269.5t-257 -128.5v-276l-156 2l-2 426l49 -2q129 0 205 67.5t76 182.5t-67.5 182t-180.5 67q-63 0 -108.5 -14t-141.5 -65zM264 88q0 49 31 82t78 33q51 0 86 -35t35 -84q0 -47 -32 -79t-77 -32 q-49 0 -85 34t-36 81z" />
<glyph unicode="@" horiz-adv-x="1697" d="M86 662q0 326 225.5 547t556.5 221q332 0 555.5 -219t223.5 -547q0 -195 -100.5 -322t-258.5 -127q-201 0 -256 170q-82 -150 -260 -149q-117 0 -191.5 82.5t-74.5 213.5q0 209 124 362t292 153q76 0 153 -50l4 47l146 3l-68 -601q0 -57 41 -96t105 -39 q104 0 169.5 100.5t65.5 260.5q0 272 -190.5 458.5t-466.5 186.5t-463 -186.5t-187 -462.5q0 -291 208 -499t501 -208q137 0 214 22.5t208 104.5l45 -72q-127 -100 -221 -130.5t-277 -30.5q-342 0 -582.5 236.5t-240.5 570.5zM664 555q0 -88 40.5 -143.5t108.5 -55.5 q86 0 147.5 78t75.5 207l29 266q-68 49 -131 49q-111 0 -190.5 -116.5t-79.5 -284.5z" />
<glyph unicode="A" horiz-adv-x="1304" d="M16 0l557 1434h152l563 -1434h-155l-193 487h-580l-188 -487h-156zM414 625h473l-248 620z" />
<glyph unicode="B" horiz-adv-x="1218" d="M162 12v1413q76 4 187.5 7.5t154.5 3.5q221 0 357 -90.5t136 -258.5q0 -240 -231 -331q139 -12 243.5 -117t104.5 -248q0 -205 -146.5 -305t-410.5 -100q-57 0 -187 8t-208 18zM317 137q53 -6 105.5 -10t124.5 -4q184 0 294.5 62.5t110.5 193.5q0 137 -103.5 216 t-322.5 79l-209 -4v-533zM317 807l136 -2q205 0 293 64.5t88 191.5q0 137 -106.5 190.5t-283.5 53.5l-127 -5v-493z" />
<glyph unicode="C" horiz-adv-x="1267" d="M135 711q0 350 161 547.5t439 197.5h2q317 0 469 -280l-133 -70q-125 207 -344 207q-201 0 -315.5 -164t-114.5 -451q0 -270 108.5 -425.5t299.5 -155.5q207 0 372 202l105 -100q-184 -250 -479 -250q-258 0 -414 191.5t-156 550.5z" />
<glyph unicode="D" horiz-adv-x="1353" d="M156 14v1403q39 0 115.5 4t107.5 4q463 0 653.5 -182.5t190.5 -540.5q0 -330 -178.5 -517t-591.5 -187h-41q-111 0 -256 16zM313 141l160 -6q289 0 438.5 149t149.5 421q0 291 -143.5 436t-479.5 145q-78 0 -125 -6v-1139z" />
<glyph unicode="E" horiz-adv-x="1038" d="M164 0v1432h760v-150h-607v-483h557v-144h-557v-516h623v-139h-776z" />
<glyph unicode="F" horiz-adv-x="1036" d="M158 0v1432h762v-150h-609v-471h553v-149h-549v-662h-157z" />
<glyph unicode="G" horiz-adv-x="1335" d="M80 717q0 350 164 546.5t456 196.5q297 0 449 -231l-117 -84q-127 178 -338 178q-213 0 -331.5 -161t-118.5 -449q0 -285 110.5 -441.5t313.5 -156.5q156 0 243.5 77.5t87.5 247.5q0 35 -2 60.5t-10 87.5h-184v139h493v-135h-151l10 -143q0 -217 -135 -346.5t-363 -129.5 q-270 0 -423.5 197t-153.5 547z" />
<glyph unicode="H" horiz-adv-x="1329" d="M160 0v1432h149v-633h709v633h151v-1432h-149v651h-711v-651h-149z" />
<glyph unicode="I" horiz-adv-x="606" d="M55 1311v121h496v-121h-168v-1192h168v-119h-492l2 119h166v1192h-172z" />
<glyph unicode="J" horiz-adv-x="915" d="M25 401h145q0 -156 46 -227.5t155 -71.5q98 0 139 72t41 244v893h-213v121h567v-121h-200v-891q0 -236 -82 -343.5t-256 -107.5q-170 0 -256 104.5t-86 327.5z" />
<glyph unicode="K" horiz-adv-x="1138" d="M156 0v1432h145v-625l569 625h187l-629 -682l717 -750h-203l-641 664v-664h-145z" />
<glyph unicode="L" horiz-adv-x="1017" d="M152 0v1432h151v-1287h615v-145h-766z" />
<glyph unicode="M" horiz-adv-x="1687" d="M158 0v1432h168l495 -895l543 895h168v-1432h-150v1178l-493 -816h-135l-453 807v-1169h-143z" />
<glyph unicode="N" horiz-adv-x="1372" d="M154 0v1432h157l645 -1002q43 -72 74 -126t45 -83q-6 45 -10 100.5t-4 122.5v64v924h143v-1432h-153l-648 1004q-80 123 -114 208q10 -84 12 -157.5t2 -155.5v-899h-149z" />
<glyph unicode="O" horiz-adv-x="1425" d="M139 688q0 360 156 563t432 203q270 0 424 -190.5t154 -530.5q0 -371 -153 -566.5t-437 -195.5q-272 0 -424 188.5t-152 528.5zM297 655q0 -262 106.5 -401t311.5 -139q209 0 321.5 152.5t112.5 467.5q0 279 -109.5 427.5t-312.5 148.5q-211 0 -320.5 -162t-109.5 -494z " />
<glyph unicode="P" horiz-adv-x="1077" d="M154 4v1426q49 0 143 4t135 4q580 0 580 -387q0 -207 -132 -301.5t-401 -94.5l-170 4v-655h-155zM305 807q61 -6 95 -9t79 -3q190 0 279.5 57t89.5 192q0 131 -104.5 191.5t-311.5 60.5l-127 -4v-485z" />
<glyph unicode="Q" horiz-adv-x="1425" d="M141 682q0 371 151.5 571.5t434.5 200.5q272 0 425 -189.5t153 -533.5q0 -440 -248 -655l157 -201l-110 -88l-172 221q-68 -20 -113 -28.5t-106 -8.5q-270 0 -421 187.5t-151 523.5zM297 659q0 -264 108.5 -405t313.5 -141q45 0 121 16l-115 145l113 86l133 -165 q180 175 180 540q0 272 -110.5 422t-313.5 150q-211 0 -320.5 -165t-109.5 -483z" />
<glyph unicode="R" horiz-adv-x="1142" d="M158 0v1421q80 6 204 6h82q281 0 425.5 -88t144.5 -309q0 -170 -126 -269t-351 -99l587 -662h-217l-598 680v-680h-151zM309 795q49 -6 79 -8.5t81 -2.5q381 0 381 244q0 125 -92 189.5t-328 64.5q-53 0 -121 -8v-479z" />
<glyph unicode="S" horiz-adv-x="1054" d="M61 147l66 125q90 -76 181 -114.5t194 -38.5q113 0 182.5 61.5t69.5 161.5q0 96 -60.5 161.5t-241 170t-261 202t-80.5 228.5q0 158 102 254t299 96q231 0 426 -123l-57 -149q-94 72 -176 99.5t-181 27.5q-115 0 -180 -53.5t-65 -149.5q0 -78 63.5 -143.5t233 -166 t259 -198.5t89.5 -248q0 -164 -116 -268.5t-312 -104.5q-129 0 -242 45.5t-193 124.5z" />
<glyph unicode="T" horiz-adv-x="1095" d="M51 1282v150h975v-150h-408v-1282h-145v1282h-422z" />
<glyph unicode="U" horiz-adv-x="1335" d="M154 578v854h149v-852q0 -285 102.5 -383.5t260.5 -98.5q145 0 246.5 99.5t101.5 396.5v838h149v-848q0 -346 -137 -479.5t-360 -133.5q-231 0 -371.5 133.5t-140.5 473.5z" />
<glyph unicode="V" horiz-adv-x="1261" d="M74 1432h155l416 -1156l430 1156h158l-535 -1434h-108z" />
<glyph unicode="W" horiz-adv-x="1869" d="M45 1432h156l268 -992l45 -161q16 84 26.5 120.5t22.5 75.5l305 957h131l283 -957l64 -231l63 235l256 953h158l-408 -1438h-135l-303 979q-6 20 -27.5 112.5t-21.5 94.5q-8 -43 -16.5 -77t-28.5 -108l-312 -1003h-118z" />
<glyph unicode="X" horiz-adv-x="1191" d="M31 0l475 727l-453 705h174l367 -580l367 580h184l-461 -709l473 -723h-182l-379 594l-379 -594h-186z" />
<glyph unicode="Y" horiz-adv-x="1122" d="M29 1432h164l368 -627l348 627h168l-444 -768v-664h-146v657z" />
<glyph unicode="Z" horiz-adv-x="1050" d="M39 0v131l760 1155h-727v146h915v-144l-747 -1145h764v-143h-965z" />
<glyph unicode="[" horiz-adv-x="536" d="M123 -119v1546h377v-92h-258v-1360h266v-94h-385z" />
<glyph unicode="\" horiz-adv-x="657" d="M104 1409h121l393 -1567h-124z" />
<glyph unicode="]" horiz-adv-x="536" d="M39 -35h266v1370h-266l2 88h385v-1550l-385 2z" />
<glyph unicode="^" d="M166 475l397 793h55l396 -791h-105l-323 643l-320 -647z" />
<glyph unicode="_" horiz-adv-x="1024" d="M0 -188h1024v-113h-1024v113z" />
<glyph unicode="`" horiz-adv-x="460" d="M-80 1708h223l197 -258h-113z" />
<glyph unicode="a" horiz-adv-x="1028" d="M117 412q0 233 130 371.5t349 138.5q80 0 126 -8.5t130 -36.5v-658q0 -115 86 -115q35 0 72 29v-110q-35 -29 -58.5 -37.5t-64.5 -8.5q-147 0 -170 166q-106 -168 -273 -168q-145 0 -236 115t-91 322zM268 387q0 -268 193 -268q115 0 182.5 102.5t67.5 280.5v262 q-67 22 -126 22h-5q-147 0 -229.5 -104t-82.5 -295z" />
<glyph unicode="b" horiz-adv-x="1024" d="M150 63v1369h131v-658q106 152 284 152q162 0 251 -111.5t89 -312.5q0 -240 -113.5 -382.5t-308.5 -142.5q-174 0 -333 86zM289 147q43 -29 78.5 -39t85.5 -10q141 0 221 105t80 293q0 139 -56.5 219t-146.5 80q-121 0 -191.5 -112t-70.5 -366v-170z" />
<glyph unicode="c" horiz-adv-x="825" d="M117 418q0 236 114.5 371t313.5 135q68 0 107.5 -8.5t109.5 -38.5l-25 -136q-61 29 -93 37t-85 8q-131 0 -210 -99t-79 -267q0 -141 66.5 -228.5t175.5 -87.5q106 0 242 78l10 -137q-129 -72 -250 -72q-188 0 -292.5 117t-104.5 328z" />
<glyph unicode="d" horiz-adv-x="1056" d="M113 408q0 229 117.5 372.5t306.5 143.5q86 0 186 -33v541h145v-1123q0 -137 11.5 -170t66.5 -33q23 0 36 4.5t44 24.5v-110q-61 -43 -123 -43q-70 0 -114 35.5t-56 119.5q-90 -162 -274 -162q-158 0 -252 118t-94 315zM268 395q0 -131 51.5 -205.5t143.5 -74.5 q129 0 195.5 101t66.5 345v199q-43 20 -80 29.5t-78 9.5q-135 0 -217 -110.5t-82 -293.5z" />
<glyph unicode="e" horiz-adv-x="897" d="M117 412q0 227 113.5 369.5t295.5 142.5q137 0 215 -69.5t78 -190.5q0 -143 -118.5 -223.5t-335.5 -80.5l-101 5q12 -123 77 -192t167 -69q119 0 246 89v-142q-121 -78 -258 -78q-174 0 -276.5 119t-102.5 320zM266 492q27 -4 59.5 -6.5t41.5 -2.5q139 0 222 50.5 t83 134.5q0 55 -40 93t-100 38q-96 0 -176 -92.5t-90 -214.5z" />
<glyph unicode="f" horiz-adv-x="610" d="M-160 -555l13 123q100 -47 157 -47q98 0 149.5 75.5t51.5 323.5v862h-178v119h180v88q0 440 289 441q45 0 66.5 -4.5t66.5 -24.5l-6 -133q-33 18 -56.5 24t-54.5 6q-88 0 -126 -76.5t-38 -256.5v-64h221v-123h-221v-897q0 -262 -79.5 -371.5t-254.5 -109.5q-55 0 -87.5 8 t-92.5 37z" />
<glyph unicode="g" horiz-adv-x="1021" d="M121 391q0 256 133 393.5t381 137.5q82 0 123 -6.5t123 -30.5v-975q0 -242 -106.5 -381t-303.5 -139q-154 0 -297 104l33 115q133 -94 252 -94q143 0 210.5 111.5t67.5 291.5v205q-98 -143 -276 -143q-154 0 -247 112.5t-93 298.5zM272 393q0 -131 53.5 -202.5 t149.5 -71.5q125 0 193.5 108.5t68.5 325.5v225q-43 8 -61.5 10.5t-52.5 2.5q-166 0 -258.5 -104.5t-92.5 -293.5z" />
<glyph unicode="h" horiz-adv-x="1021" d="M143 0v1432h138v-666q109 158 274 158q133 0 206 -71t73 -273v-342q0 -135 79 -136q33 0 93 41l4 -114q-78 -47 -144 -47q-182 0 -182 254v358q0 190 -145 190q-104 0 -178 -109.5t-74 -262.5v-412h-144z" />
<glyph unicode="i" horiz-adv-x="460" d="M129 1171q0 41 24.5 70t61.5 29q41 0 69.5 -26.5t28.5 -69.5q0 -35 -26.5 -62t-61.5 -27q-39 0 -67.5 25t-28.5 61zM141 252v649h144v-645q0 -78 18.5 -115t61.5 -37q29 0 96 35v-110q-76 -47 -144 -47q-92 0 -134 64.5t-42 205.5z" />
<glyph unicode="j" horiz-adv-x="430" d="M-227 -557l16 117q96 -49 170 -49q94 0 141 74.5t47 293.5v1022h142v-1024q0 -293 -83 -390t-231 -97q-111 0 -202 53zM123 1176q0 41 24.5 67.5t63.5 26.5q41 0 69.5 -26.5t28.5 -69.5q0 -39 -26.5 -66t-63.5 -27q-39 0 -67.5 27t-28.5 68z" />
<glyph unicode="k" horiz-adv-x="923" d="M145 0v1432h136v-662q74 164 229 164q100 0 167.5 -61.5t67.5 -153.5q0 -94 -72.5 -160.5t-207.5 -95.5l192 -256q31 -41 63 -61.5t66 -20.5q45 0 95 37l2 -125q-61 -47 -135 -47q-57 0 -106.5 34.5t-115.5 122.5l-241 324v-471h-140zM291 528q123 0 215 53.5t92 123.5 q0 45 -27.5 72.5t-70.5 27.5q-68 0 -127.5 -78t-81.5 -199z" />
<glyph unicode="l" horiz-adv-x="462" d="M141 281v1151h146v-1149q0 -186 84 -187q31 0 92 39v-108q-41 -29 -65.5 -37t-67.5 -8q-88 0 -138.5 63.5t-50.5 235.5z" />
<glyph unicode="m" horiz-adv-x="1519" d="M106 901h142q12 -41 19 -78t12 -61q55 88 113.5 125t144.5 37q164 0 247 -154q96 154 269 154q127 0 197.5 -88t70.5 -256v-318q0 -90 18.5 -126t67.5 -36q33 0 94 37v-106q-57 -51 -139 -51q-182 0 -182 249v365q0 197 -138 197q-98 0 -160.5 -82t-62.5 -226v-483h-141 v553q0 229 -154 229q-98 0 -165.5 -90t-67.5 -229v-463h-144v584q0 100 -8 168.5t-33 148.5z" />
<glyph unicode="n" horiz-adv-x="1024" d="M98 901h140q18 -49 32 -149q70 96 132.5 134t152.5 38q129 0 202.5 -91.5t73.5 -252.5v-349q0 -127 84 -127q31 0 91 35l2 -106q-63 -51 -144 -51q-84 0 -133 63.5t-49 171.5v358q0 209 -133 209q-117 0 -191.5 -109.5t-74.5 -287.5v-387h-144v612q0 72 -12 157t-29 132z " />
<glyph unicode="o" horiz-adv-x="1024" d="M117 440q0 225 108.5 356.5t296.5 131.5q184 0 291 -123t107 -340q0 -229 -107.5 -361.5t-296.5 -132.5q-186 0 -292.5 125t-106.5 344zM266 430q0 -160 64.5 -245t183.5 -85q121 0 190.5 98.5t69.5 270.5q0 160 -65.5 246t-186.5 86t-188.5 -96.5t-67.5 -274.5z" />
<glyph unicode="p" horiz-adv-x="1024" d="M111 901h145q12 -35 16 -58.5t9 -66.5q117 154 284 154q156 0 247 -115.5t91 -314.5q0 -238 -104.5 -375t-286.5 -137q-72 0 -122 15t-93 56v-653h-150v1247q0 47 -10 122t-26 126zM293 199q35 -41 87 -67t101 -26q117 0 196 109.5t79 271.5q0 145 -53.5 223t-151.5 78 q-119 0 -188.5 -102t-69.5 -280v-207z" />
<glyph unicode="q" horiz-adv-x="1024" d="M117 395q0 236 127 383.5t362 147.5q86 0 126 -6.5t136 -34.5v-1291l142 148l92 -86l-258 -266l-111 24v707q-121 -141 -278 -141q-158 0 -248 110.5t-90 304.5zM266 385q0 -268 201 -268q125 0 194.5 100.5t69.5 286.5v272q-39 12 -62.5 16.5t-60.5 4.5 q-166 0 -254 -106.5t-88 -305.5z" />
<glyph unicode="r" horiz-adv-x="694" d="M123 901h137q14 -49 19.5 -90t5.5 -109q49 115 110.5 166.5t153.5 51.5q37 0 51 -4.5t51 -22.5l-6 -129q-16 4 -41.5 8t-38.5 4q-123 0 -197.5 -115.5t-74.5 -306.5v-354h-137v604q0 96 -6.5 157.5t-26.5 139.5z" />
<glyph unicode="s" horiz-adv-x="759" d="M66 61l30 125q63 -45 127 -68.5t123 -23.5q74 0 119 35t45 88q0 76 -142.5 169t-202 160.5t-59.5 153.5q0 106 76 168t207 62q127 0 262 -72l-20 -129q-147 76 -246 76q-59 0 -94 -28.5t-35 -76.5q0 -55 41 -87.5t148.5 -103.5t159.5 -134.5t52 -157.5 q0 -113 -77.5 -178.5t-217.5 -65.5q-164 0 -296 88z" />
<glyph unicode="t" horiz-adv-x="657" d="M55 782v119h117v195h137v-195h260v-117h-258v-516q0 -168 123 -168q29 0 73 18.5t83 45.5v-129q-39 -27 -80 -42.5t-92 -15.5q-246 0 -246 293v512h-117z" />
<glyph unicode="u" horiz-adv-x="1024" d="M127 901h147q16 -162 17 -307v-27v-22q0 -47 -1 -85t-1 -69v-24q0 -143 32.5 -205t122.5 -62q104 0 177 91.5t73 234.5v475h142v-663q0 -137 84 -138q18 0 34.5 6.5t57.5 30.5v-108q-70 -47 -140 -47q-141 0 -167 151q-104 -156 -271 -156q-143 0 -215 89.5t-72 285.5 v108.5t3 104.5q0 86 -4.5 159t-18.5 177z" />
<glyph unicode="v" horiz-adv-x="925" d="M45 901h150l264 -811l272 811h150l-281 -788q-27 -74 -52.5 -103.5t-82.5 -29.5q-49 0 -81 21.5t-54 86.5z" />
<glyph unicode="w" horiz-adv-x="1417" d="M59 901h144l227 -795l213 795h123l227 -795l209 795h156l-256 -833q-27 -88 -105 -88q-80 0 -106 88l-186 628l-160 -618q-14 -55 -42 -76.5t-77 -21.5q-39 0 -65.5 18t-41.5 63z" />
<glyph unicode="x" horiz-adv-x="892" d="M47 0l322 475l-285 426h168l201 -321l202 321h176l-299 -428l314 -473h-168l-225 358l-232 -358h-174z" />
<glyph unicode="y" horiz-adv-x="993" d="M125 901h135q14 -80 19.5 -178t5.5 -236v-159q0 -123 37.5 -171t111.5 -48q117 0 187.5 106.5t70.5 314.5v371h148v-954q0 -315 -109.5 -436t-292.5 -121q-82 0 -166 29.5t-133 74.5l33 115q51 -45 123 -75t137 -30q131 0 199.5 103.5t68.5 341.5v180 q-108 -149 -272 -149h-2q-131 0 -205 80.5t-74 273.5v268q0 90 -4 154.5t-18 144.5z" />
<glyph unicode="z" horiz-adv-x="796" d="M57 8v127l480 647h-445v119h631v-106l-492 -662q55 0 137.5 -1t192.5 -3q78 0 98.5 2t77.5 16v-131q-47 -8 -138 -12t-189 -4q-78 4 -172.5 6t-180.5 2z" />
<glyph unicode="{" horiz-adv-x="499" d="M174 0v1432h156v-1432h-156z" />
<glyph unicode="|" horiz-adv-x="299" d="M111 -2v1274l79 2l3 -1274z" />
<glyph unicode="}" horiz-adv-x="874" d="M27 399h141q0 -166 51 -231.5t160 -65.5q102 0 139 60.5t37 249.5v1018h152v-1031q0 -229 -78 -329.5t-254 -100.5q-168 0 -258 106.5t-90 323.5z" />
<glyph unicode="~" d="M152 516q0 135 54 210t150 75q53 0 113 -37l217 -143q45 -29 70.5 -39.5t56.5 -10.5q55 0 85 45.5t30 143.5h63q0 -154 -52 -220.5t-148 -66.5q-41 0 -76 12.5t-90 51.5l-199 131q-47 29 -88 28q-51 0 -86 -51t-35 -129h-65z" />
<glyph unicode="&#xa1;" horiz-adv-x="1122" d="M29 1432h164l368 -627l348 627h168l-444 -768v-664h-146v657zM176 1583l238 297h264l207 -293h-127l-207 178l-238 -182h-137z" />
<glyph unicode="&#xa2;" d="M223 487q0 262 141.5 407.5t372.5 145.5l43 148l88 -29l-37 -129q45 -6 72 -15t70 -30v-158q-45 29 -84 43.5t-98 22.5l-230 -764q51 -14 94 -14q182 0 297 100v-156q-117 -88 -276 -88q-39 0 -68.5 4.5t-81.5 18.5l-55 -178l-92 34l53 185q-98 51 -153.5 173t-55.5 279z M377 467q0 -186 102 -281l209 707q-145 0 -228 -115.5t-83 -310.5z" />
<glyph unicode="&#xa3;" d="M94 111q76 78 137.5 210t81.5 267h-180v133h205q0 371 113.5 554t330.5 183q86 0 131 -14t119 -68l2 -170q-61 57 -118.5 84t-114.5 27q-156 0 -232.5 -138.5t-76.5 -457.5h331v-131h-356q-31 -150 -63.5 -246t-110.5 -209h751v-135h-946z" />
<glyph unicode="&#xa4;" horiz-adv-x="1869" d="M45 1432h156l268 -992l45 -161q16 84 26.5 120.5t22.5 75.5l305 957h131l283 -957l64 -231l63 235l256 953h158l-408 -1438h-135l-303 979q-6 20 -27.5 112.5t-21.5 94.5q-8 -43 -16.5 -77t-28.5 -108l-312 -1003h-118zM569 1702q0 49 31 82t78 33q49 0 84 -35t35 -84 q0 -47 -31 -80t-78 -33q-49 0 -84 33t-35 84zM1065 1698q0 49 31.5 83t77.5 34q51 0 85.5 -33t34.5 -84q0 -47 -31.5 -79t-76.5 -32q-49 0 -85 32t-36 79z" />
<glyph unicode="&#xa5;" d="M20 1432l164 -2l375 -625l359 625h172l-400 -650h330v-116h-383v-170l385 2v-111h-385v-385h-156v385h-375v113h377v166h-381v118l322 -2z" />
<glyph unicode="&#xa6;" horiz-adv-x="393" d="M123 0v487h147l-2 -487h-145zM123 915v488h145l2 -488h-147z" />
<glyph unicode="&#xa7;" d="M92 997q0 207 121 330t328 123q209 0 329.5 -129t120.5 -354q0 -207 -80 -430.5t-256 -536.5h-172q106 178 181 337t122 310q-70 -68 -125 -90t-155 -22q-186 0 -300 128t-114 334zM250 985q0 -143 73.5 -225t200.5 -82q137 0 223.5 92.5t86.5 239.5q0 139 -77 220 t-212 81q-141 0 -218 -85t-77 -241z" />
<glyph unicode="&#xa8;" horiz-adv-x="460" d="M-33 1176q0 41 24.5 67.5t61.5 26.5q39 0 66.5 -27.5t27.5 -66.5q0 -37 -24.5 -61.5t-61.5 -24.5q-39 0 -66.5 25.5t-27.5 60.5zM305 1176q0 39 24.5 65.5t61.5 26.5q41 0 67.5 -26.5t26.5 -65.5q0 -37 -24.5 -64t-61.5 -27t-65.5 27t-28.5 64z" />
<glyph unicode="&#xa9;" horiz-adv-x="1474" d="M37 649q0 287 209 489.5t504 202.5q287 0 486.5 -203.5t199.5 -494.5q0 -293 -205 -499.5t-496 -206.5q-289 0 -493.5 208.5t-204.5 503.5zM137 659q0 -264 176 -448t430 -184q248 0 423 179t175 435q0 250 -178 428t-430 178q-244 0 -420 -172t-176 -416zM418 618 q0 170 96 276.5t252 106.5q125 0 203 -71.5t88 -198.5l-119 -2q-23 172 -172 172q-100 0 -161.5 -78t-61.5 -207q0 -127 59.5 -208.5t153.5 -81.5q152 0 186 172h115q-16 -129 -97 -204t-206 -75q-150 0 -243 111.5t-93 287.5z" />
<glyph unicode="&#xaa;" horiz-adv-x="1869" d="M45 1432h156l268 -992l45 -161q16 84 26.5 120.5t22.5 75.5l305 957h131l283 -957l64 -231l63 235l256 953h158l-408 -1438h-135l-303 979q-6 20 -27.5 112.5t-21.5 94.5q-8 -43 -16.5 -77t-28.5 -108l-312 -1003h-118zM559 1583l238 297h264l207 -293h-127l-207 178 l-238 -182h-137z" />
<glyph unicode="&#xab;" horiz-adv-x="851" d="M72 463l200 344h140l-189 -348l193 -350h-131zM436 463l195 342l141 2l-190 -346l194 -355h-131z" />
<glyph unicode="&#xac;" d="M2 100l447 447l-447 446l113 113l446 -449l451 451l108 -109l-450 -450l450 -451l-110 -112l-451 450l-450 -450z" />
<glyph unicode="&#xad;" horiz-adv-x="528" d="M31 406v118h467v-118h-467z" />
<glyph unicode="&#xae;" horiz-adv-x="909" d="M35 1018q0 172 126 292t306 120q170 0 288.5 -119t118.5 -289q0 -164 -121.5 -279.5t-293.5 -115.5q-176 0 -300 113.5t-124 277.5zM92 1030q0 -145 107.5 -246.5t261.5 -101.5q147 0 249.5 98.5t102.5 239.5q0 147 -102.5 251.5t-249.5 104.5q-154 0 -261.5 -101 t-107.5 -245zM326 823v410h155q139 0 140 -100q0 -76 -86 -105q31 -8 40 -37q23 -84 48 -166h-72q-27 92 -39 136.5t-53 44.5h-70v-183h-63zM389 1061h76q37 0 60.5 17t23.5 46q0 53 -62 54h-98v-117z" />
<glyph unicode="&#xaf;" horiz-adv-x="460" d="M-59 1087v121h583v-121h-583z" />
<glyph unicode="&#xb0;" horiz-adv-x="747" d="M55 1098q0 139 96.5 237.5t233.5 98.5t235.5 -96.5t98.5 -233.5q0 -139 -98.5 -237.5t-239.5 -98.5q-135 0 -230.5 97.5t-95.5 232.5zM145 1100q0 -100 70 -170t168 -70q102 0 173 71t71 171t-71 170.5t-173 70.5q-98 0 -168 -71.5t-70 -171.5z" />
<glyph unicode="&#xb1;" d="M84 -82h950v-137h-950v137zM86 430v145h406l-3 422h144v-422h411v-147h-409v-451h-146v453h-403z" />
<glyph unicode="&#xb2;" horiz-adv-x="763" d="M66 569v111l284 256q178 162 178 262q0 57 -44 91t-115 34q-139 0 -197 -162l-102 68q41 111 113.5 167t187.5 56q135 0 216 -70.5t81 -183.5q0 -106 -57.5 -188t-182.5 -187l-158 -131h402v-123h-606z" />
<glyph unicode="&#xb3;" horiz-adv-x="763" d="M61 705l89 81q55 -53 107 -76.5t122 -23.5q72 0 114 40t42 101q0 72 -66 104t-180 32h-68l-8 127q10 -2 31.5 -4.5t48.5 -2.5q121 0 171 39t50 99q0 47 -39 74.5t-96 27.5q-63 0 -110.5 -22.5t-96.5 -69.5l-82 100q63 61 130 91t161 30q123 0 198.5 -59.5t75.5 -155.5 q0 -164 -161 -211q84 -14 133 -68.5t49 -136.5q0 -117 -83 -190.5t-214 -73.5q-100 0 -178 34t-140 114z" />
<glyph unicode="&#xb4;" horiz-adv-x="460" d="M137 1452l158 260h231l-270 -260h-119z" />
<glyph unicode="&#xb5;" horiz-adv-x="1417" d="M59 901h144l227 -795l213 795h123l227 -795l209 795h156l-256 -833q-27 -88 -105 -88q-80 0 -106 88l-186 628l-160 -618q-14 -55 -42 -76.5t-77 -21.5q-39 0 -65.5 18t-41.5 63zM446 1176q0 41 25 67.5t61 26.5q39 0 67 -27.5t28 -66.5q0 -37 -24.5 -61.5t-61.5 -24.5 q-39 0 -67 25.5t-28 60.5zM784 1176q0 39 25 65.5t61 26.5q41 0 68 -26.5t27 -65.5q0 -37 -25 -64t-61 -27q-37 0 -66 27t-29 64z" />
<glyph unicode="&#xb6;" d="M98 1004q0 207 116 318.5t306 111.5h588v-99h-123v-1855h-115v1855h-215v-1857h-110v1069q-209 0 -328 125t-119 332zM217 991q0 -154 90.5 -250t235.5 -96v688q-168 0 -247 -92t-79 -250z" />
<glyph unicode="&#xb7;" horiz-adv-x="524" d="M154 653q0 43 28.5 74t71.5 31q49 0 82 -31t33 -78q0 -43 -31 -73.5t-74 -30.5q-45 0 -77.5 30.5t-32.5 77.5z" />
<glyph unicode="&#xb8;" horiz-adv-x="460" d="M2 -387l23 104q90 -39 168 -39q61 0 97 23t36 63q0 63 -78 64l-43 -6l-49 61l34 158h97l-27 -131q80 0 137.5 -41t57.5 -113q0 -86 -64.5 -133t-183.5 -47q-66 0 -99.5 6t-105.5 31z" />
<glyph unicode="&#xb9;" horiz-adv-x="763" d="M131 1286q84 53 134 89t85 65h111v-871h-142v705q-27 -20 -73.5 -53t-52.5 -37z" />
<glyph unicode="&#xba;" horiz-adv-x="1417" d="M59 901h144l227 -795l213 795h123l227 -795l209 795h156l-256 -833q-27 -88 -105 -88q-80 0 -106 88l-186 628l-160 -618q-14 -55 -42 -76.5t-77 -21.5q-39 0 -65.5 18t-41.5 63zM403 1032l201 258h219l168 -258h-102l-178 158l-199 -158h-109z" />
<glyph unicode="&#xbb;" horiz-adv-x="851" d="M61 807l140 -2l215 -342l-189 -357h-131l174 355zM422 807h139l219 -344l-192 -354h-133l176 350z" />
<glyph unicode="&#xbc;" horiz-adv-x="1765" d="M131 1286q84 53 134 89t85 65h107v-871h-138v705q-27 -20 -73.5 -53t-52.5 -37zM291 -27l792 1479h156l-795 -1479h-153zM956 195v112l338 557h156l-336 -545h260v338h135v-338h103v-124h-103v-201h-137v201h-416z" />
<glyph unicode="&#xbd;" horiz-adv-x="1765" d="M135 1284q66 41 118 77t97 75h109v-863h-137v703q-20 -16 -58.5 -40t-70.5 -44zM295 -25l790 1473h144l-783 -1473h-151zM1020 -2v108l283 254q96 86 138 146.5t42 116.5q0 57 -46 91t-116 34q-145 0 -205 -156l-96 61q41 111 114.5 166t190.5 55q135 0 216 -70.5 t81 -180.5q0 -106 -55.5 -185.5t-184.5 -189.5l-159 -133h399v-117h-602z" />
<glyph unicode="&#xbe;" horiz-adv-x="1765" d="M61 705l89 81q55 -53 107 -76.5t122 -23.5q72 0 114 40t42 101q0 72 -66 104t-180 32h-72v127q14 -4 39 -5.5t37 -1.5q121 0 171 39t50 99q0 47 -39 74.5t-96 27.5q-63 0 -110.5 -22.5t-96.5 -69.5l-82 100q63 61 130 91t161 30q123 0 198.5 -59.5t75.5 -155.5 q0 -164 -161 -211q84 -14 133 -68.5t49 -136.5q0 -117 -83 -190.5t-214 -73.5q-100 0 -178 34t-140 114zM410 -27l792 1479h156l-793 -1479h-155zM956 195v112l338 557h156l-336 -545h260v338h135v-338h103v-124h-103v-201h-137v201h-416z" />
<glyph unicode="&#xbf;" horiz-adv-x="993" d="M125 901h135q14 -80 19.5 -178t5.5 -236v-159q0 -123 37.5 -171t111.5 -48q117 0 187.5 106.5t70.5 314.5v371h148v-954q0 -315 -109.5 -436t-292.5 -121q-82 0 -166 29.5t-133 74.5l33 115q51 -45 123 -75t137 -30q131 0 199.5 103.5t68.5 341.5v180 q-109 -150 -274 -149q-131 0 -205 80.5t-74 273.5v268q0 90 -4 154.5t-18 144.5zM178 1032l201 258h219l168 -258h-102l-179 158l-198 -158h-109z" />
<glyph unicode="&#xc0;" horiz-adv-x="1304" d="M10 -2l559 1434h152l561 -1434h-156l-192 487h-569l-189 -487h-166zM233 1874h248l207 -289h-121zM418 623h463l-238 596z" />
<glyph unicode="&#xc1;" horiz-adv-x="1304" d="M10 -2l559 1434h152l561 -1434h-154l-192 487h-571l-189 -485zM418 623h463l-238 596zM575 1585l170 291h261l-299 -291h-132z" />
<glyph unicode="&#xc2;" horiz-adv-x="1304" d="M10 -2l559 1434h152l561 -1434h-154l-192 487h-571l-189 -487h-166zM289 1583l237 297h265l206 -293h-127l-206 178l-238 -182h-137zM418 623h463l-238 596z" />
<glyph unicode="&#xc3;" horiz-adv-x="1304" d="M10 -2l559 1434h152l561 -1434h-156l-192 487h-569l-189 -487h-166zM299 1581q0 121 53.5 195.5t136.5 74.5q76 0 180.5 -54t159.5 -54q53 0 75 25.5t22 91.5h104q0 -129 -51 -203t-143 -74q-68 0 -172.5 53.5t-167.5 53.5q-78 0 -93 -109h-104zM418 623h463l-238 596z " />
<glyph unicode="&#xc4;" horiz-adv-x="1304" d="M10 -2l559 1434h152l561 -1434h-154l-192 487h-571l-189 -487h-166zM293 1702q0 49 30.5 82t77.5 33q49 0 84 -35t35 -84q0 -47 -30.5 -80t-77.5 -33q-49 0 -84 33t-35 84zM418 623h463l-238 596zM788 1698q0 49 32 83t77 34q51 0 86 -33t35 -84q0 -47 -32 -79t-77 -32 q-49 0 -85 32t-36 79z" />
<glyph unicode="&#xc5;" horiz-adv-x="1351" d="M47 0l557 1407h150l563 -1407h-156l-190 475l-572 2l-188 -477h-164zM453 612h462l-237 586zM471 1663q0 86 57.5 145.5t139.5 59.5q90 0 153.5 -61.5t63.5 -151.5q0 -82 -58.5 -140.5t-142.5 -58.5q-88 0 -150.5 60.5t-62.5 146.5zM561 1665q0 -47 35 -82t84 -35 q47 0 80 33t33 80q0 49 -37 82t-86 33q-47 0 -78 -33t-31 -78z" />
<glyph unicode="&#xc6;" horiz-adv-x="1800" d="M37 0l735 1430h897l2 -144h-655l92 -477h510v-139h-481l100 -527h446l3 -143h-570l-131 672l-440 -2l-340 -670h-168zM612 811h344l-92 492z" />
<glyph unicode="&#xc7;" horiz-adv-x="1271" d="M133 709q0 342 164 544.5t440 202.5q334 1 467 -280l-129 -70q-57 111 -141 159t-203 48q-201 0 -316.5 -163t-115.5 -452q0 -272 108.5 -425.5t299.5 -153.5q111 0 195.5 45t178.5 158l105 -103q-82 -115 -210 -182.5t-255 -67.5l-16 -71q211 -27 210 -179 q0 -90 -77.5 -141t-214.5 -51q-66 0 -108 9t-99 36l30 111q31 -18 82.5 -28.5t100.5 -19.5q57 0 104 27t47 62t-27.5 58t-70.5 23l-35 -4l-61 70l28 106q-250 61 -365.5 247t-115.5 485z" />
<glyph unicode="&#xc8;" horiz-adv-x="1038" d="M174 0v1432h760v-150h-606v-483h557v-144h-557v-516h620l2 -139h-776zM203 1874h248l206 -289h-120z" />
<glyph unicode="&#xc9;" horiz-adv-x="1038" d="M164 -2v1432h760v-150h-607v-483h557v-144h-557v-516h621v-137zM428 1587l174 291h254l-293 -291h-135z" />
<glyph unicode="&#xca;" horiz-adv-x="1038" d="M168 0v1432h760v-150h-606v-483h557v-144h-557v-516h620l2 -139h-776zM188 1585l238 291h268l205 -289l-129 -2l-203 182l-237 -182h-142z" />
<glyph unicode="&#xcb;" horiz-adv-x="1038" d="M168 0v1432h760v-150h-606v-483h557v-144h-557v-516h620l2 -139h-776zM174 1704q0 49 31 82t76 33q49 0 83.5 -35t34.5 -84t-30.5 -82t-75.5 -33q-49 0 -84 35t-35 84zM672 1702q0 49 30.5 82t77.5 33t82 -35t35 -86q0 -47 -31.5 -79t-77.5 -32q-47 0 -81.5 33t-34.5 84z " />
<glyph unicode="&#xcc;" horiz-adv-x="606" d="M-113 1878h258l213 -293h-131zM57 0v119h172v1192h-172v121h496v-121h-168v-1192h168v-119h-496z" />
<glyph unicode="&#xcd;" horiz-adv-x="606" d="M57 0v119h172v1192h-172v121h496v-121h-168v-1192h168v-119h-496zM205 1587l172 295l260 2l-297 -297h-135z" />
<glyph unicode="&#xce;" horiz-adv-x="606" d="M-16 1585l219 297h239l191 -297h-123l-186 178l-209 -178h-131zM57 0v119h172v1192h-172v121h496v-121h-168v-1192h168v-119h-496z" />
<glyph unicode="&#xcf;" horiz-adv-x="606" d="M-43 1706q0 47 33 82t80 35q53 0 89 -36t36 -87q0 -47 -32 -81t-81 -34q-51 0 -88 35t-37 86zM59 1311v121h496v-121h-168v-1192h168v-119h-492l3 119h165v1192h-172zM412 1702q0 51 30.5 86t79.5 35q51 0 87 -36t36 -87q0 -47 -30.5 -80t-77.5 -33q-51 0 -88 33t-37 82z " />
<glyph unicode="&#xd0;" horiz-adv-x="1419" d="M39 678v127h176v622q37 0 151.5 3.5t190.5 5.5q285 0 513 -149.5t228 -516.5q0 -377 -192.5 -579.5t-515.5 -202.5q-119 0 -207 5t-170 19v666h-174zM373 147q20 -2 99 -7t106 -5q254 0 401 170.5t147 444.5q0 270 -153.5 404t-409.5 134l-188 -2v-481h319v-127h-321 v-531z" />
<glyph unicode="&#xd1;" horiz-adv-x="1374" d="M154 0v1432h157l645 -1002q23 -35 48.5 -82t66.5 -129q0 84 -5 180.5t-5 108.5v924h143v-1432h-153l-648 1004q-37 55 -65.5 111t-48.5 97q4 -80 9 -181t5 -132v-899h-149zM330 1581q0 121 53 195.5t137 74.5q76 0 180.5 -54t159.5 -54q53 0 74.5 25.5t21.5 91.5h105 q0 -129 -51.5 -203t-143.5 -74q-68 0 -172 53.5t-168 53.5q-78 0 -92 -109h-104z" />
<glyph unicode="&#xd2;" horiz-adv-x="1425" d="M139 688q0 360 156 563t432 203q270 0 424 -190.5t154 -530.5q0 -371 -153 -566.5t-437 -195.5q-272 0 -424 188.5t-152 528.5zM297 655q0 -262 106.5 -401t311.5 -139q209 0 321.5 152.5t112.5 467.5q0 279 -109.5 427.5t-312.5 148.5q-211 0 -320.5 -162t-109.5 -494z M336 1874h246l209 -291l-121 2z" />
<glyph unicode="&#xd3;" horiz-adv-x="1425" d="M139 688q0 360 156 563t432 203q270 0 424 -190.5t154 -530.5q0 -371 -153 -566.5t-437 -195.5q-272 0 -424 188.5t-152 528.5zM297 655q0 -262 106.5 -401t311.5 -139q209 0 321.5 152.5t112.5 467.5q0 279 -109.5 427.5t-312.5 148.5q-211 0 -320.5 -162t-109.5 -494z M664 1585l174 291h256l-295 -291h-135z" />
<glyph unicode="&#xd4;" horiz-adv-x="1425" d="M139 688q0 360 156 563t432 203q270 0 424 -190.5t154 -530.5q0 -371 -153 -566.5t-437 -195.5q-272 0 -424 188.5t-152 528.5zM297 655q0 -262 106.5 -401t311.5 -139q209 0 321.5 152.5t112.5 467.5q0 279 -109.5 427.5t-312.5 148.5q-211 0 -320.5 -162t-109.5 -494z M365 1583l239 297h264l207 -293h-127l-209 178l-235 -182h-139z" />
<glyph unicode="&#xd5;" horiz-adv-x="1425" d="M154 688q0 360 155.5 563t431.5 203q270 0 424 -190.5t154 -530.5q0 -328 -159 -545t-431 -217t-423.5 188.5t-151.5 528.5zM311 655q0 -264 106.5 -401t311.5 -137t319.5 162.5t114.5 455.5q0 279 -109.5 427.5t-312.5 148.5q-209 0 -319.5 -168t-110.5 -488zM393 1575 q0 121 53.5 195.5t137.5 74.5q76 0 180 -54t160 -54q53 0 74.5 25.5t21.5 90.5h104q0 -129 -51 -202.5t-143 -73.5q-68 0 -172.5 53t-167.5 53q-78 0 -92 -108h-105z" />
<glyph unicode="&#xd6;" horiz-adv-x="1425" d="M139 688q0 360 156 563t432 203q270 0 424 -190.5t154 -530.5q0 -371 -153 -566.5t-437 -195.5q-272 0 -424 188.5t-152 528.5zM297 655q0 -262 106.5 -401t311.5 -139q209 0 321.5 152.5t112.5 467.5q0 279 -109.5 427.5t-312.5 148.5q-211 0 -320.5 -162t-109.5 -494z M389 1702q0 47 31 80t76 33q47 0 83.5 -35t36.5 -82t-30.5 -80t-77.5 -33q-49 0 -84 35t-35 82zM881 1698q0 49 31.5 83t76.5 34q49 0 84 -35t35 -84q0 -47 -32 -79t-77 -32q-49 0 -83.5 33t-34.5 80z" />
<glyph unicode="&#xd7;" horiz-adv-x="1021" d="M39 162l358 356l-358 356l115 115l356 -358l356 358l115 -115l-358 -356l358 -356l-115 -115l-356 359l-356 -359z" />
<glyph unicode="&#xd8;" horiz-adv-x="1433" d="M119 2l151 203q-129 199 -129 532q0 334 156 526.5t424 192.5q242 0 391 -153l148 194l88 -63l-166 -220q125 -184 125 -509q0 -344 -154 -537t-428 -193q-246 0 -385 146l-139 -184zM297 692q0 -121 12.5 -187.5t55.5 -172.5l659 854q-121 129 -303 129 q-207 0 -315.5 -160t-108.5 -463zM428 236q74 -68 140.5 -96.5t152.5 -28.5q182 0 307 163t125 431q0 129 -15.5 218t-54.5 160z" />
<glyph unicode="&#xd9;" horiz-adv-x="1335" d="M154 578v854h149v-852q0 -285 102.5 -383.5t260.5 -98.5q145 0 246.5 99.5t101.5 396.5v838h149v-848q0 -346 -137 -479.5t-360 -133.5q-231 0 -371.5 133.5t-140.5 473.5zM295 1874h246l209 -291l-121 2z" />
<glyph unicode="&#xda;" horiz-adv-x="1335" d="M154 578v854h149v-852q0 -285 102.5 -383.5t260.5 -98.5q145 0 246.5 99.5t101.5 396.5v838h149v-848q0 -346 -137 -479.5t-360 -133.5q-231 0 -371.5 133.5t-140.5 473.5zM532 1587l170 291h254l-292 -291h-132z" />
<glyph unicode="&#xdb;" horiz-adv-x="1335" d="M154 578v854h149v-852q0 -285 102.5 -383.5t260.5 -98.5q145 0 246.5 99.5t101.5 396.5v838h149v-848q0 -346 -137 -479.5t-360 -133.5q-231 0 -371.5 133.5t-140.5 473.5zM311 1585l238 293l268 2l211 -295h-137l-203 180l-233 -180h-144z" />
<glyph unicode="&#xdc;" horiz-adv-x="1335" d="M154 578v854h149v-852q0 -285 102.5 -383.5t260.5 -98.5q145 0 246.5 99.5t101.5 396.5v838h149v-848q0 -346 -137 -479.5t-360 -133.5q-231 0 -371.5 133.5t-140.5 473.5zM293 1704q0 47 30.5 80t75.5 33q49 0 84 -33t35 -84q0 -47 -30.5 -80t-75.5 -33q-49 0 -84 33 t-35 84zM791 1700q0 49 31.5 83t76.5 34q51 0 86 -35t35 -84q0 -47 -31 -80t-78 -33q-49 0 -84.5 34t-35.5 81z" />
<glyph unicode="&#xdd;" horiz-adv-x="1122" d="M29 1432h159l369 -625l352 625h168l-444 -768v-664h-146v657zM444 1507l158 260h232l-271 -260h-119z" />
<glyph unicode="&#xde;" horiz-adv-x="1054" d="M193 0v1432h145l2 -226l113 2q229 0 373.5 -99.5t144.5 -320.5q0 -205 -144.5 -320.5t-308.5 -115.5q-59 0 -114.5 3t-65.5 3v-358h-145zM340 496q33 -4 64.5 -6.5t70.5 -2.5q137 0 238.5 71t101.5 239q0 154 -105.5 220t-228.5 66l-141 -4v-583z" />
<glyph unicode="&#xdf;" horiz-adv-x="1087" d="M-131 -563l10 123q53 -18 90 -19q113 0 162 83t49 249v911h-145v117h139q0 299 88 415t240 116q147 0 231 -100.5t84 -272.5q0 -78 -6 -113t-35 -115q-68 -25 -91 -48t-23 -64q0 -78 137 -162t182 -153.5t45 -159.5q0 -125 -82 -197t-227 -72q-156 0 -254 58l22 129 q57 -35 101.5 -51.5t99.5 -16.5q90 0 141.5 34t51.5 112q0 61 -36 103t-182.5 131t-146.5 241q0 141 150 205q8 27 12 57.5t4 58.5q0 125 -44 194.5t-130 69.5q-100 0 -141 -95t-41 -408v-953q0 -205 -88.5 -316.5t-245.5 -111.5q-51 0 -121 21z" />
<glyph unicode="&#xe0;" horiz-adv-x="1028" d="M117 412q0 233 130 371.5t349 138.5q80 0 126 -8.5t130 -36.5v-658q0 -115 86 -115q35 0 72 29v-110q-35 -29 -58.5 -37.5t-64.5 -8.5q-147 0 -170 166q-106 -168 -273 -168q-145 0 -236 115t-91 322zM268 387q0 -268 193 -268q115 0 182.5 102.5t67.5 280.5v262 q-70 23 -131 22q-147 0 -229.5 -104t-82.5 -295zM276 1288h218l170 -256h-119z" />
<glyph unicode="&#xe1;" horiz-adv-x="1028" d="M117 412q0 233 130 371.5t349 138.5q80 0 126 -8.5t130 -36.5v-658q0 -115 86 -115q35 0 72 29v-110q-35 -29 -58.5 -37.5t-64.5 -8.5q-147 0 -170 166q-106 -168 -273 -168q-145 0 -236 115t-91 322zM268 387q0 -268 193 -268q115 0 182.5 102.5t67.5 280.5v262 q-70 23 -131 22q-147 0 -229.5 -104t-82.5 -295zM459 1032l129 256h223l-240 -256h-112z" />
<glyph unicode="&#xe2;" horiz-adv-x="1028" d="M117 412q0 233 130 371.5t349 138.5q80 0 126 -8.5t130 -36.5v-658q0 -115 86 -115q35 0 72 29v-110q-35 -29 -58.5 -37.5t-64.5 -8.5q-147 0 -170 166q-106 -168 -273 -168q-145 0 -236 115t-91 322zM223 1034l191 256h233l172 -258h-110l-181 156l-194 -154h-111z M268 387q0 -268 193 -268q115 0 182.5 102.5t67.5 280.5v262q-70 23 -131 22q-147 0 -229.5 -104t-82.5 -295z" />
<glyph unicode="&#xe3;" horiz-adv-x="1028" d="M117 412q0 233 130 371.5t349 138.5q80 0 126 -8.5t130 -36.5v-658q0 -115 86 -115q35 0 72 29v-110q-35 -29 -58.5 -37.5t-64.5 -8.5q-147 0 -170 166q-106 -168 -273 -168q-145 0 -236 115t-91 322zM219 1036q0 109 50 177.5t128 68.5q59 0 144.5 -44t122.5 -44 q39 0 64.5 25.5t25.5 68.5h88q0 -109 -49.5 -174t-126.5 -65q-59 0 -143.5 47t-131.5 47q-35 0 -53.5 -23.5t-26.5 -83.5h-92zM268 387q0 -268 193 -268q115 0 182.5 102.5t67.5 280.5v262q-70 23 -131 22q-147 0 -229.5 -104t-82.5 -295z" />
<glyph unicode="&#xe4;" horiz-adv-x="1028" d="M117 412q0 233 130 371.5t349 138.5q80 0 126 -8.5t130 -36.5v-658q0 -115 86 -115q35 0 72 29v-110q-35 -29 -58.5 -37.5t-64.5 -8.5q-147 0 -170 166q-106 -168 -273 -168q-145 0 -236 115t-91 322zM246 1178q0 39 26.5 67.5t63.5 28.5q41 0 69.5 -28.5t28.5 -69.5 q0 -37 -24.5 -64t-63.5 -27q-41 0 -70.5 26t-29.5 67zM268 387q0 -268 193 -268q115 0 182.5 102.5t67.5 280.5v262q-70 23 -131 22q-147 0 -229.5 -104t-82.5 -295zM590 1178q0 39 26.5 65.5t67.5 26.5t69.5 -26.5t28.5 -69.5q0 -39 -26.5 -66t-63.5 -27q-43 0 -72.5 28 t-29.5 69z" />
<glyph unicode="&#xe5;" horiz-adv-x="1028" d="M117 412q0 233 130 371.5t349 138.5q80 0 126 -8.5t130 -36.5v-658q0 -115 86 -115q35 0 72 29v-110q-35 -29 -58.5 -37.5t-64.5 -8.5q-147 0 -170 166q-106 -168 -273 -168q-145 0 -236 115t-91 322zM268 387q0 -268 193 -268q115 0 182.5 102.5t67.5 280.5v262 q-70 23 -131 22q-147 0 -229.5 -104t-82.5 -295zM340 1161q0 86 57.5 145.5t147.5 59.5q86 0 141 -59.5t55 -145.5q0 -82 -55 -139t-137 -57q-88 0 -148.5 56t-60.5 140zM428 1165q0 -47 35 -79.5t84 -32.5q45 0 76.5 31.5t31.5 76.5q0 49 -28.5 82t-79.5 33q-53 0 -86 -31 t-33 -80z" />
<glyph unicode="&#xe6;" horiz-adv-x="1519" d="M115 416q0 242 123.5 374t349.5 132q131 0 254 -43l-4 -136q109 182 288 183q117 0 201 -75.5t84 -184.5q0 -143 -122 -223.5t-341 -80.5l-86 3q12 -117 85 -188t181 -71q109 0 240 99l6 -142q-131 -90 -260 -90q-262 0 -358 265q-104 -256 -318 -256q-147 0 -235 116.5 t-88 317.5zM268 395q0 -274 183 -274q125 0 194.5 121t69.5 336v192q-82 20 -133 21q-145 0 -229.5 -104.5t-84.5 -291.5zM860 485l66 -6q125 0 226 49.5t101 139.5q0 55 -36.5 90t-96.5 35q-102 0 -181 -91.5t-79 -216.5z" />
<glyph unicode="&#xe7;" horiz-adv-x="825" d="M119 438q0 231 114.5 360.5t319.5 129.5q63 0 103 -8.5t106 -32.5l-14 -142q-70 27 -106 35t-91 8q-127 0 -205 -102t-78 -270q0 -145 66.5 -226t185.5 -81q109 0 240 84l8 -146q-55 -35 -122.5 -53.5t-133.5 -18.5l-14 -65q190 -18 190 -162q0 -80 -64.5 -126 t-174.5 -46q-96 0 -209 39l22 102q82 -39 166 -39q57 0 94 20.5t37 53.5t-24.5 53.5t-61.5 20.5l-35 -4l-51 59l23 103q-152 41 -221.5 149.5t-69.5 304.5z" />
<glyph unicode="&#xe8;" horiz-adv-x="897" d="M117 412q0 227 113.5 369.5t295.5 142.5q137 0 215 -69.5t78 -190.5q0 -143 -118.5 -223.5t-335.5 -80.5l-101 5q12 -123 77 -192t167 -69q119 0 246 89v-142q-121 -78 -258 -78q-174 0 -276.5 119t-102.5 320zM215 1288l219 2l168 -258h-117zM266 492q27 -4 59.5 -6.5 t41.5 -2.5q139 0 222 50.5t83 134.5q0 55 -40 93t-100 38q-96 0 -176 -92.5t-90 -214.5z" />
<glyph unicode="&#xe9;" horiz-adv-x="897" d="M117 412q0 227 113.5 369.5t295.5 142.5q137 0 215 -69.5t78 -190.5q0 -143 -118.5 -223.5t-335.5 -80.5l-101 5q12 -123 77 -192t167 -69q119 0 246 89v-142q-121 -78 -258 -78q-174 0 -276.5 119t-102.5 320zM266 492q27 -4 59.5 -6.5t41.5 -2.5q139 0 222 50.5 t83 134.5q0 55 -40 93t-100 38q-96 0 -176 -92.5t-90 -214.5zM389 1034l131 256h223l-237 -256h-117z" />
<glyph unicode="&#xea;" horiz-adv-x="897" d="M117 412q0 227 113.5 369.5t295.5 142.5q137 0 215 -69.5t78 -190.5q0 -143 -118.5 -223.5t-335.5 -80.5l-101 5q12 -123 77 -192t167 -69q119 0 246 89v-142q-121 -78 -258 -78q-174 0 -276.5 119t-102.5 320zM193 1034l194 256h234l167 -256h-112l-176 154l-195 -154 h-112zM266 492q27 -4 59.5 -6.5t41.5 -2.5q139 0 222 50.5t83 134.5q0 55 -40 93t-100 38q-96 0 -176 -92.5t-90 -214.5z" />
<glyph unicode="&#xeb;" horiz-adv-x="897" d="M117 412q0 227 113.5 369.5t295.5 142.5q137 0 215 -69.5t78 -190.5q0 -143 -118.5 -223.5t-335.5 -80.5l-101 5q12 -123 77 -192t167 -69q119 0 246 89v-142q-121 -78 -258 -78q-174 0 -276.5 119t-102.5 320zM242 1176q0 41 25.5 68.5t60.5 27.5q43 0 71.5 -26.5 t28.5 -69.5q0 -39 -26.5 -66t-63.5 -27q-39 0 -67.5 27t-28.5 66zM266 492q27 -4 59.5 -6.5t41.5 -2.5q139 0 222 50.5t83 134.5q0 55 -40 93t-100 38q-96 0 -176 -92.5t-90 -214.5zM586 1176q0 39 26.5 67.5t65.5 28.5q41 0 70.5 -27.5t29.5 -70.5q0 -39 -25.5 -67 t-64.5 -28q-43 0 -72.5 28t-29.5 69z" />
<glyph unicode="&#xec;" horiz-adv-x="460" d="M-31 1290h217l168 -256h-110zM131 252v649h145v-645q0 -82 18.5 -117t61.5 -35q29 0 97 35v-110q-76 -47 -144 -47q-92 0 -135 64.5t-43 205.5z" />
<glyph unicode="&#xed;" horiz-adv-x="460" d="M115 1034l133 256h221l-240 -256h-114zM131 252v649h145v-645q0 -82 18.5 -117t61.5 -35q29 0 97 35v-110q-76 -47 -144 -47q-92 0 -135 64.5t-43 205.5z" />
<glyph unicode="&#xee;" horiz-adv-x="460" d="M-31 1040l146 252h178l131 -254h-84l-137 154l-148 -154zM131 252v649h145v-645q0 -82 18.5 -117t61.5 -35q29 0 97 35v-110q-76 -47 -144 -47q-92 0 -135 64.5t-43 205.5z" />
<glyph unicode="&#xef;" horiz-adv-x="460" d="M-68 1178q0 41 27 69.5t66 28.5q41 0 69.5 -28.5t28.5 -69.5q0 -37 -26.5 -66t-65.5 -29q-41 0 -70 27t-29 68zM131 252v649h145v-645q0 -82 18.5 -117t61.5 -35q29 0 97 35v-110q-76 -47 -144 -47q-92 0 -135 64.5t-43 205.5zM279 1178q0 39 25.5 66.5t62.5 27.5 q41 0 71.5 -28.5t30.5 -69.5q0 -39 -26.5 -66t-63.5 -27q-41 0 -70.5 28t-29.5 69z" />
<glyph unicode="&#xf0;" horiz-adv-x="1056" d="M129 436q0 211 107.5 348.5t312.5 137.5q47 0 88 -17.5t84 -50.5q-18 72 -65.5 159t-92.5 140l-207 -86l-67 76l215 86q-61 72 -142 137l117 51q53 -47 89 -82t55 -57l204 84l68 -74l-209 -84q109 -125 172.5 -305.5t63.5 -411.5q0 -242 -99.5 -374.5t-302.5 -132.5 q-195 0 -293 121.5t-98 334.5zM274 428q0 -135 58.5 -230.5t183.5 -95.5q137 0 198.5 107t61.5 248q0 145 -54 243.5t-177 98.5q-125 0 -198 -97.5t-73 -273.5z" />
<glyph unicode="&#xf1;" horiz-adv-x="1024" d="M100 901h140q18 -49 32 -149q70 96 132.5 134t152.5 38q129 0 203 -91.5t74 -252.5v-349q0 -127 84 -127q31 0 90 35l2 -106q-63 -51 -144 -51q-84 0 -133 63.5t-49 171.5v358q0 23 -1 48.5t-9 62.5t-44 64.5t-79 27.5q-115 0 -190.5 -110.5t-75.5 -280.5v-387h-144v612 q0 72 -12 157t-29 132zM219 1036q0 109 50 177.5t128 68.5q59 0 144.5 -44t122.5 -44q39 0 64.5 25.5t25.5 68.5h88q0 -109 -49.5 -174t-126.5 -65q-59 0 -143.5 47t-131.5 47q-35 0 -53.5 -23.5t-26.5 -83.5h-92z" />
<glyph unicode="&#xf2;" horiz-adv-x="1024" d="M109 440q0 225 108.5 356.5t296.5 131.5q184 0 290.5 -123t106.5 -340q0 -229 -107.5 -361.5t-295.5 -132.5q-186 0 -292.5 125t-106.5 344zM229 1288h213l168 -252h-110zM258 430q0 -160 64.5 -245t183.5 -85q121 0 190.5 98.5t69.5 270.5q0 160 -65.5 246t-186.5 86 t-188.5 -96.5t-67.5 -274.5z" />
<glyph unicode="&#xf3;" horiz-adv-x="1024" d="M109 440q0 225 108.5 356.5t296.5 131.5q184 0 290.5 -123t106.5 -340q0 -229 -107.5 -361.5t-295.5 -132.5q-186 0 -292.5 125t-106.5 344zM258 430q0 -160 64.5 -245t183.5 -85q121 0 190.5 98.5t69.5 270.5q0 160 -65.5 246t-186.5 86t-188.5 -96.5t-67.5 -274.5z M401 1036l129 254h226l-242 -254h-113z" />
<glyph unicode="&#xf4;" horiz-adv-x="1024" d="M109 440q0 225 108.5 356.5t296.5 131.5q184 0 290.5 -123t106.5 -340q0 -229 -107.5 -361.5t-295.5 -132.5q-186 0 -292.5 125t-106.5 344zM209 1034l192 264l224 -2l159 -262l-102 2l-170 156l-195 -158h-108zM258 430q0 -160 64.5 -245t183.5 -85q121 0 190.5 98.5 t69.5 270.5q0 160 -65.5 246t-186.5 86t-188.5 -96.5t-67.5 -274.5z" />
<glyph unicode="&#xf5;" horiz-adv-x="1024" d="M109 440q0 225 108.5 356.5t296.5 131.5q184 0 290.5 -123t106.5 -340q0 -229 -107.5 -361.5t-295.5 -132.5q-186 0 -292.5 125t-106.5 344zM197 1034q0 109 50 177.5t128 68.5q59 0 144 -44t122 -44q39 0 64.5 25.5t25.5 68.5h88q0 -109 -49 -174t-127 -65 q-59 0 -143 47t-131 47q-35 0 -53.5 -23.5t-26.5 -83.5h-92zM258 430q0 -160 64.5 -245t183.5 -85q121 0 190.5 98.5t69.5 270.5q0 160 -65.5 246t-186.5 86t-188.5 -96.5t-67.5 -274.5z" />
<glyph unicode="&#xf6;" horiz-adv-x="1024" d="M109 440q0 225 108.5 356.5t296.5 131.5q184 0 290.5 -123t106.5 -340q0 -229 -107.5 -361.5t-295.5 -132.5q-186 0 -292.5 125t-106.5 344zM236 1178q0 41 24.5 69.5t63.5 28.5q41 0 70.5 -27.5t29.5 -70.5q0 -39 -26.5 -66t-65.5 -27t-67.5 27t-28.5 66zM258 430 q0 -160 64.5 -245t183.5 -85q121 0 190.5 98.5t69.5 270.5q0 160 -65.5 246t-186.5 86t-188.5 -96.5t-67.5 -274.5zM578 1176q0 41 26.5 69.5t67.5 28.5t69.5 -28.5t28.5 -69.5q0 -37 -26.5 -66t-65.5 -29q-41 0 -70.5 28t-29.5 67z" />
<glyph unicode="&#xf7;" d="M80 434v148h956v-148h-956zM438 164q0 51 31 88t76 37q51 0 87 -32t36 -77q0 -51 -31 -86t-76 -35q-49 0 -86 31t-37 74zM438 834q0 49 31 85.5t76 36.5q51 0 87 -31.5t36 -76.5q0 -49 -31 -86t-76 -37q-51 0 -87 31.5t-36 77.5z" />
<glyph unicode="&#xf8;" horiz-adv-x="1024" d="M76 10l114 137q-76 115 -75 310q0 221 101 345t282 124q150 0 270 -103l104 123l68 -59l-111 -131q78 -141 78 -312q0 -219 -102.5 -346t-280.5 -127q-170 0 -270 105l-113 -131zM258 459q0 -78 4 -106.5t25 -92.5l395 467q-41 43 -75 57.5t-105 14.5q-244 0 -244 -340z M334 170q45 -45 80 -59.5t100 -14.5q117 0 184.5 92t67.5 256q0 66 -6 102t-27 97z" />
<glyph unicode="&#xf9;" horiz-adv-x="1024" d="M127 901h147q16 -162 17 -307v-27v-22q0 -47 -1 -85t-1 -69v-24q0 -143 32.5 -205t122.5 -62q104 0 177 91.5t73 234.5v475h142v-663q0 -137 84 -138q18 0 34.5 6.5t57.5 30.5v-108q-70 -47 -140 -47q-141 0 -167 151q-104 -156 -271 -156q-143 0 -215 89.5t-72 285.5 v108.5t3 104.5q0 86 -4.5 159t-18.5 177zM197 1292h217l170 -258h-109z" />
<glyph unicode="&#xfa;" horiz-adv-x="1024" d="M127 901h147q16 -162 17 -307v-27v-22q0 -47 -1 -85t-1 -69v-24q0 -143 32.5 -205t122.5 -62q104 0 177 91.5t73 234.5v475h142v-663q0 -137 84 -138q18 0 34.5 6.5t57.5 30.5v-108q-70 -47 -140 -47q-141 0 -167 151q-104 -156 -271 -156q-143 0 -215 89.5t-72 285.5 v108.5t3 104.5q0 86 -4.5 159t-18.5 177zM367 1036l131 254h223l-242 -254h-112z" />
<glyph unicode="&#xfb;" horiz-adv-x="1024" d="M127 901h147q16 -162 17 -307v-27v-22q0 -47 -1 -85t-1 -69v-24q0 -143 32.5 -205t122.5 -62q104 0 177 91.5t73 234.5v475h142v-663q0 -137 84 -138q18 0 34.5 6.5t57.5 30.5v-108q-70 -47 -140 -47q-141 0 -167 151q-104 -156 -271 -156q-143 0 -215 89.5t-72 285.5 v108.5t3 104.5q0 86 -4.5 159t-18.5 177zM176 1036l195 256h229l174 -260h-110l-183 162l-192 -158h-113z" />
<glyph unicode="&#xfc;" horiz-adv-x="1024" d="M127 901h147q16 -162 17 -307v-27v-22q0 -47 -1 -85t-1 -69v-24q0 -143 32.5 -205t122.5 -62q104 0 177 91.5t73 234.5v475h142v-663q0 -137 84 -138q18 0 34.5 6.5t57.5 30.5v-108q-70 -47 -140 -47q-141 0 -167 151q-104 -156 -271 -156q-143 0 -215 89.5t-72 285.5 v108.5t3 104.5q0 86 -4.5 159t-18.5 177zM203 1176q0 39 26.5 67.5t63.5 28.5q41 0 69.5 -28.5t28.5 -69.5q0 -37 -25.5 -65t-62.5 -28q-41 0 -70.5 28t-29.5 67zM551 1174q0 39 26.5 67.5t65.5 28.5q41 0 69.5 -26.5t28.5 -69.5q0 -37 -26.5 -66t-63.5 -29q-43 0 -71.5 27 t-28.5 68z" />
<glyph unicode="&#xfd;" horiz-adv-x="993" d="M125 901h135q14 -70 18.5 -242t6.5 -331q0 -119 33.5 -169t115.5 -50q117 0 187.5 106.5t70.5 314.5v371h148v-954q0 -332 -107.5 -444.5t-294.5 -112.5q-86 0 -151.5 22.5t-147.5 81.5l33 115q135 -104 260 -105q139 0 203.5 90.5t64.5 354.5v180q-111 -154 -276 -154 q-129 0 -203 83t-74 276v104q0 102 -1 212t-21 251zM383 1083l158 260h231l-270 -260h-119z" />
<glyph unicode="&#xfe;" horiz-adv-x="1024" d="M158 -594v2026h143v-648q49 55 121 96.5t156 41.5q168 0 251.5 -108t83.5 -292q0 -231 -99 -386.5t-296 -155.5q-70 0 -119 19t-98 56v-649h-143zM301 195q35 -43 78 -68t102 -25q133 0 210 115.5t77 308.5q0 115 -48 188.5t-147 73.5q-129 0 -200.5 -105t-71.5 -251 v-237z" />
<glyph unicode="&#xff;" horiz-adv-x="993" d="M125 901h135q14 -80 19.5 -178t5.5 -236v-159q0 -123 37.5 -171t111.5 -48q117 0 187.5 106.5t70.5 314.5v371h148v-954q0 -315 -109.5 -436t-292.5 -121q-82 0 -166 29.5t-133 74.5l33 115q51 -45 123 -75t137 -30q131 0 199.5 103.5t68.5 341.5v180 q-109 -150 -274 -149q-131 0 -205 80.5t-74 273.5v268q0 90 -4 154.5t-18 144.5zM223 1180q0 41 26.5 69.5t65.5 28.5q41 0 70 -28.5t29 -69.5q0 -37 -27 -66t-63 -29q-43 0 -72 27t-29 68zM567 1178q0 39 27 67.5t65 28.5q43 0 72 -26.5t29 -69.5q0 -37 -26.5 -66 t-65.5 -29q-41 0 -71 28t-30 67z" />
<glyph unicode="&#x152;" horiz-adv-x="1949" d="M92 696q0 354 158 553t440 199q139 0 229.5 -47t178.5 -170v201h753l-2 -146l-604 -2v-479h545v-141h-551v-523h590v-141h-739l-3 188q-113 -119 -210 -166t-232 -47q-262 0 -407.5 189.5t-145.5 531.5zM248 682q0 -272 107.5 -425t299.5 -153q199 0 320 148t121 457 q0 229 -45 347t-148.5 186.5t-232.5 68.5q-422 0 -422 -629z" />
<glyph unicode="&#x153;" horiz-adv-x="1552" d="M104 457q0 221 104.5 345t291.5 124q244 0 344 -213q98 217 309 217q123 0 204 -74.5t81 -189.5q0 -145 -146.5 -228.5t-388.5 -83.5q14 -117 81 -182.5t169 -65.5q127 0 252 103l10 -139q-106 -94 -289 -95q-94 0 -161.5 41t-128.5 138q-43 -88 -130.5 -137.5 t-201.5 -49.5q-188 0 -294 130t-106 360zM252 444q0 -164 67.5 -257t186.5 -93q121 0 188.5 91t67.5 255q0 166 -68.5 261.5t-187.5 95.5q-123 0 -188.5 -90.5t-65.5 -262.5zM895 475q393 0 393 197q0 53 -39 90t-94 37q-66 0 -127 -47t-84.5 -101.5t-34 -102.5t-14.5 -73z " />
<glyph unicode="&#x178;" horiz-adv-x="1122" d="M29 1430l157 2l371 -625l350 623l168 -3l-444 -763l2 -662l-146 -2l-4 657zM178 1706q0 47 31 80t78 33q51 0 86 -35t35 -84q0 -45 -32 -77t-77 -32q-49 0 -85 34t-36 81zM674 1704q0 51 31.5 85t76.5 34q49 0 84 -35t35 -84q0 -47 -30.5 -80t-79.5 -33q-47 0 -82 33 t-35 80z" />
<glyph unicode="&#x2c6;" horiz-adv-x="460" d="M-68 1032l209 258h230l155 -258h-108l-172 156l-205 -156h-109z" />
<glyph unicode="&#x2dc;" horiz-adv-x="460" d="M-82 1044q20 246 174 246q51 0 139 -43t129 -43q74 0 97 94h86q0 -113 -50.5 -176t-132.5 -63q-47 0 -133 47t-135 47q-70 0 -82 -109h-92z" />
<glyph unicode="&#x2000;" horiz-adv-x="942" />
<glyph unicode="&#x2001;" horiz-adv-x="1884" />
<glyph unicode="&#x2002;" horiz-adv-x="942" />
<glyph unicode="&#x2003;" horiz-adv-x="1884" />
<glyph unicode="&#x2004;" horiz-adv-x="628" />
<glyph unicode="&#x2005;" horiz-adv-x="471" />
<glyph unicode="&#x2006;" horiz-adv-x="314" />
<glyph unicode="&#x2007;" horiz-adv-x="314" />
<glyph unicode="&#x2008;" horiz-adv-x="235" />
<glyph unicode="&#x2009;" horiz-adv-x="376" />
<glyph unicode="&#x200a;" horiz-adv-x="104" />
<glyph unicode="&#x2010;" horiz-adv-x="528" d="M31 406v118h467v-118h-467z" />
<glyph unicode="&#x2011;" horiz-adv-x="528" d="M31 406v118h467v-118h-467z" />
<glyph unicode="&#x2012;" horiz-adv-x="528" d="M31 406v118h467v-118h-467z" />
<glyph unicode="&#x2013;" horiz-adv-x="1024" d="M0 406v120h1024v-120h-1024z" />
<glyph unicode="&#x2014;" horiz-adv-x="2048" d="M0 406v120h2048v-120h-2048z" />
<glyph unicode="&#x2018;" horiz-adv-x="423" d="M100 934q0 100 51.5 194.5t141.5 161.5l45 -65q-66 -68 -92.5 -117t-26.5 -107q0 -47 47 -104t47 -94q0 -31 -22.5 -51.5t-54.5 -20.5q-55 0 -95.5 60.5t-40.5 142.5z" />
<glyph unicode="&#x2019;" horiz-adv-x="423" d="M76 788q61 70 85.5 120t24.5 106q0 43 -49 115.5t-49 89.5q0 27 23.5 48t52.5 21q59 0 100 -59.5t41 -145.5q0 -195 -182 -356z" />
<glyph unicode="&#x201a;" horiz-adv-x="423" d="M70 -317q63 55 89.5 104t26.5 104q0 37 -42 101.5t-42 101.5q0 29 22.5 51.5t51.5 22.5q53 0 95 -58.5t42 -136.5q0 -139 -55 -213.5t-76.5 -97t-60.5 -53.5z" />
<glyph unicode="&#x201c;" horiz-adv-x="790" d="M100 936q0 98 52.5 193.5t142.5 160.5l45 -65q-72 -72 -95.5 -117t-23.5 -104q0 -49 46 -109.5t46 -89.5q0 -33 -20.5 -53.5t-54.5 -20.5q-55 0 -96.5 59.5t-41.5 145.5zM457 942q0 199 186 350l47 -65q-63 -68 -87.5 -117t-24.5 -104q0 -47 48 -119t48 -88 q0 -29 -22.5 -49.5t-55.5 -20.5q-59 0 -99 60.5t-40 152.5z" />
<glyph unicode="&#x201d;" horiz-adv-x="790" d="M102 788q61 70 86 120t25 106q0 43 -49 114.5t-49 90.5q0 29 22.5 49t52.5 20q59 0 100.5 -59.5t41.5 -145.5q0 -102 -37 -180t-145 -176zM449 795q117 96 116 227q0 41 -46 104.5t-46 92.5t21.5 50t50.5 21q57 0 100 -59t43 -141q0 -111 -36 -185t-156 -174z" />
<glyph unicode="&#x201e;" horiz-adv-x="790" d="M82 -311q106 82 106 202q0 47 -41 111t-41 92q0 31 22 50.5t56 19.5q53 0 95.5 -58.5t42.5 -136.5q0 -94 -53.5 -190t-139.5 -156zM440 -311q109 100 109 207q0 37 -39 104.5t-39 87.5q0 33 20.5 55.5t53.5 22.5q55 0 98 -59.5t43 -137.5q0 -94 -55.5 -191t-143.5 -157z " />
<glyph unicode="&#x2022;" horiz-adv-x="436" d="M45 680q0 72 46 122t116 50q72 0 125 -51t53 -123t-47 -121t-117 -49q-74 0 -125 49t-51 123z" />
<glyph unicode="&#x2026;" horiz-adv-x="956" d="M61 82q0 37 26 66.5t58 29.5q43 0 71 -27.5t28 -68.5q0 -37 -25.5 -62.5t-62.5 -25.5q-39 0 -67 25.5t-28 62.5zM381 84q0 37 24.5 63.5t63.5 26.5q37 0 65.5 -26.5t28.5 -65.5t-25.5 -66.5t-62.5 -27.5q-39 0 -66.5 27.5t-27.5 68.5zM702 84q0 37 25 63.5t64 26.5 q41 0 67.5 -24.5t26.5 -65.5q0 -39 -24.5 -65.5t-63.5 -26.5q-37 0 -66 26.5t-29 65.5z" />
<glyph unicode="&#x202f;" horiz-adv-x="376" />
<glyph unicode="&#x2039;" horiz-adv-x="516" d="M84 463l201 344h139l-191 -348l195 -350h-131z" />
<glyph unicode="&#x203a;" horiz-adv-x="516" d="M84 109l195 350l-191 348h141l199 -344l-213 -354h-131z" />
<glyph unicode="&#x205f;" horiz-adv-x="471" />
<glyph unicode="&#x2122;" horiz-adv-x="833" d="M16 1190v49h314v-49h-125v-363h-64v363h-125zM356 827v412h115l92 -293l101 293h108v-412h-59v373l-135 -373l-37 2l-123 375v-375z" />
<glyph unicode="&#x25fc;" horiz-adv-x="901" d="M0 0v901h901v-901h-901z" />
</font>
</defs>
</svg>
