<?xml version="1.0" standalone="no"?>
<!DOCTYPE svg PUBLIC "-//W3C//DTD SVG 1.1//EN" "http://www.w3.org/Graphics/SVG/1.1/DTD/svg11.dtd" >
<svg xmlns="http://www.w3.org/2000/svg">
<metadata></metadata>
<defs>
<font id="sassoonprimarytypebold" horiz-adv-x="1021" >
<font-face units-per-em="2048" ascent="1638" descent="-410" />
<missing-glyph horiz-adv-x="636" />
<glyph horiz-adv-x="0" />
<glyph unicode="&#xd;" horiz-adv-x="636" />
<glyph unicode=" "  horiz-adv-x="636" />
<glyph unicode="&#x09;" horiz-adv-x="636" />
<glyph unicode="&#xa0;" horiz-adv-x="636" />
<glyph unicode="!" horiz-adv-x="716" d="M231 154q0 68 49.5 112.5t118.5 44.5q70 0 118 -48t48 -118q0 -68 -47 -114.5t-117 -46.5q-72 0 -121 49t-49 121zM303 395l31 873l270 2l-72 -873z" />
<glyph unicode="&#x22;" horiz-adv-x="942" d="M121 629l121 528q37 147 157 148q61 0 102.5 -39.5t41.5 -100.5q0 -55 -27 -100l-254 -436h-141zM543 629l129 545q16 63 54 97t95 34q63 0 106.5 -39.5t43.5 -96.5q0 -51 -29 -98l-254 -442h-145z" />
<glyph unicode="#" horiz-adv-x="1429" d="M131 342q0 141 94 231.5t271 116.5q-219 86 -220 281q0 158 124 240.5t399 82.5q119 0 193.5 -9t170.5 -36l-63 -233q-170 49 -285 49q-113 0 -173 -38t-60 -107q0 -145 329 -146h363l-57 -909h-306l17 225q-82 -72 -151.5 -94.5t-178.5 -22.5q-205 0 -336 102.5 t-131 266.5zM477 373q0 -61 52.5 -104.5t129.5 -43.5q123 0 204 85t81 220h-139q-176 0 -252 -35.5t-76 -121.5z" />
<glyph unicode="$" d="M55 100l11 242q66 -37 183.5 -81t188.5 -52l33 297q-207 98 -286 190t-79 215q0 170 117 275.5t334 105.5l14 142h140l-15 -144q131 0 291 -78l-12 -241q-74 41 -161 66.5t-142 25.5l-29 -275q207 -90 289 -183t82 -236q0 -182 -128 -278.5t-329 -96.5l-16 -164h-140 l17 160q-59 0 -173 34.5t-190 75.5zM375 958q0 -45 28.5 -73.5t102.5 -61.5l26 242q-158 0 -157 -107zM582 207q80 0 123 31t43 86q0 84 -140 143z" />
<glyph unicode="%" horiz-adv-x="1648" d="M156 924q0 166 81.5 266t221.5 100q133 0 206.5 -81.5t73.5 -233.5q0 -162 -84 -264.5t-219 -102.5q-127 0 -203.5 85t-76.5 231zM326 0l839 1270h209l-842 -1270h-206zM350 926q0 -113 90 -113q49 0 79 44t30 120q0 51 -24.5 79.5t-69.5 28.5q-104 0 -105 -159zM979 293 q0 166 82 266t221 100q133 0 207 -81.5t74 -233.5q0 -162 -84 -264.5t-219 -102.5q-127 0 -204 85t-77 231zM1174 295q0 -113 90 -113q49 0 78.5 44t29.5 120q0 51 -24.5 80t-69.5 29q-104 0 -104 -160z" />
<glyph unicode="&#x26;" horiz-adv-x="1437" d="M90 330q0 145 105.5 252.5t250.5 152.5q-61 72 -92.5 136.5t-31.5 123.5q0 141 108.5 221t300.5 80q164 0 265.5 -83t101.5 -216q0 -211 -267 -317q35 -45 104 -119t97 -106q49 47 108.5 106.5t100.5 116.5l178 -143q-59 -82 -115.5 -138.5t-132.5 -120.5 q57 -63 137 -139t148 -137h-352q-23 20 -67 64.5t-68 70.5q-102 -80 -220 -120t-233 -40q-190 0 -308 97.5t-118 257.5zM373 352q0 -66 50 -107.5t128 -41.5q149 0 276 98l-252 279q-203 -78 -202 -228zM594 993q0 -61 94 -166q146 66 146 160q0 55 -33 86t-90 31 q-51 0 -84 -31t-33 -80z" />
<glyph unicode="'" horiz-adv-x="581" d="M164 629l123 542q31 133 153 134q59 0 104.5 -41.5t45.5 -94.5q0 -51 -29 -98l-256 -442h-141z" />
<glyph unicode="(" horiz-adv-x="739" d="M223 524q0 430 132.5 638t488.5 247l-8 -211q-193 -51 -264.5 -228t-71.5 -446q0 -213 60.5 -333.5t201.5 -141.5l-6 -209q-248 0 -390.5 174t-142.5 510z" />
<glyph unicode=")" horiz-adv-x="739" d="M-25 -160l7 211q197 47 267 222.5t70 451.5q0 207 -61 331t-203 144l6 209q262 -23 398.5 -186.5t136.5 -497.5q0 -430 -132 -638t-489 -247z" />
<glyph unicode="*" horiz-adv-x="813" d="M131 823l137 70q37 18 64.5 27.5t68.5 17.5q-59 18 -74.5 24.5t-47.5 28.5l-117 80l71 96l115 -71q45 -27 94 -90q-4 23 -6 54.5t-2 43.5v37l6 131h121l-8 -131q0 -43 -5 -65.5t-26 -74.5q45 37 61.5 48.5t47.5 25.5l145 74l47 -105l-143 -75q-18 -8 -53 -20.5t-76 -20.5 q55 -8 121 -49l116 -74l-71 -96l-156 102q-25 16 -36 27.5t-23 29.5q12 -45 12 -81.5v-55.5l-8 -131h-119l8 135q0 35 7.5 64.5t25.5 70.5q-35 -37 -50.5 -48t-66.5 -36l-133 -69z" />
<glyph unicode="+" d="M43 430v244h379v387h244v-385l393 -2v-240h-391v-438h-246v434h-379z" />
<glyph unicode="," horiz-adv-x="636" d="M129 -205q78 70 111.5 117t33.5 96q0 70 -36.5 123t-36.5 88q0 43 37.5 71.5t97.5 28.5q86 0 145.5 -59t59.5 -149q0 -111 -50.5 -194t-183.5 -183z" />
<glyph unicode="-" horiz-adv-x="534" d="M61 362l9 205h465l-11 -205h-463z" />
<glyph unicode="." horiz-adv-x="636" d="M160 135q0 68 48 116t118 48q68 0 117 -49t49 -119q0 -68 -49.5 -115t-120.5 -47q-68 0 -115 49.5t-47 116.5z" />
<glyph unicode="/" horiz-adv-x="673" d="M51 -158l404 1563h233l-399 -1563h-238z" />
<glyph unicode="0" d="M113 559q0 358 120.5 546.5t352.5 188.5q418 0 418 -575q0 -336 -126 -540t-366 -204q-399 0 -399 584zM387 528q0 -158 33 -222t117 -64q98 0 142 145t44 385q0 260 -148 260q-98 0 -143 -135t-45 -369z" />
<glyph unicode="1" d="M203 1016l305 256h260l-76 -1274h-272l65 979q-47 -47 -83.5 -82t-75.5 -64z" />
<glyph unicode="2" d="M66 0v156q332 336 432 441t146 176t46 136q0 61 -45 104.5t-108 43.5q-70 0 -133.5 -51.5t-116.5 -149.5l-164 152q82 150 186.5 218t286.5 68t289.5 -94t107.5 -256q0 -117 -73.5 -240.5t-182 -232.5t-280.5 -250h483v-221h-874z" />
<glyph unicode="3" d="M20 180l136 168q133 -158 297 -158q90 0 147 47.5t57 124.5q0 94 -74.5 137.5t-291.5 43.5l6 223q88 -10 139 -10q133 0 184.5 45t51.5 133q0 61 -45 98t-121 37q-125 0 -273 -135l-96 190q147 166 447 166q176 0 277.5 -85t101.5 -232q0 -115 -60.5 -191.5 t-191.5 -128.5q244 -47 243 -301q0 -178 -123.5 -277.5t-345.5 -99.5q-162 0 -264 45.5t-201 159.5z" />
<glyph unicode="4" d="M74 313l10 211l471 748h293l-465 -746h242l18 273h246l-15 -273h152l-10 -213l-152 2l-16 -315h-250l16 313h-540z" />
<glyph unicode="5" d="M25 150l114 184q162 -145 316 -146q100 0 166.5 58.5t66.5 148.5q0 82 -52 134.5t-134 52.5q-98 0 -201 -84l-143 96l51 676h756l-13 -221h-503l-25 -275q53 25 87 33t87 8q172 0 271.5 -105.5t99.5 -285.5q0 -213 -131 -334t-365 -121q-285 0 -448 181z" />
<glyph unicode="6" d="M100 418q0 215 138.5 439t334.5 415l336 2q-172 -166 -255 -267.5t-177 -263.5q57 33 98 45.5t95 12.5q152 0 247 -103.5t95 -271.5q0 -201 -130 -325t-337 -124q-203 0 -324 119t-121 322zM397 397q0 -78 44 -126t120 -48q74 0 121 51.5t47 131.5q0 74 -38 115.5 t-103 41.5q-96 0 -180 -78q-6 -33 -8.5 -48t-2.5 -40z" />
<glyph unicode="7" d="M137 1049l15 221h890l-12 -199l-561 -1071h-301l549 1049h-580z" />
<glyph unicode="8" d="M68 313q0 121 67.5 203t220.5 146q-123 68 -170 133t-47 163q0 162 117 250t348 88q193 0 302.5 -78t109.5 -217q0 -104 -59.5 -182t-194.5 -147q129 -57 188.5 -138t59.5 -202q0 -166 -127 -262.5t-348 -96.5q-213 0 -340 92.5t-127 247.5zM360 342q0 -66 50.5 -104.5 t134.5 -38.5t135 39t51 102q0 53 -49 94t-143 82q-178 -59 -179 -174zM414 961q0 -90 159 -162q72 29 117 70t45 100q0 57 -44 91t-118 34q-68 0 -113.5 -38t-45.5 -95z" />
<glyph unicode="9" d="M100 852q0 197 133.5 317.5t352.5 120.5q203 0 315.5 -102.5t112.5 -284.5q0 -170 -106.5 -409.5t-295.5 -493.5h-321q100 137 169.5 247.5t151.5 266.5q-84 -37 -153 -37q-156 0 -257.5 105.5t-101.5 269.5zM393 868q0 -68 39 -108.5t109 -40.5q80 0 131 51t51 133 q0 147 -152 148q-82 0 -130 -50.5t-48 -132.5z" />
<glyph unicode=":" horiz-adv-x="636" d="M172 145q0 68 48 116t118 48q68 0 117 -49t49 -119q0 -68 -49 -114.5t-121 -46.5q-68 0 -115 49t-47 116zM211 766q0 68 50 116t118 48q70 0 116 -48t46 -118t-50.5 -118t-119.5 -48q-66 0 -113 49t-47 119z" />
<glyph unicode=";" horiz-adv-x="636" d="M104 -205q76 72 111 128.5t35 113.5q0 35 -37 91t-37 91q0 45 38 72.5t99 27.5q86 0 145.5 -59t59.5 -149q0 -113 -50 -195t-185 -182zM223 743q0 68 49.5 117t118.5 49q70 0 119 -49t49 -121q0 -70 -50 -118t-120 -48t-118 50.5t-48 119.5z" />
<glyph unicode="&#x3c;" horiz-adv-x="1208" d="M164 360q0 250 161.5 408t452.5 158q100 0 150.5 -6.5t158.5 -34.5l-67 -1065l160 131l114 -172l-323 -266l-242 8l37 557q-49 -49 -110.5 -69.5t-135.5 -20.5q-160 0 -258 102.5t-98 269.5zM449 397q0 -166 139 -166q90 0 150.5 70t60.5 184l14 172q-57 14 -90 15 q-123 0 -198.5 -76t-75.5 -199z" />
<glyph unicode="=" d="M41 293v231h1018v-231h-1018zM41 662v231l1016 -2v-229h-1016z" />
<glyph unicode="&#x3e;" horiz-adv-x="1366" d="M135 584q0 326 181.5 519t486.5 193q283 0 450 -194l-143 -184q-131 156 -305 155q-158 0 -254 -133t-96 -352q0 -188 65.5 -288.5t188.5 -100.5q98 0 161.5 61.5t63.5 161.5l-4 59h-187l11 207h610l-8 -205h-154l4 -55q0 -211 -136 -332t-374 -121q-274 0 -417.5 156 t-143.5 453z" />
<glyph unicode="?" horiz-adv-x="864" d="M139 1227q82 35 162 51t162 16q203 0 319.5 -98t116.5 -268q0 -150 -98.5 -245t-276.5 -116l-14 -178h-254l25 387l73 -4q258 0 258 152q0 66 -52 107.5t-132 41.5q-55 0 -112.5 -14.5t-155.5 -54.5zM205 154q0 66 48 111.5t120 45.5q70 0 118 -48t48 -118t-48.5 -115.5 t-117.5 -45.5q-70 0 -119 49t-49 121z" />
<glyph unicode="@" horiz-adv-x="1648" d="M84 643q0 305 217 506t551 201q328 0 529.5 -180.5t201.5 -473.5q0 -186 -100.5 -306t-257.5 -120q-88 0 -156 41t-94 111q-90 -139 -242 -139q-106 0 -173.5 77.5t-67.5 202.5q0 182 110.5 311.5t269.5 129.5q43 0 68 -6.5t70 -28.5l4 39h176l-74 -506q0 -59 37 -96 t94 -37q96 0 155.5 84t59.5 219q0 252 -163.5 411.5t-428.5 159.5q-264 0 -436 -166t-172 -424q0 -254 182.5 -430t446.5 -176q127 0 192.5 18.5t182.5 88.5l45 -80q-125 -82 -212 -106.5t-259 -24.5q-326 0 -541 198.5t-215 501.5zM682 586q0 -82 33 -130t90 -48t102 59 t58 149l34 271q-53 35 -102 35q-92 0 -153.5 -96.5t-61.5 -239.5z" />
<glyph unicode="A" horiz-adv-x="1284" d="M0 -2l586 1274h284l414 -1274h-313l-111 348h-391l-156 -348h-313zM553 555h252l-109 336z" />
<glyph unicode="B" horiz-adv-x="1247" d="M168 12l78 1270q104 0 194 2t178 8q535 0 535 -307q0 -98 -51 -171t-174 -124q270 -71 270 -323q0 -197 -156.5 -288t-498.5 -91q-57 0 -166 8t-209 16zM487 227l105 -6q266 0 266 168q0 84 -62.5 125t-195.5 41h-94zM520 791l92 -3q104 0 164 41t60 115q0 70 -64.5 98.5 t-177.5 28.5h-55z" />
<glyph unicode="C" horiz-adv-x="1187" d="M133 584q0 328 168 520t455 192q143 0 258.5 -57.5t189.5 -159.5l-137 -184q-123 154 -291 154q-158 0 -249 -118t-91 -327q0 -377 291 -377q90 0 168 39t170 133l115 -196q-113 -119 -234 -174.5t-270 -55.5q-258 0 -400.5 161t-142.5 450z" />
<glyph unicode="D" horiz-adv-x="1421" d="M174 12l78 1262q55 6 163.5 13t194.5 7q742 0 742 -602q0 -324 -201 -511t-633 -187q-178 0 -237.5 6t-106.5 12zM502 233q14 -2 34.5 -4t36.5 -2q437 0 437 463q0 190 -88 278.5t-283 88.5l-86 -2z" />
<glyph unicode="E" horiz-adv-x="972" d="M147 0l76 1270h756l-8 -230h-465l-21 -274h408l-10 -227h-410l-20 -316h462l-6 -223h-762z" />
<glyph unicode="F" horiz-adv-x="970" d="M143 0l74 1270h756l-8 -215h-465l-21 -334h402l-4 -217h-410l-33 -504h-291z" />
<glyph unicode="G" horiz-adv-x="1376" d="M106 582q0 317 197 515.5t510 198.5h3q315 0 476 -194l-151 -201q-135 160 -318 160q-174 0 -278.5 -141.5t-104.5 -376.5q0 -152 78 -250t201 -98q113 0 182.5 63.5t83.5 208.5h-278l12 207h559l-61 -826h-254q0 94 6 148.5t8 79.5q-74 -51 -144.5 -76t-183.5 -25 q-244 0 -393.5 166t-149.5 441z" />
<glyph unicode="H" horiz-adv-x="1468" d="M160 0l94 1272h313l-43 -518l523 -2l40 520h308l-90 -1272h-310l41 537h-520l-41 -537h-315z" />
<glyph unicode="I" horiz-adv-x="552" d="M127 0l86 1272h295l-82 -1272h-299z" />
<glyph unicode="J" horiz-adv-x="1044" d="M63 324q0 68 11 143h268q-4 -37 -7 -68.5t-3 -68.5q0 -66 30.5 -105t86.5 -39q68 0 106.5 50.5t38.5 185.5l63 848h297l-61 -914q0 -186 -112.5 -284.5t-317.5 -98.5q-399 0 -400 351z" />
<glyph unicode="K" horiz-adv-x="1275" d="M174 0l90 1272h320l-43 -555l426 553h374l-499 -604l491 -666h-385l-418 590l-41 -590h-315z" />
<glyph unicode="L" horiz-adv-x="1148" d="M172 0l88 1272h324l-80 -1059h569l-10 -213h-891z" />
<glyph unicode="M" horiz-adv-x="1718" d="M166 0l84 1270h328l313 -641l428 643l319 -2l-88 -1270h-309l70 756l-312 -463h-254l-206 424l-66 -717h-307z" />
<glyph unicode="N" horiz-adv-x="1484" d="M166 0l82 1272h309l397 -666l113 -190q4 59 7 144t3 110l43 602h287l-84 -1272h-311l-400 659q-20 33 -53 94.5t-59 110.5l-8 -276l-39 -588h-287z" />
<glyph unicode="O" horiz-adv-x="1511" d="M164 575q0 332 182 533t500 201q276 0 427.5 -161.5t151.5 -442.5q0 -360 -176 -545t-501 -185q-279 0 -431.5 157t-152.5 443zM502 565q0 -352 264 -352q150 0 235.5 123.5t85.5 361.5q0 172 -68.5 263.5t-195.5 91.5q-150 0 -235.5 -131t-85.5 -357z" />
<glyph unicode="P" horiz-adv-x="1224" d="M166 2l84 1266l334 8q309 0 457.5 -81t148.5 -290q0 -176 -135 -274.5t-383 -98.5h-37q-27 0 -59.5 2.5t-59.5 4.5l-37 -537h-313zM532 766q14 -2 43 -4t35 -2q246 0 246 164q0 68 -56.5 102.5t-164.5 34.5l-80 -2z" />
<glyph unicode="Q" horiz-adv-x="1509" d="M164 557q0 350 182 550t502 200q281 0 429 -150.5t148 -445.5q0 -383 -237 -572l147 -184l-200 -150l-162 209q-78 -23 -131.5 -31t-120.5 -8q-250 0 -403.5 160t-153.5 422zM504 598q0 -178 59.5 -275.5t169.5 -97.5q27 0 62 13l-84 102l182 145l94 -118q51 41 77 140 t26 214q0 166 -70 262t-191 96q-139 0 -232 -136t-93 -345z" />
<glyph unicode="R" horiz-adv-x="1230" d="M166 0l86 1264q47 0 176 4t180 4q342 0 465 -89t123 -259q0 -154 -111.5 -249t-300.5 -95l439 -580h-363l-346 502l-33 -502h-315zM532 752l84 -7q129 0 192.5 43t63.5 119q0 78 -57 114t-203 36l-57 -4z" />
<glyph unicode="S" horiz-adv-x="1007" d="M59 82l43 225q104 -53 213 -86t177 -33q74 0 118.5 31t44.5 82q0 70 -106.5 148.5t-197.5 146.5t-147.5 156t-56.5 194q0 160 117 252t320 92q223 0 395 -78l-23 -249q-98 47 -184 70.5t-145 23.5q-80 0 -123 -28t-43 -87q0 -70 191.5 -201t250 -214t58.5 -189 q0 -160 -118 -259t-339 -99t-445 102z" />
<glyph unicode="T" horiz-adv-x="1005" d="M86 1057l8 213h971l-10 -215h-336l-68 -1055h-295l66 1055z" />
<glyph unicode="U" horiz-adv-x="1468" d="M197 569l51 701h311l-45 -701q0 -203 50 -279.5t181 -76.5q137 0 212 81t75 290l41 686h320l-52 -697q0 -319 -142 -459.5t-464 -140.5q-291 0 -414.5 140.5t-123.5 455.5z" />
<glyph unicode="V" horiz-adv-x="1347" d="M145 1270h322l262 -881l406 883h321l-631 -1274h-266z" />
<glyph unicode="W" horiz-adv-x="2017" d="M109 1272h321l127 -731q4 -25 10 -78t11 -76q12 37 26 76t39 96l295 713h305l160 -717l43 -207q12 45 22.5 79t42.5 124l254 721h324l-516 -1278h-301l-180 749l-35 177q-29 -96 -56 -158l-325 -770h-279z" />
<glyph unicode="X" horiz-adv-x="1261" d="M-8 0l514 645l-391 627h344l235 -410l303 410h355l-492 -629l408 -643h-353l-249 428l-318 -428h-356z" />
<glyph unicode="Y" horiz-adv-x="1185" d="M88 1272h326l229 -471l295 471h338l-485 -680l-43 -592h-312l41 584z" />
<glyph unicode="Z" horiz-adv-x="1105" d="M2 0l8 115l727 944h-626l12 211h1051l-9 -123l-716 -934h657l-12 -213h-1092z" />
<glyph unicode="[" horiz-adv-x="681" d="M246 -158l88 1565h448l-12 -188h-199l-67 -1178h201l-13 -199h-446z" />
<glyph unicode="\" horiz-adv-x="673" d="M51 1405h234l403 -1563h-237z" />
<glyph unicode="]" horiz-adv-x="681" d="M-20 -158l12 187h198l68 1179h-201l11 199h446l-86 -1565h-448z" />
<glyph unicode="^" d="M47 575l385 699h240l385 -696h-260l-250 491l-256 -494h-244z" />
<glyph unicode="_" horiz-adv-x="1024" d="M0 -168h1024v-182h-1024v182z" />
<glyph unicode="`" horiz-adv-x="624" d="M-45 1288h373l139 -256h-197z" />
<glyph unicode="a" horiz-adv-x="1161" d="M137 360q0 268 154.5 415t447.5 147q92 0 146.5 -8.5t150.5 -36.5l-39 -601q0 -96 90 -96q32 0 91 23l-11 -174q-92 -53 -188 -54q-184 0 -217 144q-111 -139 -293 -139q-160 0 -246 98t-86 282zM416 379q0 -150 129 -150q84 0 144.5 71t60.5 183l12 179q-27 8 -56.5 12 t-50.5 4q-104 0 -171.5 -84t-67.5 -215z" />
<glyph unicode="b" horiz-adv-x="1161" d="M176 63l88 1348h268l-43 -590q102 104 265 105q160 0 254 -100.5t94 -270.5q0 -256 -149.5 -417t-389.5 -161q-205 0 -387 86zM451 256q31 -18 57.5 -24.5t69.5 -6.5q109 0 174 72t65 195q0 88 -32.5 139t-114.5 51q-72 0 -138.5 -59.5t-66.5 -188.5z" />
<glyph unicode="c" horiz-adv-x="919" d="M133 410q0 231 129 372.5t367 141.5q82 0 149.5 -21.5t110.5 -48.5l-58 -233q-41 29 -88 45t-98 16q-106 0 -166.5 -68.5t-60.5 -183.5q0 -100 55 -155.5t158 -55.5q106 0 217 68l8 -236q-143 -71 -289 -71h-4q-186 0 -308 112.5t-122 317.5z" />
<glyph unicode="d" horiz-adv-x="1181" d="M137 379q0 227 141.5 385t346.5 158q43 0 74.5 -6.5t86.5 -24.5l35 520h269l-70 -1096q0 -78 17.5 -105.5t64.5 -27.5q35 0 98 29l-12 -186q-86 -49 -201 -50q-86 0 -128 29t-66 102q-123 -131 -283 -131q-172 0 -272.5 109t-100.5 295zM424 391q0 -78 37 -121t102 -43 q94 0 149.5 66.5t55.5 228.5l8 137q-41 14 -58.5 18.5t-51.5 4.5q-106 0 -174 -80t-68 -211z" />
<glyph unicode="e" horiz-adv-x="1005" d="M137 385q0 231 145.5 385t366.5 154q152 0 240 -69.5t88 -190.5q0 -141 -139.5 -230.5t-362.5 -89.5l-59 2q0 -78 46 -122t128 -44q133 0 293 94l-6 -217q-82 -43 -158 -63.5t-162 -20.5q-197 0 -308.5 110t-111.5 302zM442 532l54 -4q98 0 152 29t54 82q0 33 -22.5 53.5 t-63.5 20.5q-57 0 -106 -51.5t-68 -129.5z" />
<glyph unicode="f" horiz-adv-x="684" d="M-201 -455l17 193q68 -14 123 -14q174 0 228 110.5t54 462.5l25 410h-170l12 194h166q0 285 104.5 403.5t341.5 118.5q66 0 117 -10.5t96 -26.5l-39 -208q-66 32 -137 32h-4q-111 0 -159 -70.5t-48 -238.5h217l-12 -199h-215l-24 -421q0 -469 -113 -617.5t-383 -148.5 q-92 0 -197 30z" />
<glyph unicode="g" horiz-adv-x="1155" d="M135 381q0 252 167 396.5t472 144.5q94 0 142.5 -6t142.5 -31l-51 -781q0 -340 -122 -456.5t-382 -116.5q-88 0 -142.5 9t-113.5 32l16 221q47 -23 108.5 -33t114.5 -10q139 0 204 66.5t65 244.5q-57 -47 -119 -64t-137 -17q-172 0 -268.5 106.5t-96.5 294.5zM418 393 q0 -151 137 -151h2q106 0 160.5 56t54.5 218l10 141q-18 4 -42.5 6.5t-41.5 2.5q-131 0 -205.5 -73t-74.5 -200z" />
<glyph unicode="h" horiz-adv-x="1175" d="M156 0l90 1407h274l-37 -582q49 49 120 75t145 26q117 0 189.5 -85t72.5 -231l-17 -317q0 -63 21.5 -89t66.5 -26q31 0 45.5 5t65.5 34l-10 -188q-53 -27 -97.5 -37t-103.5 -10q-272 0 -272 254l20 323q0 66 -28.5 106t-86.5 40q-59 0 -105 -53.5t-46 -149.5l-31 -502 h-276z" />
<glyph unicode="i" horiz-adv-x="624" d="M160 227l41 674h274l-35 -600q0 -70 16.5 -94.5t61.5 -24.5q23 4 50.5 10.5t60.5 22.5l-13 -186q-55 -29 -97 -39t-107 -10q-131 0 -191.5 56t-60.5 191zM199 1176q0 66 47 110.5t119 44.5q66 0 112.5 -44.5t46.5 -112.5q0 -66 -48 -110t-116 -44t-114.5 45t-46.5 111z " />
<glyph unicode="j" horiz-adv-x="591" d="M-209 -457l14 197q66 -16 111 -16q133 0 191.5 58t58.5 236l53 883h281l-62 -962q0 -236 -108.5 -329t-339.5 -93q-49 0 -83 3t-116 23zM221 1176q0 66 47 110.5t117 44.5q66 0 113 -44.5t47 -112.5q0 -66 -48 -110t-116 -44q-66 0 -113 45t-47 111z" />
<glyph unicode="k" horiz-adv-x="1208" d="M156 0l90 1405h270l-53 -799l348 295h397l-485 -373l154 -245q37 -59 68.5 -79t92.5 -20q41 0 70 6.5t72 24.5l-11 -180q-49 -20 -125.5 -35.5t-138.5 -15.5q-115 0 -171 32.5t-120 143.5l-161 278l-27 -438h-270z" />
<glyph unicode="l" horiz-adv-x="636" d="M172 225l74 1180h282l-73 -1118q0 -86 16 -106.5t72 -20.5q38 0 110 39l-10 -174q-80 -47 -203 -48q-145 0 -206.5 54.5t-61.5 193.5z" />
<glyph unicode="m" horiz-adv-x="1765" d="M166 0l41 686q0 113 -29 215h273q6 -23 10 -39t10 -49q150 119 307 119q74 0 144.5 -36t95.5 -85q55 53 130 85t161 32q276 0 276 -328l-18 -326q0 -98 65 -98q35 0 64 7t76 30l-11 -182q-49 -27 -100 -40.5t-107 -13.5q-266 0 -266 224l23 346q0 78 -32 118t-91 40 q-63 0 -110.5 -60.5t-47.5 -161.5l-31 -483h-274l33 547q0 158 -115 158q-72 0 -121 -58.5t-49 -161.5l-37 -485h-270z" />
<glyph unicode="n" horiz-adv-x="1183" d="M158 0l39 659q0 162 -29 242h270q12 -31 15.5 -43t9.5 -55q129 123 282 123q121 0 193 -84t72 -228l-19 -333q0 -100 82 -101q29 0 49.5 6t67.5 31l-12 -184q-78 -51 -213 -51q-121 0 -188.5 67.5t-67.5 186.5l22 321q0 66 -29.5 107t-87.5 41q-59 0 -105 -56.5 t-46 -144.5l-33 -504h-272z" />
<glyph unicode="o" horiz-adv-x="1157" d="M133 426q0 238 136.5 370t369.5 132q207 0 326.5 -122t119.5 -329q0 -242 -130 -374t-375 -132q-203 0 -325 124t-122 331zM424 428q0 -96 46 -152.5t130 -56.5q90 0 145.5 67.5t55.5 184.5q0 98 -46 154.5t-130 56.5q-96 0 -148.5 -64.5t-52.5 -189.5z" />
<glyph unicode="p" horiz-adv-x="1173" d="M137 -465l72 1147q0 61 -6 120.5t-19 98.5h267q10 -29 13 -44t3 -52q68 66 132.5 94.5t145.5 28.5q156 0 251.5 -103.5t95.5 -271.5q0 -264 -121 -413.5t-316 -149.5q-72 0 -114.5 14t-94.5 55l-32 -524h-277zM446 291q61 -61 144 -62q94 0 153.5 74t59.5 189 q0 86 -38 138t-106 52q-86 0 -145 -73.5t-59 -186.5z" />
<glyph unicode="q" horiz-adv-x="1144" d="M125 350q0 274 154.5 425t463.5 151q102 0 149.5 -6t156.5 -35l-86 -1352h-269l33 557q-118 -110 -256 -110h-2q-154 0 -249 103t-95 267zM416 412q0 -80 40 -126t111 -46q86 0 142.5 65.5t56.5 177.5l12 179q-49 20 -94 20q-121 0 -194.5 -76t-73.5 -194z" />
<glyph unicode="r" horiz-adv-x="792" d="M178 0l37 604v144q0 51 -2 74.5t-14 78.5h250q8 -33 12 -74t4 -73q63 90 121.5 128t132.5 38q41 0 102 -27l-16 -219q-55 12 -80 12q-119 0 -189.5 -87t-70.5 -245l-23 -354h-264z" />
<glyph unicode="s" horiz-adv-x="940" d="M102 39l7 225q84 -43 178 -72.5t164 -29.5q104 0 104 63q0 27 -20.5 45.5t-132 70.5t-185.5 128t-74 180q0 137 99.5 210t287.5 73q102 0 182 -15.5t146 -44.5l-33 -206q-145 65 -270 65h-4q-109 0 -109 -61q0 -31 20.5 -47.5t145.5 -73.5t184.5 -125t59.5 -162 q0 -133 -102.5 -213t-278.5 -80q-115 0 -208 18.5t-161 51.5z" />
<glyph unicode="t" horiz-adv-x="780" d="M102 707l15 194h137l14 227h269l-13 -227h281l-17 -194h-276l-25 -388q0 -139 109 -139q74 0 182 60l-12 -205q-98 -63 -250 -64q-158 0 -232.5 64.5t-74.5 202.5l33 469h-140z" />
<glyph unicode="u" horiz-adv-x="1175" d="M180 270q12 125 21.5 238t9.5 201q0 96 -12 192h260q4 -27 6 -67.5t2 -79.5q0 -106 -10.5 -207t-20.5 -205q0 -137 121 -137q86 0 139.5 55t53.5 193l30 448h252l-39 -604q0 -70 21.5 -95.5t70.5 -25.5q20 0 39 6t70 31l-12 -184q-47 -27 -87 -37t-91 -10 q-166 0 -207 118q-76 -68 -146.5 -95.5t-154.5 -27.5q-152 0 -234 76t-82 217z" />
<glyph unicode="v" horiz-adv-x="1067" d="M94 901h283l125 -426q14 -43 23.5 -78t17.5 -78q12 35 30.5 75t36.5 79l189 428h282l-389 -788q-41 -84 -70.5 -111t-99.5 -27q-63 0 -94 20.5t-55 92.5z" />
<glyph unicode="w" horiz-adv-x="1646" d="M117 901h274l96 -373q10 -39 19.5 -84t17.5 -84l49 148l138 393h333l99 -412q8 -35 16 -71.5t12 -55.5l41 119l146 420h291l-349 -819q-23 -57 -56.5 -78.5t-96.5 -21.5q-113 0 -141 108l-142 543l-215 -555q-20 -53 -56 -77t-97 -24t-93 24t-49 85z" />
<glyph unicode="x" horiz-adv-x="1028" d="M43 0l340 479l-231 422h303l118 -237l144 237h317l-303 -436l254 -465h-303l-143 287l-185 -287h-311z" />
<glyph unicode="y" horiz-adv-x="1144" d="M184 283q10 109 19.5 221t9.5 196q0 98 -12 201h264q6 -53 6 -123q0 -90 -9 -202.5t-20 -225.5q0 -72 27 -100.5t84 -28.5q82 0 135 53.5t53 169.5l27 457h264l-53 -895q0 -270 -122 -370.5t-398 -100.5q-72 0 -110 4t-116 23l11 200q55 -16 112.5 -22t112.5 -6 q98 0 161.5 45t76.5 190l10 119q-37 -41 -111 -74.5t-149 -33.5q-127 0 -200 69.5t-73 233.5z" />
<glyph unicode="z" horiz-adv-x="901" d="M55 2l11 203l458 502h-385l8 194h744l-8 -184l-494 -514q90 0 163 -1t126 -1h27q76 0 151 16l-10 -207q-78 -10 -136.5 -13t-148.5 -3h-102q-82 0 -184.5 3t-219.5 5z" />
<glyph unicode="{" horiz-adv-x="665" d="M53 0l13 190h135l53 891h-135l14 191h561l-10 -191h-139l-53 -891h141l-12 -190h-568z" />
<glyph unicode="|" horiz-adv-x="380" d="M166 0v1274h131v-1274h-131z" />
<glyph unicode="}" horiz-adv-x="1040" d="M55 322v45q6 35 8 61h240l-4 -57q0 -184 143 -185q156 0 156 187l55 708h-221l12 191h691l-13 -191h-174l-51 -725q0 -199 -101.5 -291t-340.5 -92q-205 0 -302.5 85t-97.5 264z" />
<glyph unicode="~" d="M51 543q0 242 62.5 339t208.5 97q109 0 270.5 -121t216.5 -121q57 0 83 47t26 154h143q0 -258 -64.5 -339t-199.5 -81q-100 0 -264 112.5t-224 112.5q-61 0 -91 -47t-30 -153h-137z" />
<glyph unicode="&#xa1;" horiz-adv-x="1185" d="M88 1272h326l229 -471l295 471h338l-485 -680l-43 -592h-312l41 584zM276 1409l256 262h342l213 -260h-245l-150 129l-176 -131h-240z" />
<glyph unicode="&#xa2;" d="M158 406q0 229 134 377.5t363 148.5h37t62 -6l49 133l123 -43l-43 -113l80 -26l-11 -226q-45 29 -70.5 39t-68.5 17l-201 -529q37 -10 62 -10q119 0 227 86l-8 -201q-113 -80 -262 -80q-37 0 -90 11l-58 -158l-116 41l51 143q-133 51 -196.5 147.5t-63.5 248.5zM438 416 q0 -119 60 -180l184 491q-113 0 -178.5 -86t-65.5 -225z" />
<glyph unicode="&#xa3;" d="M51 0v106q98 98 149.5 187.5t69.5 185.5h-174v203h205q0 297 109.5 455.5t355.5 158.5q92 0 158.5 -18t134.5 -53l-10 -252q-98 98 -230 98q-104 0 -161.5 -85t-77.5 -304h280v-201h-311q-20 -70 -58 -130t-104 -132h610l-6 -219h-940z" />
<glyph unicode="&#xa4;" horiz-adv-x="2017" d="M109 1272h321l127 -731q4 -25 10 -78t11 -76q12 37 26 76t39 96l295 713h305l160 -717l43 -207q12 45 22.5 79t42.5 124l254 721h324l-516 -1278h-301l-180 749l-35 177q-29 -96 -56 -158l-325 -770h-279zM684 1538q0 66 44 110t108 44q61 0 104 -45.5t43 -108.5 q0 -59 -43 -104t-104 -45t-106.5 43t-45.5 106zM1221 1536q0 66 43 111t110 45q61 0 104.5 -45.5t43.5 -108.5q0 -61 -43 -104t-105 -43q-63 0 -108 41t-45 104z" />
<glyph unicode="&#xa5;" d="M49 1272h301l211 -438l264 438h295l-391 -580h234l-9 -160h-268l-6 -102h272l-6 -158h-272l-19 -272l-284 -2l18 274h-264l8 162h262l6 101h-266l10 159h228z" />
<glyph unicode="&#xa6;" horiz-adv-x="393" d="M160 0v487h145v-487h-145zM160 915v488h145v-488h-145z" />
<glyph unicode="&#xa7;" d="M117 854q0 197 128 329t347 132q172 0 264 -92t92 -258l-76 -965h-258l50 567q-39 -33 -94.5 -55.5t-110.5 -22.5q-152 0 -247 101.5t-95 263.5zM393 883q0 -145 131 -146q68 0 107 35t47 107l6 53q8 66 -26.5 99.5t-100.5 33.5q-70 0 -117 -51t-47 -131z" />
<glyph unicode="&#xa8;" horiz-adv-x="624" d="M-45 1159q0 59 39 100t100 41q55 0 95 -42t40 -99t-39.5 -97t-95.5 -40q-59 0 -99 40t-40 97zM403 1157q0 59 40 101t100 42q57 0 97 -42t40 -99t-40 -97t-97 -40t-98.5 39t-41.5 96z" />
<glyph unicode="&#xa9;" horiz-adv-x="1476" d="M78 649q0 287 209 489.5t504 202.5q287 0 486.5 -203.5t199.5 -494.5q0 -293 -205 -499.5t-496 -206.5q-289 0 -493.5 208.5t-204.5 503.5zM178 659q0 -264 176 -448t428 -184q250 0 424 178t174 436q0 250 -178 428t-428 178q-244 0 -420 -172t-176 -416zM459 618 q0 170 96 276.5t250 106.5q125 0 202.5 -71.5t90.5 -198.5l-119 -2q-25 172 -172 172q-100 0 -161.5 -78t-61.5 -207q0 -127 59 -208.5t154 -81.5q152 0 186 172h115q-16 -129 -97 -204t-206 -75q-150 0 -243 111.5t-93 287.5z" />
<glyph unicode="&#xaa;" horiz-adv-x="2017" d="M109 1272h321l127 -731q4 -25 10 -78t11 -76q12 37 26 76t39 96l295 713h305l160 -717l43 -207q12 45 22.5 79t42.5 124l254 721h324l-516 -1278h-301l-180 749l-35 177q-29 -96 -56 -158l-325 -770h-279zM676 1409l256 262h342l213 -260h-246l-149 129l-177 -131h-239z " />
<glyph unicode="&#xab;" horiz-adv-x="1030" d="M113 463l221 344h252l-211 -348l174 -350h-246zM518 463l217 342l252 2l-209 -346l172 -355h-245z" />
<glyph unicode="&#xac;" d="M57 526v267h992v-529h-271v262h-721z" />
<glyph unicode="&#xad;" horiz-adv-x="534" d="M61 362l9 205h465l-11 -205h-463z" />
<glyph unicode="&#xae;" horiz-adv-x="909" d="M96 1018q0 172 126 292t306 120q170 0 289 -119t119 -289q0 -164 -122 -279.5t-294 -115.5q-178 0 -301 112.5t-123 278.5zM154 1030q0 -145 107.5 -246.5t260.5 -101.5q147 0 249.5 98.5t102.5 239.5q0 147 -102 251.5t-250 104.5q-154 0 -261 -101t-107 -245zM387 823 v410h156q139 0 139 -100q0 -76 -86 -105q37 -16 53.5 -86t34.5 -117h-72q-27 92 -39 136.5t-53 44.5h-69v-183h-64zM451 1061h75q37 0 60.5 17t23.5 46q0 53 -61 54h-98v-117z" />
<glyph unicode="&#xaf;" horiz-adv-x="624" d="M29 1022l6 186h610l-6 -184z" />
<glyph unicode="&#xb0;" horiz-adv-x="763" d="M111 965q0 137 98 235t237 98q137 0 235.5 -96t98.5 -233q0 -141 -99 -240.5t-241 -99.5q-137 0 -233 98t-96 238zM266 967q0 -76 51.5 -129.5t124.5 -53.5q78 0 131.5 53.5t53.5 129.5q0 74 -53.5 127t-129.5 53q-74 0 -126 -52.5t-52 -127.5z" />
<glyph unicode="&#xb1;" d="M41 455v241h379v389h248v-387h393v-243h-393v-435h-246v435h-381zM53 -43h991v-221h-991v221z" />
<glyph unicode="&#xb2;" horiz-adv-x="753" d="M94 506v102q246 227 329 307t83 142q0 35 -26.5 59.5t-67.5 24.5q-90 0 -160 -123l-123 80q55 98 128 147t196 49t195.5 -57.5t72.5 -157.5q0 -102 -91 -205.5t-251 -222.5h305v-145h-590z" />
<glyph unicode="&#xb3;" horiz-adv-x="829" d="M88 616l98 111q90 -98 195 -98q55 0 92 26.5t37 69.5q0 53 -50 77.5t-194 24.5l6 148q55 -6 99 -6q82 0 114.5 25.5t32.5 74.5q0 74 -102 74q-80 0 -183 -82l-67 123q102 104 301 104q119 0 187.5 -52t68.5 -144q0 -131 -150 -191q145 -35 146 -182q0 -111 -83 -171.5 t-235 -60.5q-109 0 -178 28t-135 101z" />
<glyph unicode="&#xb4;" horiz-adv-x="624" d="M182 1032l142 256h370l-315 -256h-197z" />
<glyph unicode="&#xb5;" horiz-adv-x="1646" d="M117 901h274l96 -373q10 -39 19.5 -84t17.5 -84l49 148l138 393h333l99 -412q8 -35 16 -71.5t12 -55.5l41 119l146 420h291l-349 -819q-23 -57 -56.5 -78.5t-96.5 -21.5q-113 0 -141 108l-142 543l-215 -555q-20 -53 -56 -77t-97 -24t-93 24t-49 85zM528 1159 q0 59 39 100t101 41q55 0 95 -42t40 -99t-40 -97t-95 -40q-59 0 -99.5 40t-40.5 97zM977 1157q0 59 40 101t99 42q57 0 97 -42t40 -99t-39.5 -97t-97.5 -40q-57 0 -98 39t-41 96z" />
<glyph unicode="&#xb6;" d="M63 801q0 231 124 351t417 120h545l-10 -168h-113l-98 -1643h-160l100 1643h-186l-100 -1645h-164l57 951q-201 0 -306.5 101t-105.5 290zM238 813q0 -248 247 -248l33 541q-135 0 -207.5 -77t-72.5 -216z" />
<glyph unicode="&#xb7;" horiz-adv-x="561" d="M170 670q0 66 44 109.5t110 43.5q68 0 112.5 -44.5t44.5 -112.5q0 -66 -45 -111t-112 -45q-63 0 -108.5 47t-45.5 113z" />
<glyph unicode="&#xb8;" horiz-adv-x="624" d="M84 -395l22 119q72 -33 140 -33q49 0 81.5 20.5t32.5 52.5q0 23 -14 37.5t-37 14.5l-28 -4l-29 51l35 133h141l-27 -113q68 0 110 -36t42 -97q0 -180 -279 -180q-66 0 -99.5 6t-90.5 29z" />
<glyph unicode="&#xb9;" horiz-adv-x="829" d="M209 1120l207 158h180l-49 -778h-195l43 579q-18 -16 -41.5 -36.5t-58.5 -41.5z" />
<glyph unicode="&#xba;" horiz-adv-x="1646" d="M117 901h274l96 -373q10 -39 19.5 -84t17.5 -84l49 148l138 393h333l99 -412q8 -35 16 -71.5t12 -55.5l41 119l146 420h291l-349 -819q-23 -57 -56.5 -78.5t-96.5 -21.5q-113 0 -141 108l-142 543l-215 -555q-20 -53 -56 -77t-97 -24t-93 24t-49 85zM498 1038l239 262 h320l200 -260h-231l-139 111l-158 -113h-231z" />
<glyph unicode="&#xbb;" horiz-adv-x="1030" d="M113 807l252 -2l217 -342l-187 -357h-243l172 355zM514 807h254l219 -344l-190 -354h-244l172 350z" />
<glyph unicode="&#xbc;" horiz-adv-x="1683" d="M106 1120l207 158h181l-50 -778h-194l43 579q-18 -16 -42 -36.5t-58 -41.5zM258 -4l834 1278h211l-838 -1278h-207zM954 188l7 136l313 452h209l-305 -448h139l10 164h176l-8 -164h100l-6 -140h-100l-12 -188h-179l13 188h-357z" />
<glyph unicode="&#xbd;" horiz-adv-x="1683" d="M57 1120l207 158h180l-49 -778h-194l43 579q-18 -16 -42 -36.5t-59 -41.5zM188 -4l834 1278h211l-838 -1278h-207zM954 -4v102q246 227 329 307t83 142q0 35 -26.5 59.5t-67.5 24.5q-90 0 -160 -123l-123 80q55 98 128 147t196 49t195.5 -57.5t72.5 -157.5 q0 -102 -91 -205.5t-251 -222.5h305v-145h-590z" />
<glyph unicode="&#xbe;" horiz-adv-x="1683" d="M63 616l99 111q90 -98 194 -98q55 0 92 26.5t37 69.5q0 53 -50 77.5t-193 24.5l6 148q55 -6 98 -6q82 0 115 25.5t33 74.5q0 74 -103 74q-80 0 -182 -82l-68 123q102 104 301 104q119 0 187.5 -52t68.5 -144q0 -131 -149 -191q145 -35 145 -182q0 -111 -83 -171.5 t-234 -60.5q-109 0 -178.5 28t-135.5 101zM418 -4l833 1278h211l-837 -1278h-207zM1063 178l6 135l313 453h209l-305 -449h139l11 164h176l-8 -164h100l-6 -139h-101l-12 -188h-178l12 188h-356z" />
<glyph unicode="&#xbf;" horiz-adv-x="1144" d="M184 283q10 109 19.5 221t9.5 196q0 98 -12 201h264q6 -53 6 -123q0 -90 -9 -202.5t-20 -225.5q0 -72 27 -100.5t84 -28.5q82 0 135 53.5t53 169.5l27 457h264l-53 -895q0 -270 -122 -370.5t-398 -100.5q-72 0 -110 4t-116 23l11 200q55 -16 112.5 -22t112.5 -6 q98 0 161.5 45t76.5 190l10 119q-37 -41 -111 -74.5t-149 -33.5q-127 0 -200 69.5t-73 233.5zM252 1038l240 262h319l201 -260h-232l-139 111l-158 -113h-231z" />
<glyph unicode="&#xc0;" horiz-adv-x="1284" d="M0 -2l586 1274h284l414 -1274h-313l-111 348h-391l-156 -348h-313zM207 1667h397l217 -260h-227zM557 553h248l-109 326z" />
<glyph unicode="&#xc1;" horiz-adv-x="1284" d="M0 -2l586 1274h284l414 -1274h-313l-111 348h-391l-156 -348h-313zM553 555h252l-109 336zM604 1409l213 258l408 2l-387 -260h-234z" />
<glyph unicode="&#xc2;" horiz-adv-x="1284" d="M0 -2l586 1274h284l414 -1274h-313l-111 348h-391l-156 -348h-313zM328 1409l256 262h342l213 -260h-246l-150 129l-176 -131h-239zM553 555h252l-109 336z" />
<glyph unicode="&#xc3;" horiz-adv-x="1284" d="M0 -2l586 1274h284l414 -1274h-313l-111 348h-391l-156 -348h-313zM334 1405q0 180 55 264t166 84q53 0 187.5 -58.5t181.5 -58.5q86 0 106 129h115q0 -164 -67.5 -259t-182.5 -95q-57 0 -172 56.5t-170 56.5q-43 0 -66.5 -25.5t-40.5 -93.5h-112zM557 553h248l-109 326z " />
<glyph unicode="&#xc4;" horiz-adv-x="1284" d="M0 -2l586 1274h284l414 -1274h-313l-111 348h-391l-156 -348h-313zM313 1538q0 66 44 110t108 44q61 0 104 -45.5t43 -108.5q0 -59 -43 -104t-104 -45t-106.5 43t-45.5 106zM553 555h252l-109 336zM850 1536q0 66 43 111t108 45q61 0 105.5 -46.5t44.5 -107.5t-43 -104 t-107 -43q-63 0 -107 42t-44 103z" />
<glyph unicode="&#xc5;" horiz-adv-x="1284" d="M0 -2l586 1274h284l414 -1274h-313l-111 348h-391l-156 -348h-313zM532 1536q0 86 59.5 145.5t145.5 59.5t146.5 -62.5t60.5 -148.5q0 -82 -61.5 -141.5t-147.5 -59.5q-84 0 -143.5 59.5t-59.5 147.5zM553 555h252l-109 336zM631 1536q0 -43 30.5 -73.5t73.5 -30.5 t75 29.5t32 72.5t-31 73.5t-74 30.5q-45 0 -75.5 -28.5t-30.5 -73.5z" />
<glyph unicode="&#xc6;" horiz-adv-x="1961" d="M-2 0l944 1272h1010l2 -213h-615l56 -352h458v-230h-428l52 -266h387v-211h-643l-86 479h-449l-362 -479h-326zM834 707h268l-49 327z" />
<glyph unicode="&#xc7;" horiz-adv-x="1183" d="M127 584q0 328 168 520t457 192q147 0 250.5 -49t197.5 -168l-137 -178q-63 78 -132 113t-159 35q-158 0 -249 -118t-91 -327q0 -377 291 -377q90 0 167 39t169 133l115 -196q-215 -227 -472 -228l-18 -84q80 0 128 -44t48 -113q0 -98 -85 -153.5t-234 -55.5 q-78 0 -115 6t-111 35l27 139q90 -39 162 -39q59 0 95 23.5t36 62.5q0 27 -17.5 44.5t-46.5 17.5l-36 -7l-31 54l35 127q-203 41 -307.5 192.5t-104.5 403.5z" />
<glyph unicode="&#xc8;" horiz-adv-x="972" d="M147 0l76 1270h756l-8 -230h-465l-21 -274h408l-10 -227h-410l-20 -316h462l-6 -223h-762zM176 1665l397 2l218 -260h-228z" />
<glyph unicode="&#xc9;" horiz-adv-x="972" d="M147 0l76 1270h756l-8 -230h-465l-21 -274h408l-10 -227h-410l-20 -316h462l-6 -223h-762zM444 1409l213 258l408 2l-387 -264z" />
<glyph unicode="&#xca;" horiz-adv-x="972" d="M147 0l76 1270h756l-8 -230h-465l-21 -274h408l-10 -227h-410l-20 -316h462l-6 -223h-762zM195 1409l256 262h342l213 -260h-246l-154 125l-172 -127h-239z" />
<glyph unicode="&#xcb;" horiz-adv-x="972" d="M147 0l76 1270h756l-8 -230h-465l-21 -274h408l-10 -227h-410l-20 -316h462l-6 -223h-762zM193 1538q0 66 44 110t107 44q61 0 104.5 -45.5t43.5 -108.5q0 -59 -43 -104t-105 -45q-61 0 -106 43t-45 106zM729 1536q0 66 43 111t111 45q61 0 104 -45.5t43 -108.5 q0 -61 -43 -104t-104 -43q-63 0 -108.5 41t-45.5 104z" />
<glyph unicode="&#xcc;" horiz-adv-x="552" d="M-90 1665l397 2l217 -260h-227zM127 0l86 1272h295l-82 -1272h-299z" />
<glyph unicode="&#xcd;" horiz-adv-x="552" d="M127 0l86 1272h295l-82 -1272h-299zM217 1409l213 258l408 2l-387 -264z" />
<glyph unicode="&#xce;" horiz-adv-x="552" d="M39 1409l211 262h282l177 -260h-203l-119 102l-149 -104h-199zM127 0l86 1272h295l-82 -1272h-299z" />
<glyph unicode="&#xcf;" horiz-adv-x="552" d="M39 1524q0 55 39 96t94 41t93 -40t38 -99q0 -55 -37 -94t-92 -39q-57 0 -96 38.5t-39 96.5zM127 0l86 1272h295l-82 -1272h-299zM434 1520q0 57 39 98t96 41q55 0 93 -40t38 -97q0 -55 -38.5 -94t-92.5 -39q-53 0 -94 38.5t-41 92.5z" />
<glyph unicode="&#xd0;" horiz-adv-x="1421" d="M66 580l8 153h145l33 541q55 6 163.5 13t194.5 7q742 0 742 -602q0 -324 -201 -511t-633 -187q-178 0 -237.5 6t-106.5 12l35 568h-143zM502 233q14 -2 34.5 -4t36.5 -2q437 0 437 463q0 190 -88 278.5t-283 88.5l-86 -2l-21 -322h207l-6 -153h-211z" />
<glyph unicode="&#xd1;" horiz-adv-x="1509" d="M166 0l82 1272h297l428 -672q59 -92 119 -184l12 254l43 602h285l-84 -1272h-297l-433 662q-35 53 -64.5 103t-57.5 101q-2 -72 -3 -151.5t-1 -126.5l-39 -588h-287zM500 1405q0 180 55 264t166 84q57 0 183 -58.5t188 -58.5q86 0 104 129h115q0 -164 -67.5 -259 t-182.5 -95q-74 0 -180.5 56.5t-161.5 56.5q-43 0 -66.5 -25.5t-40.5 -93.5h-112z" />
<glyph unicode="&#xd2;" horiz-adv-x="1511" d="M164 575q0 332 182 533t500 201q276 0 427.5 -161.5t151.5 -442.5q0 -319 -182 -524.5t-495 -205.5q-279 0 -431.5 157t-152.5 443zM373 1665l397 2l217 -260h-227zM502 565q0 -352 264 -352q145 0 233 133t88 352q0 172 -68.5 263.5t-195.5 91.5q-150 0 -235.5 -131 t-85.5 -357z" />
<glyph unicode="&#xd3;" horiz-adv-x="1511" d="M164 575q0 332 182 533t500 201q276 0 427.5 -161.5t151.5 -442.5q0 -319 -182 -524.5t-495 -205.5q-279 0 -431.5 157t-152.5 443zM502 565q0 -352 264 -352q145 0 233 133t88 352q0 172 -68.5 263.5t-195.5 91.5q-150 0 -235.5 -131t-85.5 -357zM698 1409l213 258 l408 2l-387 -264z" />
<glyph unicode="&#xd4;" horiz-adv-x="1511" d="M164 575q0 332 182 533t500 201q276 0 427.5 -161.5t151.5 -442.5q0 -319 -182 -524.5t-495 -205.5q-279 0 -431.5 157t-152.5 443zM455 1409l256 262h342l215 -260h-246l-150 129l-176 -131h-241zM502 565q0 -352 264 -352q145 0 233 133t88 352q0 172 -68.5 263.5 t-195.5 91.5q-150 0 -235.5 -131t-85.5 -357z" />
<glyph unicode="&#xd5;" horiz-adv-x="1511" d="M164 575q0 332 182 533t500 201q276 0 427.5 -161.5t151.5 -442.5q0 -319 -182 -524.5t-495 -205.5q-279 0 -431.5 157t-152.5 443zM461 1405q0 180 55 264t166 84q59 0 195.5 -58.5t175.5 -58.5q86 0 104 129h115q0 -164 -67.5 -259t-182.5 -95q-66 0 -183.5 56.5 t-158.5 56.5q-49 0 -68.5 -23.5t-38.5 -95.5h-112zM502 565q0 -352 264 -352q145 0 233 133t88 352q0 172 -68.5 263.5t-195.5 91.5q-150 0 -235.5 -131t-85.5 -357z" />
<glyph unicode="&#xd6;" horiz-adv-x="1511" d="M164 575q0 332 182 533t500 201q276 0 427.5 -161.5t151.5 -442.5q0 -319 -182 -524.5t-495 -205.5q-279 0 -431.5 157t-152.5 443zM455 1538q0 66 44 110t107 44q59 0 102.5 -45.5t43.5 -108.5q0 -59 -43 -104t-103 -45q-61 0 -106 43t-45 106zM502 565q0 -352 264 -352 q145 0 233 133t88 352q0 172 -68.5 263.5t-195.5 91.5q-150 0 -235.5 -131t-85.5 -357zM991 1536q0 66 43 111t109 45q61 0 104 -45.5t43 -108.5q0 -61 -43 -104t-104 -43q-63 0 -107.5 42t-44.5 103z" />
<glyph unicode="&#xd7;" d="M12 215l334 334l-332 332l174 174l330 -332l324 321l170 -170l-322 -321l334 -330l-174 -174l-332 328l-334 -334z" />
<glyph unicode="&#xd8;" horiz-adv-x="1550" d="M88 27l188 190q-113 150 -112 381q0 328 178 512t528 184q119 0 224.5 -41t162.5 -94l189 184l113 -100l-195 -194q57 -86 83 -171t26 -208q0 -313 -173.5 -501.5t-521.5 -188.5q-135 0 -227 30.5t-164 93.5l-180 -176zM504 610q0 -94 24 -151l492 477q-68 74 -209 74 q-143 0 -225 -106.5t-82 -293.5zM616 326q80 -70 222 -70q133 0 212.5 96t79.5 289q0 25 -5 67t-19 93z" />
<glyph unicode="&#xd9;" horiz-adv-x="1468" d="M197 569l51 701h311l-45 -701q0 -170 54.5 -263t176.5 -93q137 0 212 81t75 290l41 686h320l-52 -697q0 -319 -142 -459.5t-464 -140.5q-283 0 -410.5 154t-127.5 442zM340 1665l397 2l217 -260h-227z" />
<glyph unicode="&#xda;" horiz-adv-x="1468" d="M197 569l51 701h311l-45 -701q0 -170 54.5 -263t176.5 -93q137 0 212 81t75 290l41 686h320l-52 -697q0 -319 -142 -459.5t-464 -140.5q-283 0 -410.5 154t-127.5 442zM698 1409l213 258l408 2l-387 -264z" />
<glyph unicode="&#xdb;" horiz-adv-x="1468" d="M197 569l51 701h311l-45 -701q0 -170 54.5 -263t176.5 -93q137 0 212 81t75 290l41 686h320l-52 -697q0 -319 -142 -459.5t-464 -140.5q-283 0 -410.5 154t-127.5 442zM410 1409l256 262h342l215 -260h-248l-150 129l-176 -131h-239z" />
<glyph unicode="&#xdc;" horiz-adv-x="1468" d="M197 569l51 701h311l-45 -701q0 -170 54.5 -263t176.5 -93q137 0 212 81t75 290l41 686h320l-52 -697q0 -319 -142 -459.5t-464 -140.5q-283 0 -410.5 154t-127.5 442zM420 1538q0 63 45 108.5t106 45.5t104.5 -45.5t43.5 -108.5q0 -59 -43 -104t-103 -45q-63 0 -108 43 t-45 106zM958 1536q0 66 43 111t109 45q61 0 104 -45.5t43 -108.5q0 -61 -43 -104t-104 -43q-63 0 -107.5 42t-44.5 103z" />
<glyph unicode="&#xdd;" horiz-adv-x="1185" d="M88 1272h326l229 -471l295 471h338l-485 -680l-43 -592h-312l41 584zM551 1393l141 256h371l-315 -256h-197z" />
<glyph unicode="&#xde;" horiz-adv-x="1224" d="M166 0l96 1407h332l-19 -238q309 0 458 -80.5t149 -289.5q0 -176 -135.5 -274.5t-382.5 -98.5h-37q-27 0 -59.5 2t-59.5 4l-29 -432h-313zM524 659q14 -2 43 -4t35 -2q246 0 246 164q0 68 -56.5 102.5t-164.5 34.5l-80 -2z" />
<glyph unicode="&#xdf;" horiz-adv-x="1191" d="M-195 -455l15 201q39 -6 63.5 -10t50.5 -4q141 0 206 112.5t80.5 287.5t15.5 458l2 117h-162l10 194h160q0 279 92 397.5t311 118.5q352 0 352 -358q0 -80 -11 -129t-29 -84q-68 -27 -92.5 -52.5t-24.5 -70.5q0 -37 25.5 -66.5t155.5 -117.5t130 -260 q0 -141 -99.5 -222.5t-269.5 -81.5q-78 0 -127 10.5t-135 43.5l70 204q82 -33 145 -32q127 0 127 92q0 39 -19.5 60.5t-133 89t-113.5 245.5t143 248q16 35 17 92q0 139 -119 139q-80 0 -111.5 -65.5t-31.5 -241.5q0 -854 -111 -1093.5t-448 -239.5q-51 0 -68.5 2t-65.5 16z " />
<glyph unicode="&#xe0;" horiz-adv-x="1161" d="M137 360q0 268 154.5 415t447.5 147q92 0 146.5 -8.5t150.5 -36.5l-39 -601q0 -96 90 -96q32 0 91 23l-11 -174q-92 -53 -188 -54q-184 0 -217 144q-111 -139 -293 -139q-160 0 -246 98t-86 282zM293 1288h373l139 -256h-197zM416 379q0 -150 129 -150q84 0 144.5 71 t60.5 183l12 179q-27 8 -56.5 12t-50.5 4q-104 0 -171.5 -84t-67.5 -215z" />
<glyph unicode="&#xe1;" horiz-adv-x="1161" d="M137 360q0 268 154.5 415t447.5 147q92 0 146.5 -8.5t150.5 -36.5l-39 -601q0 -96 90 -96q32 0 91 23l-11 -174q-92 -53 -188 -54q-184 0 -217 144q-111 -139 -293 -139q-160 0 -246 98t-86 282zM416 379q0 -150 129 -150q84 0 144.5 71t60.5 183l12 179q-27 8 -56.5 12 t-50.5 4q-104 0 -171.5 -84t-67.5 -215zM569 1032l142 256h370l-315 -256h-197z" />
<glyph unicode="&#xe2;" horiz-adv-x="1161" d="M137 360q0 268 154.5 415t447.5 147q92 0 146.5 -8.5t150.5 -36.5l-39 -601q0 -96 90 -96q32 0 91 23l-11 -174q-92 -53 -188 -54q-184 0 -217 144q-111 -139 -293 -139q-160 0 -246 98t-86 282zM276 1028l240 262h320l200 -260h-231l-139 111l-158 -113h-232zM416 379 q0 -150 129 -150q84 0 144.5 71t60.5 183l12 179q-27 8 -56.5 12t-50.5 4q-104 0 -171.5 -84t-67.5 -215z" />
<glyph unicode="&#xe3;" horiz-adv-x="1161" d="M137 360q0 268 154.5 415t447.5 147q92 0 146.5 -8.5t150.5 -36.5l-39 -601q0 -96 90 -96q32 0 91 23l-11 -174q-92 -53 -188 -54q-184 0 -217 144q-111 -139 -293 -139q-160 0 -246 98t-86 282zM356 1030q0 154 51.5 235t145.5 81q39 0 129 -53.5t154 -53.5q74 0 88 117 h114q0 -156 -55 -238t-160 -82q-39 0 -120.5 51.5t-147.5 51.5q-43 0 -61.5 -27t-22.5 -82h-115zM416 379q0 -150 129 -150q84 0 144.5 71t60.5 183l12 179q-27 8 -56.5 12t-50.5 4q-104 0 -171.5 -84t-67.5 -215z" />
<glyph unicode="&#xe4;" horiz-adv-x="1161" d="M137 360q0 268 154.5 415t447.5 147q92 0 146.5 -8.5t150.5 -36.5l-39 -601q0 -96 90 -96q32 0 91 23l-11 -174q-92 -53 -188 -54q-184 0 -217 144q-111 -139 -293 -139q-160 0 -246 98t-86 282zM328 1159q0 59 39 100t100 41q55 0 95 -42t40 -99t-40 -97t-95 -40 q-59 0 -99 40t-40 97zM416 379q0 -150 129 -150q84 0 144.5 71t60.5 183l12 179q-27 8 -56.5 12t-50.5 4q-104 0 -171.5 -84t-67.5 -215zM776 1157q0 59 40 101t99 42q57 0 97.5 -42t40.5 -99t-40 -97t-98 -40q-57 0 -98 39t-41 96z" />
<glyph unicode="&#xe5;" horiz-adv-x="1161" d="M137 360q0 231 143.5 396.5t458.5 165.5q92 0 146.5 -8.5t150.5 -36.5l-37 -582l-2 -19q0 -96 90 -96q32 0 91 23l-11 -174q-92 -53 -188 -54q-184 0 -217 144q-111 -139 -293 -139q-160 0 -246 98t-86 282zM416 379q0 -150 129 -150q84 0 144.5 71t60.5 183l12 179 q-27 8 -56.5 12t-50.5 4q-104 0 -171.5 -84t-67.5 -215zM481 1180q0 86 59.5 145t145.5 59t146.5 -62t60.5 -148q0 -82 -61.5 -141.5t-147.5 -59.5q-84 0 -143.5 59.5t-59.5 147.5zM580 1180q0 -43 30.5 -74t73.5 -31t75 30t32 73t-31 73.5t-74 30.5q-45 0 -75.5 -28.5 t-30.5 -73.5z" />
<glyph unicode="&#xe6;" horiz-adv-x="1648" d="M135 369q0 254 157 404.5t419 150.5q63 0 124.5 -10.5t141.5 -34.5l-14 -113q76 94 140 127t183 33q141 0 230.5 -69.5t89.5 -180.5q0 -139 -143.5 -231.5t-362.5 -92.5l-56 2q0 -80 50.5 -128t130.5 -48q129 0 299 105l-2 -220q-90 -49 -163 -69.5t-165 -20.5 q-141 0 -227 49.5t-129 153.5q-129 -195 -351 -194q-164 0 -258 102t-94 285zM416 397q0 -154 125 -153q94 0 155.5 77.5t61.5 208.5l8 123q-27 6 -52.5 10.5t-45.5 4.5q-115 0 -183.5 -75t-68.5 -196zM1047 537l47 -5q117 0 185.5 33t68.5 90q0 35 -27 55.5t-68 20.5 q-76 0 -136 -56.5t-70 -137.5z" />
<glyph unicode="&#xe7;" horiz-adv-x="919" d="M133 410q0 231 129 372.5t367 141.5q88 0 149.5 -19.5t110.5 -50.5l-58 -233q-90 61 -186 61q-106 0 -166.5 -68.5t-60.5 -183.5q0 -100 55 -155.5t158 -55.5q106 0 217 68l8 -236q-57 -31 -124.5 -51t-143.5 -20l-17 -70q68 0 110 -36t42 -97q0 -180 -279 -180 q-63 0 -97 6t-93 28l25 119q72 -33 137 -33q49 0 81.5 20.5t32.5 53.5q0 23 -14 37t-37 14l-28 -4l-29 51l27 105q-315 68 -316 416z" />
<glyph unicode="&#xe8;" horiz-adv-x="1005" d="M137 385q0 231 145.5 385t366.5 154q152 0 240 -69.5t88 -190.5q0 -141 -139.5 -230.5t-362.5 -89.5l-59 2q0 -78 46 -122t128 -44q133 0 293 94l-6 -217q-82 -43 -158 -63.5t-162 -20.5q-197 0 -308.5 110t-111.5 302zM244 1288h372l140 -256h-197zM442 532l54 -4 q98 0 152 29t54 82q0 33 -22.5 53.5t-63.5 20.5q-57 0 -106 -51.5t-68 -129.5z" />
<glyph unicode="&#xe9;" horiz-adv-x="1005" d="M137 385q0 231 145.5 385t366.5 154q152 0 240 -69.5t88 -190.5q0 -141 -139.5 -230.5t-362.5 -89.5l-59 2q0 -78 46 -122t128 -44q133 0 293 94l-6 -217q-82 -43 -158 -63.5t-162 -20.5q-197 0 -308.5 110t-111.5 302zM442 532l54 -4q98 0 152 29t54 82q0 33 -22.5 53.5 t-63.5 20.5q-57 0 -106 -51.5t-68 -129.5zM532 1032l142 256h370l-315 -256h-197z" />
<glyph unicode="&#xea;" horiz-adv-x="1005" d="M137 385q0 231 145.5 385t366.5 154q152 0 240 -69.5t88 -190.5q0 -141 -139.5 -230.5t-362.5 -89.5l-59 2q0 -78 46 -122t128 -44q133 0 293 94l-6 -217q-82 -43 -158 -63.5t-162 -20.5q-197 0 -308.5 110t-111.5 302zM240 1028l239 262h320l200 -260h-231l-139 111 l-158 -113h-231zM442 532l54 -4q98 0 152 29t54 82q0 33 -22.5 53.5t-63.5 20.5q-57 0 -106 -51.5t-68 -129.5z" />
<glyph unicode="&#xeb;" horiz-adv-x="1005" d="M137 385q0 231 145.5 385t366.5 154q152 0 240 -69.5t88 -190.5q0 -141 -139.5 -230.5t-362.5 -89.5l-59 2q0 -78 46 -122t128 -44q133 0 293 94l-6 -217q-82 -43 -158 -63.5t-162 -20.5q-197 0 -308.5 110t-111.5 302zM242 1159q0 59 38.5 100t100.5 41q55 0 95 -42 t40 -99t-40 -97t-95 -40q-59 0 -99 40t-40 97zM442 532l54 -4q98 0 152 29t54 82q0 33 -22.5 53.5t-63.5 20.5q-57 0 -106 -51.5t-68 -129.5zM690 1157q0 59 40 101t99 42q57 0 97.5 -42t40.5 -99t-40 -97t-98 -40q-57 0 -98 39t-41 96z" />
<glyph unicode="&#xec;" horiz-adv-x="624" d="M51 1288h346l103 -256h-172zM160 227l41 674h274l-35 -600q0 -70 16.5 -94.5t61.5 -24.5q23 4 50.5 10.5t60.5 22.5l-13 -186q-55 -29 -97 -39t-107 -10q-131 0 -191.5 56t-60.5 191z" />
<glyph unicode="&#xed;" horiz-adv-x="624" d="M160 227l41 674h274l-35 -600q0 -70 16.5 -94.5t61.5 -24.5q23 4 50.5 10.5t60.5 22.5l-13 -186q-55 -29 -97 -39t-107 -10q-131 0 -191.5 56t-60.5 191zM213 1032l141 256h371l-315 -256h-197z" />
<glyph unicode="&#xee;" horiz-adv-x="624" d="M47 1026l203 264h272l170 -260h-196l-119 111l-135 -115h-195zM160 227l41 674h274l-35 -600q0 -70 16.5 -94.5t61.5 -24.5q23 4 50.5 10.5t60.5 22.5l-13 -186q-55 -29 -97 -39t-107 -10q-131 0 -191.5 56t-60.5 191z" />
<glyph unicode="&#xef;" horiz-adv-x="624" d="M59 1159q0 59 39 100t101 41q55 0 95 -42t40 -99q0 -55 -39 -96t-96 -41t-98.5 39t-41.5 98zM160 227l41 674h274l-35 -600q0 -70 16.5 -94.5t61.5 -24.5q23 4 50.5 10.5t60.5 22.5l-13 -186q-55 -29 -97 -39t-107 -10q-131 0 -191.5 56t-60.5 191zM432 1157q0 59 40 101 t99 42q57 0 97.5 -42t40.5 -99t-40 -97t-98 -40q-57 0 -98 39t-41 96z" />
<glyph unicode="&#xf0;" horiz-adv-x="1175" d="M135 387q0 225 128 359.5t333 134.5q66 0 113 -18.5t92 -53.5q-10 94 -34 148.5t-60 95.5l-162 -107l-25 129l84 53q-72 37 -180 50l65 206q96 0 182.5 -28.5t162.5 -75.5l178 117l26 -129l-106 -70q96 -102 143 -253t47 -329q0 -303 -129 -472t-375 -169 q-221 0 -352 109t-131 303zM430 410q0 -88 50 -136.5t136 -48.5q92 0 148.5 69t56.5 175q0 90 -49 137t-141 47t-146.5 -66.5t-54.5 -176.5z" />
<glyph unicode="&#xf1;" horiz-adv-x="1183" d="M158 0l39 659q0 162 -29 242h270q12 -31 15.5 -43t9.5 -55q129 123 282 123q121 0 193 -84t72 -228l-19 -333q0 -100 82 -101q29 0 49.5 6t67.5 31l-12 -184q-43 -29 -100.5 -43.5t-131.5 -14.5q-242 0 -241 220l20 305q0 123 -27.5 164t-83.5 41q-63 0 -102 -56.5 t-49 -144.5l-37 -504h-268zM354 1030q0 147 51.5 231.5t143.5 84.5q68 0 158 -53.5t127 -53.5q74 0 88 117h112q0 -156 -55 -238t-160 -82q-88 0 -153.5 51.5t-112.5 51.5q-84 0 -84 -109h-115z" />
<glyph unicode="&#xf2;" horiz-adv-x="1157" d="M133 426q0 238 136.5 370t369.5 132q207 0 326.5 -122t119.5 -329q0 -242 -130 -374t-375 -132q-203 0 -325 124t-122 331zM254 1288h373l139 -256h-197zM424 428q0 -96 46 -152.5t130 -56.5q90 0 145.5 67.5t55.5 184.5q0 98 -46 154.5t-130 56.5q-96 0 -148.5 -64.5 t-52.5 -189.5z" />
<glyph unicode="&#xf3;" horiz-adv-x="1157" d="M133 426q0 238 136.5 370t369.5 132q207 0 326.5 -122t119.5 -329q0 -242 -130 -374t-375 -132q-203 0 -325 124t-122 331zM424 428q0 -96 46 -152.5t130 -56.5q90 0 145.5 67.5t55.5 184.5q0 98 -46 154.5t-130 56.5q-96 0 -148.5 -64.5t-52.5 -189.5zM530 1032l142 256 h370l-315 -256h-197z" />
<glyph unicode="&#xf4;" horiz-adv-x="1157" d="M133 426q0 238 136.5 370t369.5 132q207 0 326.5 -122t119.5 -329q0 -242 -130 -374t-375 -132q-203 0 -325 124t-122 331zM262 1028l240 262h319l201 -260h-231l-140 111l-157 -113h-232zM424 428q0 -96 46 -152.5t130 -56.5q90 0 145.5 67.5t55.5 184.5q0 98 -46 154.5 t-130 56.5q-96 0 -148.5 -64.5t-52.5 -189.5z" />
<glyph unicode="&#xf5;" horiz-adv-x="1157" d="M133 426q0 238 136.5 370t369.5 132q207 0 326.5 -122t119.5 -329q0 -242 -130 -374t-375 -132q-203 0 -325 124t-122 331zM332 1030q0 162 50 239t146 77q53 0 139.5 -53.5t143.5 -53.5q74 0 88 117h115q0 -154 -56.5 -237t-160.5 -83q-51 0 -131 51.5t-136 51.5 q-84 0 -84 -109h-114zM424 428q0 -96 46 -152.5t130 -56.5q90 0 145.5 67.5t55.5 184.5q0 98 -46 154.5t-130 56.5q-96 0 -148.5 -64.5t-52.5 -189.5z" />
<glyph unicode="&#xf6;" horiz-adv-x="1157" d="M133 426q0 238 136.5 370t369.5 132q207 0 326.5 -122t119.5 -329q0 -242 -130 -374t-375 -132q-203 0 -325 124t-122 331zM301 1159q0 59 39 100t100 41q55 0 95 -42t40 -99t-39.5 -97t-95.5 -40q-59 0 -99 40t-40 97zM424 428q0 -96 46 -152.5t130 -56.5 q90 0 145.5 67.5t55.5 184.5q0 98 -46 154.5t-130 56.5q-96 0 -148.5 -64.5t-52.5 -189.5zM750 1157q0 59 39.5 101t99.5 42q57 0 97 -42t40 -99t-40 -97t-97 -40t-98 39t-41 96z" />
<glyph unicode="&#xf7;" d="M37 422v229h1016v-229h-1016zM410 877q0 61 41 104t102 43q59 0 102 -43t43 -104q0 -59 -43 -100.5t-102 -41.5q-61 0 -102 41t-41 101zM414 186q0 61 43 104.5t102 43.5t102.5 -43.5t43.5 -104.5q0 -59 -43.5 -100t-102.5 -41t-102 41t-43 100z" />
<glyph unicode="&#xf8;" horiz-adv-x="1183" d="M74 20l145 138q-66 90 -65 258q0 233 132 371.5t355 138.5q166 0 297 -92l135 124l90 -86l-139 -131q68 -113 68 -247q0 -240 -131.5 -381.5t-356.5 -141.5q-190 0 -297 97l-141 -131zM420 451q0 -35 2 -47.5t12 -43.5l316 293q-31 29 -53.5 37t-78.5 8q-96 0 -147 -63.5 t-51 -183.5zM492 244q31 -27 58.5 -37t72.5 -10q94 0 149 65t55 180q0 39 -5 59.5t-11 41.5z" />
<glyph unicode="&#xf9;" horiz-adv-x="1175" d="M180 270q12 125 21.5 238t9.5 201q0 96 -12 192h260q4 -27 6 -67.5t2 -79.5q0 -106 -10.5 -207t-20.5 -205q0 -137 121 -137q86 0 139.5 55t53.5 193l30 448h252l-39 -604q0 -70 21.5 -95.5t70.5 -25.5q20 0 39 6t70 31l-12 -184q-47 -27 -87 -37t-91 -10 q-166 0 -207 118q-76 -68 -146.5 -95.5t-154.5 -27.5q-152 0 -234 76t-82 217zM274 1288h373l139 -256h-196z" />
<glyph unicode="&#xfa;" horiz-adv-x="1175" d="M180 270q12 125 21.5 238t9.5 201q0 96 -12 192h260q4 -27 6 -67.5t2 -79.5q0 -106 -10.5 -207t-20.5 -205q0 -137 121 -137q86 0 139.5 55t53.5 193l30 448h252l-39 -604q0 -70 21.5 -95.5t70.5 -25.5q20 0 39 6t70 31l-12 -184q-47 -27 -87 -37t-91 -10 q-166 0 -207 118q-76 -68 -146.5 -95.5t-154.5 -27.5q-152 0 -234 76t-82 217zM526 1032l142 256h370l-315 -256h-197z" />
<glyph unicode="&#xfb;" horiz-adv-x="1175" d="M180 270q12 125 21.5 238t9.5 201q0 96 -12 192h260q4 -27 6 -67.5t2 -79.5q0 -106 -10.5 -207t-20.5 -205q0 -137 121 -137q86 0 139.5 55t53.5 193l30 448h252l-39 -604q0 -70 21.5 -95.5t70.5 -25.5q20 0 39 6t70 31l-12 -184q-47 -27 -87 -37t-91 -10 q-166 0 -207 118q-76 -68 -146.5 -95.5t-154.5 -27.5q-152 0 -234 76t-82 217zM258 1028l240 262h319l201 -260h-232l-139 111l-158 -113h-231z" />
<glyph unicode="&#xfc;" horiz-adv-x="1175" d="M180 270q12 125 21.5 238t9.5 201q0 96 -12 192h260q4 -27 6 -67.5t2 -79.5q0 -106 -10.5 -207t-20.5 -205q0 -137 121 -137q86 0 139.5 55t53.5 193l30 448h252l-39 -604q0 -70 21.5 -95.5t70.5 -25.5q20 0 39 6t70 31l-12 -184q-47 -27 -87 -37t-91 -10 q-166 0 -207 118q-76 -68 -146.5 -95.5t-154.5 -27.5q-152 0 -234 76t-82 217zM272 1159q0 59 39 100t101 41q55 0 95 -42t40 -99t-40 -97t-95 -40q-59 0 -99.5 40t-40.5 97zM721 1157q0 59 40 101t99 42q57 0 97 -42t40 -99t-39.5 -97t-97.5 -40q-57 0 -98 39t-41 96z" />
<glyph unicode="&#xfd;" horiz-adv-x="1144" d="M184 283q0 78 8.5 299t8.5 319h250q0 -109 -3.5 -251t-5.5 -300q0 -129 105 -129q80 0 129 45t61 150l31 485h264l-53 -895q0 -270 -122 -370.5t-398 -100.5q-72 0 -110 4t-116 23l11 200q57 -16 103 -22t97 -6q145 0 205 59.5t60 212.5l4 82q-43 -53 -114 -80.5 t-146 -27.5q-125 0 -197 69.5t-72 233.5zM506 1032l141 256h371l-316 -256h-196z" />
<glyph unicode="&#xfe;" horiz-adv-x="1173" d="M137 -465l113 1872h262l-45 -602q68 66 132.5 94.5t145.5 28.5q156 0 251.5 -103.5t95.5 -271.5q0 -246 -123 -404.5t-314 -158.5q-72 0 -114.5 14t-94.5 55l-32 -524h-277zM446 291q57 -57 144 -58q94 0 153.5 72t59.5 187q0 172 -144 172q-88 0 -146 -67t-58 -175z" />
<glyph unicode="&#xff;" horiz-adv-x="1144" d="M184 283q10 109 19.5 221t9.5 196q0 98 -12 201h264q6 -53 6 -123q0 -90 -9 -202.5t-20 -225.5q0 -74 26 -101.5t85 -27.5q82 0 135 53.5t53 169.5l27 457h264l-53 -895q0 -270 -122 -370.5t-398 -100.5q-72 0 -110 4t-116 23l11 200q55 -16 112.5 -22t112.5 -6 q98 0 161.5 45t76.5 190l10 119q-37 -41 -111 -74.5t-149 -33.5q-127 0 -200 69.5t-73 233.5zM276 1159q0 59 39 100t101 41q55 0 95 -42t40 -99t-40 -97t-95 -40q-59 0 -99.5 40t-40.5 97zM725 1157q0 59 40 101t99 42q57 0 97 -42t40 -99t-39.5 -97t-97.5 -40 q-57 0 -98 39t-41 96z" />
<glyph unicode="&#x152;" horiz-adv-x="1998" d="M119 590q0 696 690 696q98 0 196.5 -42t122.5 -81l9 107h864l-12 -228h-537l-27 -313h471l-10 -223h-477l-20 -283h538l-4 -223h-870l10 106q-59 -66 -140 -95t-202 -29q-291 0 -446.5 157.5t-155.5 450.5zM451 594q0 -158 79.5 -244t227.5 -86q166 0 254 104.5t88 301.5 q0 322 -305 321q-344 0 -344 -397z" />
<glyph unicode="&#x153;" horiz-adv-x="1679" d="M137 399q0 250 134.5 388.5t375.5 138.5q104 0 193.5 -45t126.5 -115q139 164 346 164q152 0 238.5 -70.5t86.5 -191.5q0 -145 -121.5 -235.5t-342.5 -90.5l-84 2q16 -162 176 -162q139 0 301 103v-215q-63 -45 -153.5 -70t-196.5 -25q-100 0 -173 31t-131 100 q-68 -80 -142.5 -109.5t-195.5 -29.5q-205 0 -321.5 115t-116.5 317zM422 422q0 -197 176 -197q94 0 149.5 65.5t55.5 176.5q0 94 -45 147.5t-131 53.5q-94 0 -149.5 -65.5t-55.5 -180.5zM1092 518q301 0 301 127q0 33 -26 54.5t-67 21.5q-49 0 -96 -28.5t-66.5 -61.5 t-27.5 -54.5t-18 -58.5z" />
<glyph unicode="&#x178;" horiz-adv-x="1185" d="M88 1272h326l229 -471l295 471h338l-485 -680l-43 -592h-312l41 584zM287 1538q0 66 44 110t107 44q61 0 104.5 -45.5t43.5 -108.5q0 -59 -43 -104t-103 -45q-63 0 -108 43t-45 106zM823 1536q0 66 45 111t109 45q61 0 104 -45.5t43 -108.5q0 -61 -43 -104t-104 -43 q-63 0 -108.5 41t-45.5 104z" />
<glyph unicode="&#x2c6;" horiz-adv-x="624" d="M-76 1038l240 262h319l201 -260h-231l-140 111l-157 -113h-232z" />
<glyph unicode="&#x2dc;" horiz-adv-x="624" d="M-39 1044q0 160 53.5 251t159.5 91q78 0 174 -57t133 -57q80 0 94 127h125q0 -170 -61 -259t-174 -89q-55 0 -141 55t-148 55q-92 0 -92 -117h-123z" />
<glyph unicode="&#x2000;" horiz-adv-x="882" />
<glyph unicode="&#x2001;" horiz-adv-x="1765" />
<glyph unicode="&#x2002;" horiz-adv-x="882" />
<glyph unicode="&#x2003;" horiz-adv-x="1765" />
<glyph unicode="&#x2004;" horiz-adv-x="588" />
<glyph unicode="&#x2005;" horiz-adv-x="441" />
<glyph unicode="&#x2006;" horiz-adv-x="294" />
<glyph unicode="&#x2007;" horiz-adv-x="294" />
<glyph unicode="&#x2008;" horiz-adv-x="220" />
<glyph unicode="&#x2009;" horiz-adv-x="353" />
<glyph unicode="&#x200a;" horiz-adv-x="98" />
<glyph unicode="&#x2010;" horiz-adv-x="534" d="M61 362l9 205h465l-11 -205h-463z" />
<glyph unicode="&#x2011;" horiz-adv-x="534" d="M61 362l9 205h465l-11 -205h-463z" />
<glyph unicode="&#x2012;" horiz-adv-x="534" d="M61 362l9 205h465l-11 -205h-463z" />
<glyph unicode="&#x2013;" horiz-adv-x="1024" d="M20 365v204h1031v-204h-1031z" />
<glyph unicode="&#x2014;" horiz-adv-x="2048" d="M29 365v204h2048v-204h-2048z" />
<glyph unicode="&#x2018;" horiz-adv-x="630" d="M203 915q0 100 59.5 203t157.5 172l153 -65q-139 -133 -139 -232q0 -53 38 -97t38 -81q0 -45 -35 -71.5t-94 -26.5q-82 0 -130 54t-48 144z" />
<glyph unicode="&#x2019;" horiz-adv-x="630" d="M170 788q70 74 98.5 128.5t28.5 111.5q0 47 -37 102.5t-37 81.5q0 39 35 63.5t90 24.5q82 0 133 -53t51 -141q0 -109 -43 -192t-161 -187z" />
<glyph unicode="&#x201a;" horiz-adv-x="630" d="M106 -195q70 74 98.5 128.5t28.5 111.5q0 39 -36.5 96.5t-36.5 87.5q0 39 34.5 63.5t90.5 24.5q82 0 133 -53t51 -141q0 -109 -43 -192t-162 -187z" />
<glyph unicode="&#x201c;" horiz-adv-x="899" d="M158 915q0 100 59 205t156 170l153 -65q-76 -74 -104.5 -124t-28.5 -112q0 -41 34 -99.5t34 -82.5q0 -88 -131 -88q-78 0 -125 53t-47 143zM569 918q0 215 209 374l156 -65q-129 -129 -129 -238q0 -35 39 -100.5t39 -83.5q0 -37 -38 -60.5t-95 -23.5q-180 0 -181 197z " />
<glyph unicode="&#x201d;" horiz-adv-x="999" d="M145 788q131 141 131 240q0 33 -38.5 91.5t-38.5 88.5q0 41 33.5 66.5t91.5 25.5q82 0 133 -53t51 -141q0 -111 -41 -190.5t-166 -188.5zM549 795q63 49 99 112.5t36 124.5q0 39 -37 90.5t-37 96.5q0 39 33 61.5t88 22.5q88 0 138.5 -52.5t50.5 -140.5q0 -113 -43 -196 t-172 -183z" />
<glyph unicode="&#x201e;" horiz-adv-x="999" d="M111 -215q129 139 129 240q0 33 -38 91t-38 87q0 43 33.5 68.5t91.5 25.5q84 0 133 -53.5t49 -143.5q0 -111 -42 -192.5t-163 -183.5zM512 -209q135 98 135 238q0 33 -37 96t-37 88q0 86 123 86q86 0 137.5 -53.5t51.5 -141.5q0 -111 -41 -192.5t-174 -183.5z" />
<glyph unicode="&#x2022;" horiz-adv-x="557" d="M109 682q0 92 62 156.5t151 64.5q92 0 155.5 -63.5t63.5 -157.5q0 -90 -63.5 -153.5t-155.5 -63.5q-86 0 -149.5 63.5t-63.5 153.5z" />
<glyph unicode="&#x2026;" horiz-adv-x="1142" d="M41 119q0 59 40 101t99 42q57 0 97 -42t40 -101q0 -55 -39.5 -95t-97.5 -40q-57 0 -98 38.5t-41 96.5zM430 121q0 59 41 100t100 41q57 0 97.5 -42t40.5 -101q0 -57 -39 -96t-99 -39q-59 0 -100 38.5t-41 98.5zM823 119q0 59 39 100t101 41q57 0 97 -40t40 -99 q0 -57 -41 -98t-98 -41t-97.5 39.5t-40.5 97.5z" />
<glyph unicode="&#x202f;" horiz-adv-x="353" />
<glyph unicode="&#x2039;" horiz-adv-x="628" d="M113 463l221 344h252l-211 -348l174 -350h-246z" />
<glyph unicode="&#x203a;" horiz-adv-x="628" d="M113 807l252 -2l217 -342l-187 -357h-243l172 355z" />
<glyph unicode="&#x205f;" horiz-adv-x="441" />
<glyph unicode="&#x2122;" horiz-adv-x="862" d="M94 1190v49h314v-49h-123v-363h-66v363h-125zM436 827v412h113l92 -293l100 293h109v-412h-59v373l-136 -373l-37 2l-122 375v-375z" />
<glyph unicode="&#x25fc;" horiz-adv-x="901" d="M0 0v901h901v-901h-901z" />
</font>
</defs>
</svg>
