<?xml version="1.0" standalone="no"?>
<!DOCTYPE svg PUBLIC "-//W3C//DTD SVG 1.1//EN" "http://www.w3.org/Graphics/SVG/1.1/DTD/svg11.dtd" >
<svg xmlns="http://www.w3.org/2000/svg">
<metadata></metadata>
<defs>
<font id="sassoonprimarytyperegular" horiz-adv-x="1021" >
<font-face units-per-em="2048" ascent="1638" descent="-410" />
<missing-glyph horiz-adv-x="657" />
<glyph horiz-adv-x="0" />
<glyph unicode="&#xd;" horiz-adv-x="657" />
<glyph unicode=" "  horiz-adv-x="657" />
<glyph unicode="&#x09;" horiz-adv-x="657" />
<glyph unicode="&#xa0;" horiz-adv-x="657" />
<glyph unicode="!" horiz-adv-x="528" d="M168 76q0 41 28.5 67.5t73.5 26.5q43 0 72 -28.5t29 -71.5q0 -41 -29 -70t-72 -29t-72.5 30t-29.5 75zM225 324l27 946h164l-66 -948z" />
<glyph unicode="&#x22;" horiz-adv-x="729" d="M74 709l112 503q20 88 99 88q37 0 62.5 -27.5t25.5 -68.5q0 -16 -8 -41l-218 -454h-73zM395 709l127 512q20 78 92 77q39 0 66 -28.5t27 -71.5q0 -23 -11 -43l-229 -446h-72z" />
<glyph unicode="#" horiz-adv-x="1153" d="M106 344q0 139 76 229.5t217 116.5q-86 41 -134 114t-48 159q0 137 124 233t335 96q139 0 262 -43l-29 -131q-119 37 -233 37q-152 0 -230.5 -52t-78.5 -147q0 -121 91 -181t339 -60h227l-43 -850h-133l16 293q-82 -94 -170 -137.5t-200 -43.5q-172 0 -280 101.5 t-108 265.5zM262 348q0 -102 65.5 -167.5t172.5 -65.5q178 0 287.5 132t109.5 355q-395 0 -515 -63.5t-120 -190.5z" />
<glyph unicode="$" d="M109 100l6 154q106 -61 190 -87t164 -26l25 441q-166 96 -239 182t-73 199q0 133 102.5 219t250.5 86l10 139h94l-8 -139q141 0 307 -76l-10 -148q-84 43 -169 60.5t-136 23.5l-23 -403q160 -96 236.5 -176t76.5 -201q0 -141 -94 -241.5t-260 -100.5l-6 -162l-100 2 l10 156q-205 18 -354 98zM340 971q0 -119 166 -213l18 366q-80 0 -132 -42t-52 -111zM569 141q185 33 185 193q0 121 -162 211z" />
<glyph unicode="%" horiz-adv-x="1648" d="M270 924q0 166 82 266t221 100q133 0 207 -81.5t74 -233.5q0 -164 -85 -265.5t-220 -101.5q-127 0 -203 86t-76 230zM406 913q0 -180 143 -180q80 0 127 69.5t47 188.5q0 86 -39 131t-113 45q-76 0 -120.5 -68.5t-44.5 -185.5zM487 0l840 1266h141l-841 -1266h-140z M1094 299q0 158 89 257t226 99q123 0 194.5 -86t71.5 -233q0 -162 -82 -260.5t-221 -98.5q-131 0 -204.5 84t-73.5 238zM1225 287q0 -188 147 -189q76 0 123 68.5t47 181.5q0 92 -36 140.5t-111 48.5q-78 0 -124 -67t-46 -183z" />
<glyph unicode="&#x26;" horiz-adv-x="1286" d="M104 297q0 133 87.5 231.5t273.5 178.5q-137 186 -137 317q0 125 90 198.5t241 73.5q139 0 225.5 -69.5t86.5 -184.5q0 -102 -70 -193t-225 -173q123 -166 244 -314q76 78 119.5 133.5t88.5 129.5l109 -90q-98 -152 -229 -279q49 -66 114.5 -139.5t108.5 -114.5h-197 l-135 152q-102 -84 -216 -131.5t-218 -47.5q-162 0 -261.5 89.5t-99.5 232.5zM260 303q0 -82 62.5 -136t156.5 -54q164 0 332 147q-133 166 -168 210t-98 132q-160 -68 -222.5 -136.5t-62.5 -162.5zM485 1022q0 -45 28 -100.5t87 -141.5q215 113 215 250q0 63 -45 100 t-125 37q-74 0 -117 -38.5t-43 -106.5z" />
<glyph unicode="'" horiz-adv-x="391" d="M74 709l112 505q8 37 37 61.5t64 24.5q37 0 61.5 -26.5t24.5 -69.5q0 -20 -11 -45l-215 -450h-73z" />
<glyph unicode="(" horiz-adv-x="727" d="M264 518q0 393 109.5 626.5t392.5 264.5l-6 -135q-164 -39 -255 -206t-91 -589q0 -213 65.5 -349t206.5 -159l-6 -131q-416 51 -416 678z" />
<glyph unicode=")" horiz-adv-x="727" d="M25 -160l8 135q178 29 260 233t82 542q0 233 -64.5 370t-208.5 158l7 129q233 -27 324 -182.5t91 -505.5q0 -397 -135 -638t-364 -241z" />
<glyph unicode="*" horiz-adv-x="794" d="M123 819l147 78q35 18 57.5 26.5t59.5 12.5q-39 12 -62.5 21.5t-50.5 27.5l-139 88l60 86l137 -80q43 -27 86 -82q-4 35 -6 71t-4 50l8 152h106l-6 -152q0 -41 -3 -59.5t-17 -63.5q31 29 43 38t45 28l159 82l48 -94l-158 -84q-14 -8 -42 -17.5t-67 -17.5 q49 -12 57.5 -15.5t51.5 -29.5l139 -86l-61 -90l-138 86q-20 8 -44.5 28.5t-47.5 53.5q8 -29 10.5 -62t4.5 -63l-11 -156l-106 2l8 160q0 27 5 53.5t20 65.5q-29 -31 -45.5 -44.5t-51.5 -31.5l-145 -76z" />
<glyph unicode="+" d="M25 430v158h407v420h156v-422h411v-156h-413v-450h-156v450h-405z" />
<glyph unicode="," horiz-adv-x="528" d="M96 -307q74 63 103.5 113.5t29.5 113.5q0 33 -36.5 100.5t-36.5 81.5q0 33 24.5 57.5t61.5 24.5q51 0 92 -55t41 -127q0 -106 -48 -195.5t-169 -185.5z" />
<glyph unicode="-" horiz-adv-x="528" d="M57 401v127h465v-127h-465z" />
<glyph unicode="." horiz-adv-x="528" d="M168 72q0 43 28.5 71.5t71.5 28.5q41 0 71 -29.5t30 -72.5t-30 -71t-73 -28q-41 0 -69.5 29t-28.5 72z" />
<glyph unicode="/" horiz-adv-x="659" d="M92 -158l402 1563h133l-400 -1563h-135z" />
<glyph unicode="0" d="M102 561q0 358 120 545.5t351 187.5q418 0 418 -575q0 -336 -127 -540t-362 -204q-203 0 -301.5 143.5t-98.5 442.5zM260 545q0 -442 248 -443q147 0 235 167t88 448q0 449 -256 448q-152 0 -233.5 -160.5t-81.5 -459.5z" />
<glyph unicode="1" d="M336 1042q78 45 162 107.5t137 122.5h119l-78 -1272h-144l66 1079q-49 -43 -98 -80.5t-92 -64.5z" />
<glyph unicode="2" d="M102 0l4 119q223 193 361.5 322.5t235 261t96.5 237.5q0 100 -60.5 162.5t-156.5 62.5q-199 0 -295 -241l-131 47q113 322 436 321q166 0 266 -94t100 -254q0 -125 -87 -263t-221 -267t-320 -279h581l-6 -135h-803z" />
<glyph unicode="3" d="M74 186l106 97q139 -172 324 -172q115 0 182.5 65.5t67.5 175.5q0 125 -75 186.5t-255 61.5l-109 -2l7 131l114 -2q160 0 245 58.5t85 187.5q0 82 -56.5 130t-150.5 48q-86 0 -151.5 -30.5t-145.5 -110.5l-88 106q68 80 176.5 127t227.5 47q158 0 252 -84t94 -223 q0 -236 -250 -317q242 -55 241 -312q0 -172 -113.5 -275.5t-305.5 -103.5q-268 0 -422 211z" />
<glyph unicode="4" d="M104 313l9 133l520 826h168l-525 -821h414l25 481h141l-22 -481h147l-8 -138h-146l-18 -313h-143l16 313h-578z" />
<glyph unicode="5" d="M78 152l90 100q78 -74 150.5 -106.5t156.5 -32.5q127 0 206 85t79 222q0 109 -62.5 173t-167.5 64q-70 0 -109.5 -16t-96.5 -68l-123 50l47 647h667l-12 -140h-526l-33 -380q66 35 103.5 45t105.5 10q166 0 266.5 -102.5t100.5 -272.5q0 -205 -123 -332t-326 -127 q-119 0 -222.5 47.5t-170.5 133.5z" />
<glyph unicode="6" d="M127 414q0 209 136 445.5t327 412.5h180q-127 -119 -229.5 -251t-188.5 -298q72 45 123 61.5t125 16.5q160 0 251 -99.5t91 -273.5q0 -203 -113.5 -327t-300.5 -124q-184 0 -292.5 117t-108.5 320zM281 403q0 -137 67.5 -217t183.5 -80q115 0 187 84.5t72 221.5 q0 123 -55.5 188.5t-157.5 65.5q-150 0 -273 -113q-25 -78 -24 -150z" />
<glyph unicode="7" d="M207 1130l8 140h760l-6 -117l-580 -1151h-158l570 1128h-594z" />
<glyph unicode="8" d="M100 311q0 133 62.5 206t238.5 145q-119 55 -173 129.5t-54 187.5q0 152 105.5 235.5t298.5 83.5q174 0 274 -77.5t100 -214.5q0 -106 -64.5 -187.5t-201.5 -148.5q150 -72 211 -147.5t61 -192.5q0 -160 -120.5 -258.5t-319.5 -98.5q-188 0 -303 92.5t-115 245.5z M254 319q0 -98 71.5 -155.5t196.5 -57.5q123 0 199 60t76 160q0 86 -55.5 141t-219.5 127q-141 -55 -204.5 -120.5t-63.5 -154.5zM330 977q0 -143 221 -246q244 113 244 273q0 80 -61.5 127t-166.5 47q-104 0 -170.5 -56.5t-66.5 -144.5z" />
<glyph unicode="9" d="M139 852q0 197 119 317.5t309 120.5q182 0 282.5 -102.5t100.5 -284.5q0 -168 -94 -406.5t-262 -496.5h-168q94 147 193.5 336.5t111.5 232.5q-39 -41 -103.5 -67.5t-142.5 -26.5q-158 0 -252 102.5t-94 274.5zM295 852q0 -113 58.5 -175.5t164.5 -62.5q121 0 200 85.5 t79 218.5q0 109 -61.5 172t-170.5 63q-127 0 -198.5 -80t-71.5 -221z" />
<glyph unicode=":" horiz-adv-x="528" d="M168 72q0 43 28.5 71.5t71.5 28.5q41 0 71 -29.5t30 -72.5t-30 -71t-73 -28q-41 0 -69.5 29t-28.5 72zM199 598q0 43 28.5 71.5t73.5 28.5q41 0 69.5 -28.5t28.5 -73.5q0 -43 -28.5 -71.5t-73.5 -28.5q-43 0 -70.5 29.5t-27.5 72.5z" />
<glyph unicode=";" horiz-adv-x="528" d="M96 -307q74 63 103.5 113.5t29.5 113.5q0 31 -36.5 92.5t-36.5 89.5q0 33 24.5 57.5t61.5 24.5q51 0 92 -55t41 -127q0 -147 -65.5 -226t-83 -96.5t-68.5 -58.5zM197 602q0 43 28.5 71.5t71.5 28.5q41 0 71.5 -30.5t30.5 -71.5q0 -43 -29.5 -72.5t-72.5 -29.5 q-41 0 -70.5 29.5t-29.5 74.5z" />
<glyph unicode="&#x3c;" horiz-adv-x="1024" d="M139 352q0 240 139.5 407t385.5 167q86 0 125.5 -6.5t132.5 -34.5l-64 -1168l152 148l86 -86l-273 -266l-114 24l32 584q-129 -141 -288 -141q-145 0 -229.5 99t-84.5 273zM289 348q0 -231 186 -231q127 0 207 101t80 286l16 272q-29 8 -59.5 12.5t-56.5 4.5 q-164 0 -268.5 -129t-104.5 -316z" />
<glyph unicode="=" d="M25 276v152h974v-152h-974zM25 590v147h972v-147h-972z" />
<glyph unicode="&#x3e;" horiz-adv-x="1218" d="M121 586q0 324 160.5 517t433.5 193q270 0 397 -204l-108 -84q-104 158 -291 157q-197 0 -313.5 -161.5t-116.5 -438.5q0 -455 346 -454q141 0 219 74.5t78 242.5l-4 90h-166l8 133h455l-9 -129h-135l2 -76q0 -227 -117.5 -349t-336.5 -122q-244 0 -373 156t-129 455z " />
<glyph unicode="?" horiz-adv-x="759" d="M143 1227q129 68 258 67q160 0 253.5 -91t93.5 -249q0 -156 -87.5 -254t-242.5 -120l-15 -242h-139l19 377l43 -2q121 0 193.5 64.5t72.5 172.5q0 96 -55.5 151.5t-151.5 55.5q-53 0 -97 -14.5t-130 -57.5zM219 78q0 43 30 72.5t70 29.5q41 0 72 -30.5t31 -73.5 q0 -41 -28.5 -70t-71.5 -29t-73 30t-30 71z" />
<glyph unicode="@" horiz-adv-x="1521" d="M82 641q0 293 207 495.5t510 202.5q291 0 479 -184t188 -467q0 -180 -93 -298t-238 -118q-178 0 -222 150q-78 -133 -235 -133q-98 0 -161.5 69.5t-63.5 180.5q0 186 112.5 324t265.5 138q41 0 67 -8t69 -35l4 43h131l-74 -522q0 -53 34 -86t89 -33q96 0 156.5 91.5 t60.5 236.5q0 236 -162 393.5t-401 157.5q-246 0 -418 -170t-172 -418q0 -250 176 -426t428 -176q117 0 186.5 20.5t188.5 92.5l39 -68q-115 -88 -197 -114.5t-239 -26.5q-301 0 -508 198.5t-207 489.5zM596 561q0 -72 35 -117t90 -45q74 0 128 68t71 176l32 234 q-35 25 -56.5 33t-55.5 8q-98 0 -171 -105.5t-73 -251.5z" />
<glyph unicode="A" horiz-adv-x="1224" d="M39 -2l573 1274h152l422 -1274h-156l-141 424h-500l-188 -424h-162zM444 553h402l-172 526z" />
<glyph unicode="B" horiz-adv-x="1126" d="M172 12l70 1256q86 0 152.5 3t154.5 7q223 0 328.5 -72.5t105.5 -226.5q0 -104 -54.5 -184t-166.5 -123q141 -23 214 -106t73 -206q0 -178 -140.5 -275t-398.5 -97q-63 0 -138 5t-175 17zM328 131q68 -12 188 -12q170 0 268.5 60t98.5 179q0 117 -80 175.5t-266 58.5 h-183zM362 723h111q186 0 267 54t81 181q0 109 -72.5 149t-203.5 40l-158 -4z" />
<glyph unicode="C" horiz-adv-x="1155" d="M158 578q0 330 151.5 523t417.5 193h2q277 0 410 -243l-125 -74q-106 178 -297 178q-180 0 -289 -155.5t-109 -417.5q0 -219 88.5 -342t243.5 -123q96 0 180 43t164 137l92 -100q-178 -223 -442 -224q-223 0 -355 156t-132 449z" />
<glyph unicode="D" horiz-adv-x="1255" d="M172 10l68 1254l301 6q248 0 436 -133t188 -465q0 -330 -184 -506t-477 -176q-90 0 -181.5 5t-150.5 15zM324 131l180 -6q227 0 365.5 148.5t138.5 390.5t-121 356.5t-342 114.5l-166 -5z" />
<glyph unicode="E" horiz-adv-x="960" d="M172 -2l70 1272h686l-8 -142h-535l-23 -413h488l-10 -137h-484l-24 -445h536l-6 -135h-690z" />
<glyph unicode="F" horiz-adv-x="956" d="M168 0l68 1270h684l-7 -140h-534l-21 -407h480l-4 -143h-486l-31 -580h-149z" />
<glyph unicode="G" horiz-adv-x="1218" d="M121 582q0 326 161.5 520t436.5 194h3q268 0 392 -202l-110 -86q-108 157 -291 157h-2q-199 0 -313.5 -159.5t-114.5 -438.5q0 -217 86 -335.5t245 -118.5q154 0 244 91t90 283l2 45h-231l6 130h377l-45 -814h-142q0 117 4.5 166t18.5 121q-152 -160 -348 -160 q-219 0 -344 161t-125 446z" />
<glyph unicode="H" horiz-adv-x="1253" d="M164 0l74 1272h151l-35 -557h623l33 557h149l-72 -1272h-151l33 575h-623l-31 -575h-151z" />
<glyph unicode="I" horiz-adv-x="495" d="M170 0l72 1272h149l-67 -1272h-154z" />
<glyph unicode="J" horiz-adv-x="825" d="M47 291l4 74h142l-3 -37q0 -225 164 -226q88 0 130 62.5t42 208.5l49 897h150l-47 -914q0 -188 -85 -285.5t-241 -97.5q-147 0 -226 83t-79 235z" />
<glyph unicode="K" horiz-adv-x="1056" d="M168 0l70 1272h149l-33 -555l527 553h192l-586 -604l580 -666h-201l-520 590l-33 -590h-145z" />
<glyph unicode="L" horiz-adv-x="956" d="M166 0l70 1272h151l-61 -1135h540l-8 -137h-692z" />
<glyph unicode="M" horiz-adv-x="1454" d="M168 2l68 1268h161l353 -565l450 567l156 -2l-72 -1270l-147 2l57 1034l-393 -504h-127l-307 517l-54 -1047h-145z" />
<glyph unicode="N" horiz-adv-x="1286" d="M168 0l65 1272h158l510 -869q27 -47 59.5 -110.5t36.5 -73.5q0 45 2 125t2 129l39 799h150l-70 -1272h-157l-512 868q-16 27 -49 97.5t-44 91.5l-4 -279l-39 -778h-147z" />
<glyph unicode="O" horiz-adv-x="1318" d="M164 573q0 338 149.5 528.5t411.5 190.5q238 0 368 -160.5t130 -453.5q0 -326 -149.5 -514.5t-409.5 -188.5q-238 0 -369 156t-131 442zM324 565q0 -456 342 -456h2q184 0 290.5 149.5t106.5 415.5q0 233 -88 356t-260 123q-188 0 -290.5 -153.5t-102.5 -434.5z" />
<glyph unicode="P" horiz-adv-x="1054" d="M168 2l68 1266q68 0 125 2t106 4q266 0 397 -83t131 -267q0 -170 -127 -260.5t-372 -90.5l-148 5l-31 -576h-149zM354 717q39 -4 72 -6t76 -2q329 0 329 211q0 111 -82.5 165t-265.5 54l-104 -4z" />
<glyph unicode="Q" horiz-adv-x="1318" d="M164 573q0 338 147.5 527.5t411.5 189.5q238 0 368 -158.5t130 -449.5q0 -397 -228 -598l140 -174l-109 -88l-152 192q-72 -25 -112.5 -32t-102.5 -7q-231 0 -362 158t-131 440zM322 565q0 -219 90 -335.5t258 -116.5q37 0 61.5 5t48.5 11l-98 125l109 86l114 -139 q160 160 160 479q0 227 -90 349t-260 122q-188 0 -290.5 -151.5t-102.5 -434.5z" />
<glyph unicode="R" horiz-adv-x="1056" d="M168 2l70 1262q39 0 105.5 4t82.5 4q309 0 441 -81t132 -265q0 -156 -111.5 -251t-293.5 -95h-49l475 -580h-191l-479 594l-31 -592h-151zM356 711q29 -4 71 -6.5t69 -2.5q178 0 259 56.5t81 167.5q0 104 -77 154t-270 50l-108 -4z" />
<glyph unicode="S" horiz-adv-x="956" d="M86 78l16 158q123 -66 198 -90.5t159 -24.5q102 0 167.5 55t65.5 141q0 76 -44 126.5t-196.5 149.5t-219 182t-66.5 200q0 147 100.5 231t274.5 84q188 0 348 -78l-17 -153q-174 90 -325 90q-102 0 -158.5 -44t-56.5 -122q0 -70 39 -115t188 -145q162 -98 229.5 -179 t67.5 -214q0 -154 -106.5 -252t-278.5 -98q-193 0 -385 98z" />
<glyph unicode="T" horiz-adv-x="989" d="M117 1133l8 137h879l-9 -140h-360l-64 -1130h-151l61 1133h-364z" />
<glyph unicode="U" horiz-adv-x="1253" d="M197 569l39 701h147l-37 -701q0 -236 59.5 -349.5t206.5 -113.5q182 0 269.5 115t87.5 363l35 686h153l-41 -697q0 -313 -129 -456.5t-391 -143.5q-399 0 -399 596z" />
<glyph unicode="V" horiz-adv-x="1155" d="M152 1270h155l303 -1010l441 1012h157l-559 -1274h-112z" />
<glyph unicode="W" horiz-adv-x="1716" d="M121 1272h158l180 -848q6 -29 16 -74t14 -71q10 41 24.5 86t29.5 88l319 819h133l197 -819q20 -80 45 -207l68 209l276 817h160l-449 -1278h-139l-211 852l-35 174q-10 -43 -27.5 -94.5t-27.5 -79.5l-324 -854h-122z" />
<glyph unicode="X" horiz-adv-x="1085" d="M29 0l465 645l-367 627h174l289 -504l352 504h182l-452 -629l385 -643h-183l-299 518l-362 -518h-184z" />
<glyph unicode="Y" horiz-adv-x="1024" d="M104 1272h160l289 -547l342 547h168l-442 -680l-35 -592h-148l33 584z" />
<glyph unicode="Z" horiz-adv-x="960" d="M37 0l6 115l737 1020h-655l8 135h848l-8 -123l-725 -1012h678l-11 -135h-878z" />
<glyph unicode="[" horiz-adv-x="729" d="M289 -158l88 1565h395l-6 -111h-252l-78 -1337h254l-6 -117h-395z" />
<glyph unicode="\" horiz-adv-x="659" d="M92 1405l131 4l404 -1567h-135z" />
<glyph unicode="]" horiz-adv-x="727" d="M23 -156l6 111h256l73 1341l-249 2l6 111h391l-88 -1565h-395z" />
<glyph unicode="^" d="M104 483l400 787l67 -2l408 -781h-125l-317 629l-316 -633h-117z" />
<glyph unicode="_" horiz-adv-x="1024" d="M0 -147h1024v-125h-1024v125z" />
<glyph unicode="`" horiz-adv-x="460" d="M-80 1667h238l176 -258h-121z" />
<glyph unicode="a" horiz-adv-x="1028" d="M141 358q0 258 135.5 411t374.5 153q78 0 124 -8.5t130 -36.5l-39 -676q0 -96 76 -97q27 0 78 29l-6 -106q-29 -20 -58.5 -32.5t-66.5 -12.5q-66 0 -115 43t-49 118q-115 -168 -281 -168q-139 0 -221 98.5t-82 284.5zM291 348q0 -229 172 -229q113 0 195.5 110.5 t82.5 272.5l17 262q-63 22 -120 22h-5q-158 0 -250 -116.5t-92 -321.5z" />
<glyph unicode="b" horiz-adv-x="1024" d="M154 63l73 1348h140l-39 -637q59 78 130.5 115t164.5 37q147 0 231 -98.5t84 -272.5q0 -260 -126 -419t-331 -159q-82 0 -168 23t-159 63zM299 147q43 -29 76 -39t84 -10q150 0 237.5 119t87.5 324q0 243 -184 243h-2q-78 0 -146.5 -52t-98 -134t-42 -163t-12.5 -288z " />
<glyph unicode="c" horiz-adv-x="825" d="M141 389q0 231 125 384t342 153q68 0 106.5 -7t106.5 -36l-18 -140q-70 27 -107 35t-94 8q-135 0 -221 -112.5t-86 -288.5q0 -131 59.5 -205t167.5 -74q111 0 258 89l-10 -148q-119 -72 -256 -72q-180 0 -276.5 106.5t-96.5 307.5z" />
<glyph unicode="d" horiz-adv-x="1056" d="M137 369q0 219 130 387t329 168q51 0 86 -6.5t96 -26.5l29 520l137 -2l-57 -1100q0 -135 12 -169t53 -34q25 0 36 4.5t46 24.5l-6 -110q-66 -43 -125 -43q-131 0 -162 155q-100 -162 -284 -162q-147 0 -233.5 105.5t-86.5 288.5zM293 365q0 -117 46 -183.5t128 -66.5 q72 0 138.5 46t95 109.5t44 134t15.5 156.5l12 199q-82 35 -156 35q-141 0 -232 -122t-91 -308z" />
<glyph unicode="e" horiz-adv-x="897" d="M137 385q0 233 124 386t312 153q127 0 202 -68.5t75 -183.5q0 -145 -129 -229.5t-354 -84.5l-80 4q0 -121 62.5 -189.5t166.5 -68.5q121 0 254 95l-6 -142q-68 -43 -132.5 -63.5t-137.5 -20.5q-166 0 -261.5 110t-95.5 302zM291 487q14 -2 36.5 -4t39.5 -2 q154 0 244.5 51.5t90.5 137.5q0 53 -39.5 91t-95.5 38q-94 0 -177 -95.5t-99 -216.5z" />
<glyph unicode="f" horiz-adv-x="524" d="M-160 -455l6 121q59 -18 97 -18q166 0 219 162.5t53 545.5l10 426h-145l6 119h143q0 268 77 391t239 123q47 0 67.5 -4.5t63.5 -24.5l-14 -133q-33 18 -55.5 24.5t-53.5 6.5q-96 0 -140 -87t-44 -296h184l-10 -123h-176q0 -68 -4.5 -225.5t-8.5 -304.5 q0 -432 -106.5 -577.5t-288.5 -145.5q-72 0 -119 20z" />
<glyph unicode="g" d="M143 346q0 268 145.5 422t401.5 154q78 0 119 -6t121 -31l-43 -781q0 -313 -115 -443t-321 -130q-68 0 -113 9t-94 32l6 131q49 -25 93 -34t110 -9q145 0 218.5 98.5t73.5 364.5q-109 -143 -284 -143q-145 0 -231.5 98t-86.5 268zM295 360q0 -117 48 -179t138 -62 q131 0 211 107.5t80 326.5l12 225q-59 12 -112 13q-174 0 -275.5 -116t-101.5 -315z" />
<glyph unicode="h" d="M143 0l76 1407h143l-34 -641q119 158 282 158q104 0 180 -64.5t76 -269.5l-18 -371q0 -115 74 -115q23 0 40 6t54 33l-4 -114q-80 -47 -146 -47q-166 0 -166 223l17 323q2 23 3 39.5t1 26.5q0 90 -32 139t-103 49q-113 0 -195 -108.5t-82 -261.5l-22 -412h-144z" />
<glyph unicode="i" horiz-adv-x="460" d="M145 209l37 692h142l-33 -676q0 -70 16.5 -95.5t57.5 -25.5q39 0 96 35l-6 -110q-78 -47 -146 -47q-84 0 -124 61t-40 166zM172 1171q0 41 26.5 70t65.5 29t65.5 -26.5t26.5 -67.5q0 -37 -26.5 -64t-65.5 -27q-37 0 -64.5 26t-27.5 60z" />
<glyph unicode="j" horiz-adv-x="430" d="M-166 -457l6 121q23 -8 46.5 -12t43.5 -4q106 0 160.5 65.5t54.5 227.5l52 960h141l-53 -962q0 -236 -93.5 -326t-238.5 -90q-33 0 -56.5 4t-62.5 16zM188 1176q0 41 27 67.5t68 26.5q39 0 65.5 -27.5t26.5 -68.5q0 -39 -26.5 -66t-67.5 -27q-39 0 -66 27t-27 68z" />
<glyph unicode="k" horiz-adv-x="923" d="M147 0l78 1405h140l-46 -834l371 330h217l-446 -383l233 -338q45 -63 101 -63q43 0 96 35l-4 -117q-68 -47 -144 -47q-94 0 -163 100l-267 387l-26 -475h-140z" />
<glyph unicode="l" horiz-adv-x="462" d="M158 281l61 1124h139l-57 -1122q0 -82 7 -134.5t65 -52.5q33 0 94 39l-6 -108q-68 -45 -131 -45q-94 0 -133 74.5t-39 224.5z" />
<glyph unicode="m" horiz-adv-x="1519" d="M152 0l32 584v96q0 88 -3 123t-19 98h141q10 -41 13 -62.5t10 -76.5q92 162 268 162q164 0 237 -154q106 154 283 154q117 0 182.5 -78t65.5 -219l-23 -365q0 -88 15.5 -125t62.5 -37q20 0 41.5 7t54.5 30l-6 -106q-63 -51 -143 -51q-72 0 -120 56t-48 163l25 424 q0 159 -129 159h-2q-98 0 -170 -83t-72 -216l-27 -483h-143l29 545q0 127 -33 182t-101 55q-100 0 -177 -93t-77 -226l-28 -463h-139z" />
<glyph unicode="n" horiz-adv-x="1024" d="M143 0l33 612q0 117 -4 176.5t-18 112.5h139q10 -35 14 -58.5t10 -90.5q57 80 133 126t162 46q121 0 187.5 -79t66.5 -231l-18 -383q0 -70 16.5 -98.5t57.5 -28.5q18 0 43.5 9.5t50.5 25.5l-6 -106q-66 -51 -146 -51q-78 0 -122 52t-44 163l21 415q0 170 -127 170 q-121 0 -203 -105.5t-82 -289.5l-24 -387h-140z" />
<glyph unicode="o" horiz-adv-x="1024" d="M135 406q0 238 116 380t312 142q178 0 277.5 -113.5t99.5 -316.5q0 -242 -114.5 -384.5t-311.5 -142.5q-178 0 -278.5 115t-100.5 320zM285 399q0 -299 233 -299q125 0 201 109t76 287q0 145 -61.5 225t-176.5 80q-127 0 -199.5 -105.5t-72.5 -296.5z" />
<glyph unicode="p" horiz-adv-x="1024" d="M127 -465l61 1118q0 76 -6 141.5t-16 106.5h145q10 -37 13.5 -55.5t3.5 -69.5q127 154 293 154q145 0 230 -101.5t85 -275.5q0 -256 -115.5 -410.5t-308.5 -154.5q-76 0 -126 18.5t-85 52.5l-29 -524h-145zM305 199q31 -41 78 -67t102 -26q125 0 213 121t88 295 q0 266 -186 266q-123 0 -203 -101t-80 -281z" />
<glyph unicode="q" horiz-adv-x="1024" d="M143 397q0 213 142.5 371t378.5 158q86 0 126 -6t132 -35l-74 -1352h-137l30 588q-68 -74 -131 -104.5t-147 -30.5q-147 0 -233.5 118.5t-86.5 292.5zM299 389q0 -121 42 -196.5t132 -75.5q129 0 209 97t80 290l16 272q-43 10 -69.5 14.5t-55.5 4.5q-152 0 -253 -120 t-101 -286z" />
<glyph unicode="r" horiz-adv-x="694" d="M162 0l31 604v109v32q0 92 -15 156h135q6 -16 12.5 -72.5t6.5 -74.5t-4 -52q102 215 276 216q35 0 51.5 -4.5t51.5 -20.5l-15 -129q-31 8 -44 10t-36 2q-123 0 -210 -118.5t-87 -303.5l-18 -354h-135z" />
<glyph unicode="s" horiz-adv-x="759" d="M92 47l6 146q131 -92 258 -93q76 0 123 33t47 88q0 78 -138 165t-190.5 149.5t-52.5 150.5q0 113 82 178.5t224 65.5q66 0 126 -16.5t109 -45.5l-14 -135q-131 70 -232 70q-68 0 -106.5 -29t-38.5 -80q0 -49 80 -107.5t155.5 -110.5t110.5 -109.5t35 -133.5 q0 -123 -85 -191.5t-239 -68.5q-78 0 -148.5 21.5t-111.5 52.5z" />
<glyph unicode="t" horiz-adv-x="657" d="M102 782l7 119h118l11 227h139l-10 -227h258l-11 -117h-256l-28 -540q0 -78 24.5 -111t83.5 -33t160 64l-6 -129q-74 -57 -174 -58q-115 0 -173.5 69t-58.5 192l33 544h-117z" />
<glyph unicode="u" horiz-adv-x="1024" d="M164 266q10 117 17 232.5t7 201.5v25q0 43 -2 88t-8 88h148q4 -27 4 -60.5v-66.5q0 -119 -8.5 -256t-14.5 -239q0 -174 144 -175q102 0 191 102.5t89 407.5l12 287h144l-39 -682q0 -119 78 -119q20 0 36.5 6t57.5 31l-8 -108q-70 -47 -140 -47q-145 0 -159 151 q-111 -156 -281 -156q-129 0 -198.5 75t-69.5 214z" />
<glyph unicode="v" horiz-adv-x="925" d="M92 901h148l215 -778l321 778h150l-328 -788q-33 -78 -57.5 -108t-81.5 -30t-86 27t-45 86z" />
<glyph unicode="w" horiz-adv-x="1417" d="M111 901h143l176 -778l262 778h125l178 -778l256 778h156l-305 -833q-18 -51 -43 -69.5t-74 -18.5q-78 0 -100 88l-144 587l-190 -577q-20 -59 -47 -80t-86 -21q-80 0 -101 84z" />
<glyph unicode="x" horiz-adv-x="892" d="M47 0l350 475l-258 426h168l180 -317l220 317h180l-326 -428l285 -473h-168l-203 354l-254 -354h-174z" />
<glyph unicode="y" horiz-adv-x="993" d="M164 266q10 127 18 268.5t8 204.5q0 90 -10 162h144q8 -55 8 -141q0 -92 -9.5 -216t-19.5 -255q0 -84 29.5 -132t107.5 -48q127 0 206 106.5t79 314.5l18 371h142l-45 -895q0 -248 -114 -359.5t-327 -111.5q-61 0 -92 4t-98 23l8 125q111 -25 189 -25q143 0 218.5 85 t75.5 259l9 123q-121 -154 -285 -154q-125 0 -192.5 78t-67.5 213z" />
<glyph unicode="z" horiz-adv-x="796" d="M57 8l11 127l510 647h-439l6 119h633l-8 -106l-524 -662q59 0 140 -1t183 -3q102 0 179 18l-9 -131q-39 -10 -68.5 -12t-88.5 -2z" />
<glyph unicode="{" horiz-adv-x="536" d="M39 0l6 115h154l57 1042h-152l9 115h452l-6 -115h-153l-60 -1042h158l-8 -115h-457z" />
<glyph unicode="|" horiz-adv-x="307" d="M113 0v1270h84v-1270h-84z" />
<glyph unicode="}" horiz-adv-x="839" d="M47 291l4 74h142l-3 -37q0 -225 164 -226q86 0 129 64.5t43 206.5l39 784h-188l6 115h522l-8 -115h-176l-43 -801q0 -188 -85 -285.5t-241 -97.5q-147 0 -226 83t-79 235z" />
<glyph unicode="~" d="M121 518q0 299 215 299q59 0 115 -37l217 -141q43 -27 74.5 -39t56.5 -12q115 0 114 190h74q0 -150 -54 -224.5t-155 -74.5q-74 0 -170 62l-200 131q-43 29 -91 28q-55 0 -87.5 -49t-32.5 -133h-76z" />
<glyph unicode="&#xa1;" horiz-adv-x="1024" d="M104 1272h160l289 -547l342 547h168l-442 -680l-35 -592h-148l33 584zM254 1409l229 262h246l174 -260h-127l-172 156l-217 -160z" />
<glyph unicode="&#xa2;" d="M238 389q0 246 124.5 391.5t339.5 145.5h23l47 133l80 -27l-39 -117q25 -6 51.5 -12t67.5 -26l-8 -150q-47 31 -74 41t-84 18l-240 -665q23 -8 39.5 -10t42.5 -2q154 0 264 90l-10 -146q-106 -78 -250 -78q-47 0 -73.5 6.5t-55.5 12.5l-57 -158l-84 31l57 162 q-88 61 -124.5 142t-36.5 218zM387 389q0 -145 66 -215l219 614q-125 0 -205 -114.5t-80 -284.5z" />
<glyph unicode="&#xa3;" d="M96 0l2 106q66 80 133 162q80 111 109 250h-162l4 127h187q39 219 83 353.5t123.5 216t210.5 81.5q72 0 117.5 -13t108.5 -58l-11 -162q-98 96 -202 96q-106 0 -169 -112.5t-110 -403.5h293l-6 -125h-318q-47 -150 -83.5 -226.5t-114.5 -162.5h659l-6 -129h-848z" />
<glyph unicode="&#xa4;" horiz-adv-x="1716" d="M121 1272h158l180 -848q6 -29 16 -74t14 -71q10 41 24.5 86t29.5 88l319 819h133l197 -819q20 -80 45 -207l68 209l276 817h160l-449 -1278h-139l-211 852l-35 174q-10 -43 -27.5 -94.5t-27.5 -79.5l-324 -854h-122zM606 1518q0 45 31 75.5t76 30.5q43 0 72.5 -32 t29.5 -79q0 -43 -29.5 -74.5t-72.5 -31.5q-45 0 -76 30.5t-31 80.5zM1053 1516q0 45 30.5 75.5t75.5 30.5t75 -32t30 -79q0 -43 -31 -73.5t-74 -30.5q-45 0 -75.5 30.5t-30.5 78.5z" />
<glyph unicode="&#xa5;" d="M102 1272h160l291 -543l342 543h166l-389 -580h286l-4 -108h-333l-11 -146h336l-6 -104l-334 2l-18 -336h-156l23 336h-328l6 106h328l8 142h-330l6 110h281z" />
<glyph unicode="&#xa6;" horiz-adv-x="393" d="M160 0v487h145v-487h-145zM160 915v488h145v-488h-145z" />
<glyph unicode="&#xa7;" d="M129 856q0 195 126 321t320 126q158 0 261.5 -91.5t103.5 -234.5q0 -23 -2 -35l-88 -940h-150l64 602q-137 -123 -289 -123q-154 0 -250 104.5t-96 270.5zM287 860q0 -111 57 -174t158 -63q106 0 187 63.5t89 165.5l8 106q0 90 -61 149.5t-158 59.5q-121 0 -200.5 -88 t-79.5 -219z" />
<glyph unicode="&#xa8;" horiz-adv-x="460" d="M-35 1176q0 41 27.5 68.5t68.5 27.5q39 0 66 -27.5t27 -68.5q0 -37 -27 -66t-66 -29q-41 0 -68.5 28t-27.5 67zM313 1171q0 43 28 71t69 28q39 0 66.5 -27.5t27.5 -68.5q0 -39 -27.5 -67t-66.5 -28t-68 27t-29 65z" />
<glyph unicode="&#xa9;" horiz-adv-x="1476" d="M78 649q0 287 209 489.5t504 202.5q287 0 486.5 -203.5t199.5 -494.5q0 -293 -205 -499.5t-496 -206.5q-289 0 -493.5 208.5t-204.5 503.5zM178 659q0 -264 176 -448t428 -184q250 0 424 178t174 436q0 250 -178 428t-428 178q-244 0 -420 -172t-176 -416zM459 618 q0 170 96 276.5t250 106.5q125 0 202.5 -71.5t90.5 -198.5l-119 -2q-25 172 -172 172q-100 0 -161.5 -78t-61.5 -207q0 -127 59 -208.5t154 -81.5q152 0 186 172h115q-16 -129 -97 -204t-206 -75q-150 0 -243 111.5t-93 287.5z" />
<glyph unicode="&#xaa;" horiz-adv-x="1716" d="M121 1272h158l180 -848q6 -29 16 -74t14 -71q10 41 24.5 86t29.5 88l319 819h133l197 -819q20 -80 45 -207l68 209l276 817h160l-449 -1278h-139l-211 852l-35 174q-10 -43 -27.5 -94.5t-27.5 -79.5l-324 -854h-122zM594 1409l229 262h246l174 -260h-127l-172 156 l-217 -160z" />
<glyph unicode="&#xab;" horiz-adv-x="890" d="M113 463l221 344h151l-211 -348l172 -350h-143zM481 463l215 342l152 2l-211 -346l174 -355h-143z" />
<glyph unicode="&#xac;" d="M10 104l393 396l-391 391l109 110l393 -395l395 395l107 -106l-395 -395l397 -398l-109 -108l-395 397l-399 -397z" />
<glyph unicode="&#xad;" horiz-adv-x="528" d="M57 401v127h465v-127h-465z" />
<glyph unicode="&#xae;" horiz-adv-x="909" d="M96 1018q0 172 126 292t306 120q170 0 289 -119t119 -289q0 -164 -122 -279.5t-294 -115.5q-178 0 -301 112.5t-123 278.5zM154 1030q0 -145 107.5 -246.5t260.5 -101.5q147 0 249.5 98.5t102.5 239.5q0 147 -102 251.5t-250 104.5q-154 0 -261 -101t-107 -245zM387 823 v410h156q76 0 107.5 -23.5t31.5 -76.5q0 -41 -22.5 -71t-63.5 -34q39 -14 62.5 -105.5t25.5 -97.5h-72q-20 74 -41 148q-14 33 -51 33h-69v-183h-64zM451 1061h75q84 0 84 63q0 31 -13 42.5t-48 11.5h-98v-117z" />
<glyph unicode="&#xaf;" horiz-adv-x="460" d="M-66 1085l9 123h585l-10 -123h-584z" />
<glyph unicode="&#xb0;" horiz-adv-x="675" d="M47 999q0 121 86 209t207 88t209 -85.5t88 -206.5q0 -123 -88 -211t-213 -88q-121 0 -205 86t-84 208zM133 999q0 -86 60.5 -146t144.5 -60q86 0 149.5 61t63.5 147t-61.5 147.5t-149.5 61.5q-86 0 -146.5 -62.5t-60.5 -148.5z" />
<glyph unicode="&#xb1;" d="M25 -78h964v-145l-964 -2v147zM25 432v156h405v420h158v-420h411v-158h-411v-448h-158v450h-405z" />
<glyph unicode="&#xb2;" horiz-adv-x="681" d="M86 508v100l270 228q170 143 170 233q0 51 -36.5 82t-98.5 31q-125 0 -182 -146l-90 62q43 96 111.5 147t168.5 51q119 0 185.5 -62.5t66.5 -164.5q0 -94 -53 -166t-176 -168l-148 -117l353 5v-115h-541z" />
<glyph unicode="&#xb3;" horiz-adv-x="681" d="M88 629l82 73q45 -47 92 -68.5t109 -21.5q63 0 104 37t41 90q0 63 -56.5 92t-156.5 29h-61v113q8 -2 26.5 -4t44.5 -2q109 0 156 35.5t47 87.5q0 41 -33.5 66.5t-83.5 25.5q-53 0 -99 -21.5t-89 -60.5l-70 88q61 55 122 81.5t145 26.5q109 0 172 -53t63 -139 q0 -74 -40 -120t-116 -69q156 -26 156 -182q0 -104 -80 -169.5t-198 -65.5q-86 0 -157 31.5t-120 99.5z" />
<glyph unicode="&#xb4;" horiz-adv-x="460" d="M131 1411l170 260h244l-289 -260h-125z" />
<glyph unicode="&#xb5;" horiz-adv-x="1417" d="M111 901h143l176 -778l262 778h125l178 -778l256 778h156l-305 -833q-18 -51 -43 -69.5t-74 -18.5q-78 0 -100 88l-144 587l-190 -577q-20 -59 -47 -80t-86 -21q-80 0 -101 84zM504 1176q0 41 27.5 68.5t68.5 27.5q39 0 65.5 -27.5t26.5 -68.5q0 -37 -26.5 -66t-65.5 -29 q-41 0 -68.5 28t-27.5 67zM852 1171q0 43 27.5 71t68.5 28q39 0 66.5 -27.5t27.5 -68.5q0 -39 -27.5 -67t-66.5 -28t-67.5 27t-28.5 65z" />
<glyph unicode="&#xb6;" d="M150 854q0 215 123.5 317.5t388.5 102.5h423l-6 -94h-108l-101 -1651h-108l102 1651h-190l-103 -1651l-104 -2l57 950q-172 0 -273 101.5t-101 275.5zM262 858q0 -129 72 -207t196 -78l37 605q-141 0 -223 -88.5t-82 -231.5z" />
<glyph unicode="&#xb7;" horiz-adv-x="528" d="M193 655q0 45 30.5 78t79.5 33q47 0 80 -33t33 -82q0 -47 -34 -78.5t-81 -31.5q-45 0 -76.5 33.5t-31.5 80.5z" />
<glyph unicode="&#xb8;" horiz-adv-x="460" d="M-4 -387l29 104q88 -39 165 -39q59 0 98.5 25t39.5 64q0 31 -24.5 44t-61.5 13q-20 0 -31 -2l-47 61l45 158h98l-33 -131q82 0 132.5 -44t50.5 -114q0 -78 -72 -127t-188 -49q-63 0 -97 6t-104 31z" />
<glyph unicode="&#xb9;" horiz-adv-x="681" d="M176 1149q61 37 111.5 69.5t93.5 67.5h98l-45 -778h-127l37 629l-117 -80z" />
<glyph unicode="&#xba;" horiz-adv-x="1417" d="M111 901h143l176 -778l262 778h125l178 -778l256 778h156l-305 -833q-18 -51 -43 -69.5t-74 -18.5q-78 0 -100 88l-144 587l-190 -577q-20 -59 -47 -80t-86 -21q-80 0 -101 84zM457 1032l209 258h229l156 -258h-109l-172 156l-205 -156h-108z" />
<glyph unicode="&#xbb;" horiz-adv-x="890" d="M113 807l151 -2l217 -342l-188 -357h-141l172 355zM477 807h150l221 -344l-191 -354h-143l174 350z" />
<glyph unicode="&#xbc;" horiz-adv-x="1576" d="M176 1149q61 37 111.5 69.5t93.5 67.5h98l-45 -778h-127l37 629l-117 -80zM258 -25l776 1321h140l-779 -1321h-137zM862 170l6 104l328 498h139l-325 -487h229l18 303h123l-18 -303h92l-6 -115h-92l-10 -176h-125l10 176h-369z" />
<glyph unicode="&#xbd;" horiz-adv-x="1576" d="M180 1147q76 45 115 70.5t86 64.5h96l-45 -770h-121l35 627q-16 -12 -65.5 -42t-53.5 -32zM262 -23l774 1315h129l-768 -1317zM911 -2v96l269 228q94 78 133 130t39 103q0 53 -37 83t-101 30q-129 0 -188 -140l-84 56q41 96 109.5 146t173.5 50q119 0 185.5 -62.5 t66.5 -162.5q0 -92 -56.5 -165t-173.5 -169l-149 -119h350v-104h-537z" />
<glyph unicode="&#xbe;" horiz-adv-x="1576" d="M88 629l82 73q45 -47 92 -68.5t109 -21.5q63 0 104 37t41 90q0 63 -56.5 92t-156.5 29h-61v113q8 -2 26.5 -4t44.5 -2q109 0 156 35.5t47 87.5q0 41 -33.5 66.5t-83.5 25.5q-53 0 -99 -21.5t-89 -60.5l-70 88q61 55 122 81.5t145 26.5q109 0 172 -53t63 -139 q0 -74 -40 -120t-116 -69q156 -26 156 -182q0 -104 -80 -169.5t-198 -65.5q-86 0 -157 31.5t-120 99.5zM365 -25l776 1321h139l-778 -1321h-137zM862 170l6 104l328 498h139l-325 -487h229l18 303h123l-18 -303h92l-6 -115h-92l-10 -176h-125l10 176h-369z" />
<glyph unicode="&#xbf;" horiz-adv-x="993" d="M164 266q10 127 18 268.5t8 204.5q0 90 -10 162h144q8 -55 8 -141q0 -92 -9.5 -216t-19.5 -255q0 -84 29.5 -132t107.5 -48q127 0 206 106.5t79 314.5l18 371h142l-45 -895q0 -248 -114 -359.5t-327 -111.5q-61 0 -92 4t-98 23l8 125q111 -25 189 -25q143 0 218.5 85 t75.5 259l9 123q-121 -154 -285 -154q-125 0 -192.5 78t-67.5 213zM231 1032l209 258h230l155 -258h-108l-172 156l-205 -156h-109z" />
<glyph unicode="&#xc0;" horiz-adv-x="1224" d="M39 -2l573 1274h152l422 -1274h-156l-141 424h-500l-188 -424h-162zM354 1665h238l176 -258h-121zM444 553h402l-172 526z" />
<glyph unicode="&#xc1;" horiz-adv-x="1220" d="M39 -2l573 1274h152l422 -1274h-156l-141 424h-500l-188 -424h-162zM444 553h402l-172 526zM627 1409l170 258l247 2l-292 -260h-125z" />
<glyph unicode="&#xc2;" horiz-adv-x="1220" d="M39 -2l573 1274h152l422 -1274h-156l-141 424h-500l-188 -424h-162zM369 1409l229 262h246l174 -260h-127l-172 156l-217 -160zM444 553h402l-172 526z" />
<glyph unicode="&#xc3;" horiz-adv-x="1224" d="M39 -2l573 1274h152l422 -1274h-156l-141 424h-500l-188 -424h-162zM375 1405q0 111 54 181.5t132 70.5q53 0 159.5 -49t145.5 -49q45 0 65.5 22.5t26.5 83.5h95q0 -117 -54.5 -187.5t-140.5 -70.5q-51 0 -161.5 48t-137.5 48q-37 0 -59.5 -22.5t-32.5 -75.5h-92z M444 553h402l-172 526z" />
<glyph unicode="&#xc4;" horiz-adv-x="1224" d="M39 -2l573 1274h152l422 -1274h-156l-141 424h-500l-188 -424h-162zM379 1513q0 45 31.5 77t76.5 32t75 -32t30 -77q0 -43 -30 -74.5t-75 -31.5q-43 0 -75.5 30.5t-32.5 75.5zM444 553h402l-172 526zM827 1511q0 47 32 79t77 32t74.5 -32t29.5 -77q0 -43 -30.5 -73.5 t-73.5 -30.5q-45 0 -77 29.5t-32 72.5z" />
<glyph unicode="&#xc5;" horiz-adv-x="1224" d="M39 -2l573 1274h152l422 -1274h-156l-141 424h-500l-188 -424h-162zM444 553h402l-172 526zM504 1536q0 86 59.5 145.5t145.5 59.5t146 -62.5t60 -148.5q0 -84 -60 -142.5t-148 -58.5q-84 0 -143.5 59.5t-59.5 147.5zM594 1536q0 -49 32.5 -82t80.5 -33q47 0 81.5 33 t34.5 80q0 49 -32.5 82t-81.5 33t-82 -33t-33 -80z" />
<glyph unicode="&#xc6;" horiz-adv-x="1650" d="M33 0l760 1272h815l-6 -137h-582l53 -416h453l-6 -135h-428l57 -449h399l-6 -135h-524l-78 586l-395 -2l-344 -584h-168zM621 719h303l-54 428z" />
<glyph unicode="&#xc7;" horiz-adv-x="1155" d="M156 584q0 324 156.5 517t416.5 193q291 1 408 -245l-121 -74q-66 102 -129.5 141t-169.5 39q-180 0 -289 -155.5t-109 -417.5q0 -219 88.5 -342t247.5 -123q94 0 172 41t168 139l92 -100q-82 -104 -182 -157.5t-246 -66.5l-18 -65q180 -25 180 -154q0 -84 -72.5 -132 t-199.5 -48q-96 0 -187 41l31 102q41 -18 87 -29.5t73 -11.5q59 0 99 22.5t40 57.5q0 31 -23.5 50.5t-58.5 19.5l-30 -4l-52 59l31 101q-227 49 -315 208.5t-88 393.5z" />
<glyph unicode="&#xc8;" horiz-adv-x="960" d="M172 -2l70 1272h686l-8 -142h-535l-23 -413h488l-10 -137h-484l-24 -445h536l-6 -135h-690zM289 1667l239 -2l172 -256h-118z" />
<glyph unicode="&#xc9;" horiz-adv-x="960" d="M172 -2l70 1272h686l-8 -142h-535l-23 -413h488l-10 -137h-484l-24 -445h536l-6 -135h-690zM483 1411l174 258h244l-287 -258h-131z" />
<glyph unicode="&#xca;" horiz-adv-x="960" d="M172 -2l70 1272h686l-8 -142h-535l-23 -413h488l-10 -137h-484l-24 -445h536l-6 -135h-690zM270 1409l232 260h246l172 -258l-129 -2l-168 160l-215 -160h-138z" />
<glyph unicode="&#xcb;" horiz-adv-x="960" d="M172 -2l70 1272h686l-8 -142h-535l-23 -413h488l-10 -137h-484l-24 -445h536l-6 -135h-690zM268 1518q0 45 31 75.5t76 30.5q43 0 72.5 -32t29.5 -79q0 -43 -29.5 -74.5t-72.5 -31.5q-45 0 -76 30.5t-31 80.5zM715 1516q0 45 30.5 75.5t75.5 30.5t75 -32t30 -79 q0 -43 -31 -73.5t-74 -30.5q-45 0 -75.5 30.5t-30.5 78.5z" />
<glyph unicode="&#xcc;" horiz-adv-x="495" d="M-8 1667h241l177 -258h-125zM172 2l70 1268h149l-67 -1268h-152z" />
<glyph unicode="&#xcd;" horiz-adv-x="395" d="M137 1411l170 260h244l-289 -260h-125zM172 2l70 1268h149l-67 -1268h-152z" />
<glyph unicode="&#xce;" horiz-adv-x="495" d="M6 1409l234 262h243l174 -262h-131l-170 162l-211 -162h-139zM172 2l70 1268h149l-67 -1268h-152z" />
<glyph unicode="&#xcf;" horiz-adv-x="495" d="M2 1518q0 45 32 74.5t77 29.5t75.5 -31t30.5 -78q0 -43 -30.5 -73.5t-73.5 -30.5q-47 0 -79 32t-32 77zM172 2l70 1268h149l-67 -1268h-152zM453 1513q0 45 30.5 78t75.5 33q43 0 73 -32t30 -79q0 -41 -29 -71.5t-72 -30.5t-75.5 31t-32.5 71z" />
<glyph unicode="&#xd0;" horiz-adv-x="1255" d="M66 600l8 113h153l31 551l301 6q252 0 438.5 -128t186.5 -460q0 -330 -185.5 -511t-476.5 -181q-90 0 -181 5t-151 15l29 590h-153zM342 131l180 -6q227 0 365.5 148.5t138.5 390.5t-121 356.5t-342 114.5l-166 -2l-22 -420h282l-6 -113h-284z" />
<glyph unicode="&#xd1;" horiz-adv-x="1286" d="M168 0l65 1272h158l510 -869q23 -43 45.5 -82.5t50.5 -101.5q0 45 2 125t2 129l39 799h150l-70 -1272h-157l-512 868q-61 106 -93 189q0 -61 -2 -147.5t-2 -131.5l-39 -778h-147zM410 1405q0 111 54 181.5t132 70.5q53 0 159.5 -49t145.5 -49q45 0 65.5 22.5t26.5 83.5 h94q0 -117 -54 -187.5t-140 -70.5q-51 0 -161.5 48t-137.5 48q-37 0 -59.5 -22.5t-32.5 -75.5h-92z" />
<glyph unicode="&#xd2;" horiz-adv-x="1318" d="M164 588q0 326 150.5 515t410.5 189q238 0 368 -160.5t130 -453.5q0 -326 -149.5 -514.5t-411.5 -188.5q-238 0 -368 161t-130 452zM324 565q0 -221 88 -335.5t260 -114.5q184 0 288.5 147.5t104.5 411.5q0 233 -88 356t-260 123q-188 0 -290.5 -153.5t-102.5 -434.5z M412 1667h237l176 -258h-120z" />
<glyph unicode="&#xd3;" horiz-adv-x="1318" d="M164 588q0 326 150.5 515t410.5 189q238 0 368 -160.5t130 -453.5q0 -326 -149.5 -514.5t-411.5 -188.5q-238 0 -368 161t-130 452zM324 565q0 -221 88 -335.5t260 -114.5q184 0 288.5 147.5t104.5 411.5q0 233 -88 356t-260 123q-188 0 -290.5 -153.5t-102.5 -434.5z M653 1409l174 258h246l-289 -258h-131z" />
<glyph unicode="&#xd4;" horiz-adv-x="1318" d="M164 588q0 326 150.5 515t410.5 189q238 0 368 -160.5t130 -453.5q0 -326 -149.5 -514.5t-411.5 -188.5q-238 0 -368 161t-130 452zM324 565q0 -221 90 -335.5t260 -114.5q182 0 286.5 148.5t104.5 410.5q0 233 -88 356t-260 123q-188 0 -290.5 -153.5t-102.5 -434.5z M414 1409l229 262h246l174 -260h-127l-172 156l-217 -160z" />
<glyph unicode="&#xd5;" horiz-adv-x="1318" d="M164 588q0 326 150.5 515t410.5 189q238 0 368 -160.5t130 -453.5q0 -326 -149.5 -514.5t-411.5 -188.5q-238 0 -368 161t-130 452zM324 565q0 -221 88 -335.5t260 -114.5q184 0 288.5 147.5t104.5 411.5q0 233 -88 356t-260 123q-188 0 -290.5 -153.5t-102.5 -434.5z M381 1405q0 111 54 181.5t132 70.5q53 0 160 -49t145 -49q45 0 65.5 22.5t27.5 83.5h94q0 -117 -54.5 -187.5t-140.5 -70.5q-51 0 -161.5 48t-137.5 48q-37 0 -59.5 -22.5t-32.5 -75.5h-92z" />
<glyph unicode="&#xd6;" horiz-adv-x="1318" d="M164 588q0 326 150.5 515t410.5 189q238 0 368 -160.5t130 -453.5q0 -326 -149.5 -514.5t-411.5 -188.5q-238 0 -368 161t-130 452zM324 565q0 -221 88 -335.5t260 -114.5q184 0 288.5 147.5t104.5 411.5q0 233 -88 356t-260 123q-188 0 -290.5 -153.5t-102.5 -434.5z M408 1516q0 43 28.5 73.5t73.5 30.5t75.5 -31t30.5 -78q0 -43 -28.5 -73.5t-73.5 -30.5t-75.5 30.5t-30.5 78.5zM854 1511q0 47 30.5 78t76.5 31q45 0 74.5 -32t29.5 -77q0 -43 -30.5 -73.5t-73.5 -30.5t-75 29.5t-32 74.5z" />
<glyph unicode="&#xd7;" d="M45 162l358 356l-358 356l115 115l356 -358l356 358l115 -115l-358 -356l358 -356l-115 -115l-356 359l-356 -359z" />
<glyph unicode="&#xd8;" horiz-adv-x="1318" d="M115 4l147 180q-51 84 -73.5 179.5t-22.5 228.5q0 326 149.5 514t409.5 188q213 0 342 -135l145 174l78 -61l-160 -193q92 -143 93 -393q0 -332 -149.5 -520.5t-409.5 -188.5q-219 0 -338 132l-140 -168zM322 557q0 -111 45 -246l602 729q-98 113 -254 113 q-188 0 -290.5 -155.5t-102.5 -440.5zM422 221q57 -57 115.5 -81.5t132.5 -24.5q190 0 293.5 161t103.5 392q0 98 -9 160.5t-38 117.5z" />
<glyph unicode="&#xd9;" horiz-adv-x="1253" d="M193 569l43 701h147l-37 -701q0 -244 57.5 -353.5t233.5 -109.5q180 0 256 112t76 366l35 686h153l-41 -697q0 -317 -116.5 -458.5t-372.5 -141.5q-231 0 -332.5 145.5t-101.5 450.5zM379 1667h237l175 -260l-121 2z" />
<glyph unicode="&#xda;" horiz-adv-x="1253" d="M193 569l43 701h147l-37 -701q0 -244 57.5 -353.5t233.5 -109.5q180 0 256 112t76 366l35 686h153l-41 -697q0 -317 -116.5 -458.5t-372.5 -141.5q-231 0 -332.5 145.5t-101.5 450.5zM592 1411l170 260h244l-289 -260h-125z" />
<glyph unicode="&#xdb;" horiz-adv-x="1253" d="M193 569l43 701h147l-37 -701q0 -244 57.5 -353.5t233.5 -109.5q180 0 256 112t76 366l35 686h153l-41 -697q0 -317 -116.5 -458.5t-372.5 -141.5q-231 0 -332.5 145.5t-101.5 450.5zM385 1409l229 262h250l176 -262h-135l-168 158l-213 -158h-139z" />
<glyph unicode="&#xdc;" horiz-adv-x="1253" d="M193 569l43 701h147l-37 -701q0 -244 57.5 -353.5t233.5 -109.5q180 0 256 112t76 366l35 686h153l-41 -697q0 -317 -116.5 -458.5t-372.5 -141.5q-231 0 -332.5 145.5t-101.5 450.5zM377 1518q0 43 31.5 74.5t74.5 31.5q45 0 75 -32t30 -79q0 -43 -31 -73.5t-74 -30.5 q-45 0 -75.5 30.5t-30.5 78.5zM825 1513q0 43 31 76t76 33t75.5 -31t30.5 -78q0 -43 -31.5 -74.5t-74.5 -31.5t-75 31.5t-32 74.5z" />
<glyph unicode="&#xdd;" horiz-adv-x="1024" d="M104 1272h160l289 -547l342 547h168l-442 -680l-35 -592h-148l33 584zM459 1411l170 260h243l-288 -260h-125z" />
<glyph unicode="&#xde;" horiz-adv-x="1054" d="M190 0l70 1270h146l-13 -226l113 3q233 0 366.5 -78t133.5 -277q0 -170 -132.5 -255t-298.5 -85q-66 0 -117.5 2t-103.5 4l-18 -358h-146zM365 496q41 -4 73.5 -6.5t100.5 -2.5q135 0 223 53.5t88 159.5q0 123 -98.5 172.5t-223.5 49.5l-141 -4z" />
<glyph unicode="&#xdf;" horiz-adv-x="1087" d="M-162 -455l8 125q68 -31 109 -30q154 0 212 150.5t58 610.5l2 383h-145l6 117h141q0 301 91.5 408.5t257.5 107.5q139 0 222 -89t83 -241q0 -123 -56 -256q-72 -27 -96 -51t-24 -67q0 -78 130 -160t167.5 -134.5t37.5 -156.5q0 -133 -89 -210t-240 -77q-70 0 -114 10.5 t-120 43.5l6 137q61 -41 100.5 -53.5t106.5 -12.5q201 0 201 148q0 59 -34 99t-168 126t-134 227q0 76 40 130.5t124 89.5q14 47 18 71.5t4 71.5q0 111 -43 167t-143 56q-82 0 -133 -91t-51 -398l-4 -391q0 -580 -106.5 -730.5t-301.5 -150.5q-33 0 -57.5 4t-65.5 16z" />
<glyph unicode="&#xe0;" horiz-adv-x="1028" d="M141 358q0 258 135.5 411t374.5 153q78 0 124 -8.5t130 -36.5l-39 -676q0 -96 76 -97q27 0 78 29l-6 -106q-29 -20 -58.5 -32.5t-66.5 -12.5q-66 0 -115 43t-49 118q-115 -168 -281 -168q-139 0 -221 98.5t-82 284.5zM291 348q0 -229 172 -229q113 0 195.5 110.5 t82.5 272.5l17 262q-66 23 -125 22q-158 0 -250 -116.5t-92 -321.5zM354 1288h219l154 -256h-119z" />
<glyph unicode="&#xe1;" horiz-adv-x="1028" d="M141 358q0 268 133.5 416t376.5 148q78 0 124 -8.5t130 -36.5l-39 -676q0 -96 76 -97q27 0 78 29l-6 -106q-29 -20 -58.5 -32.5t-66.5 -12.5q-66 0 -115 43t-49 118q-115 -168 -281 -168q-139 0 -221 98.5t-82 284.5zM291 348q0 -229 172 -229q113 0 195.5 110.5 t82.5 272.5l17 262q-66 23 -125 22q-158 0 -250 -116.5t-92 -321.5zM522 1032l146 256h221l-254 -256h-113z" />
<glyph unicode="&#xe2;" horiz-adv-x="1028" d="M141 358q0 258 135.5 411t374.5 153q78 0 124 -8.5t130 -36.5l-39 -676q0 -96 76 -97q27 0 78 29l-6 -106q-29 -20 -58.5 -32.5t-66.5 -12.5q-66 0 -115 43t-49 118q-115 -168 -281 -168q-139 0 -221 98.5t-82 284.5zM287 1032l209 258h229l156 -258h-109l-172 156 l-205 -156h-108zM291 348q0 -229 172 -229q113 0 195.5 110.5t82.5 272.5l17 262q-66 23 -125 22q-158 0 -250 -116.5t-92 -321.5z" />
<glyph unicode="&#xe3;" horiz-adv-x="1028" d="M141 358q0 258 135.5 411t374.5 153q78 0 124 -8.5t130 -36.5l-39 -676q0 -96 76 -97q27 0 78 29l-6 -106q-29 -20 -58.5 -32.5t-66.5 -12.5q-66 0 -115 43t-49 118q-115 -168 -281 -168q-139 0 -221 98.5t-82 284.5zM285 1034q41 248 192 248q43 0 133 -43t125 -43 q78 0 99 94h88q-10 -115 -62.5 -177t-134.5 -62q-27 0 -122 46t-136 46q-68 0 -90 -109h-92zM291 348q0 -229 172 -229q113 0 195.5 110.5t82.5 272.5l17 262q-66 23 -125 22q-158 0 -250 -116.5t-92 -321.5z" />
<glyph unicode="&#xe4;" horiz-adv-x="1028" d="M141 358q0 258 135.5 411t374.5 153q78 0 124 -8.5t130 -36.5l-39 -676q0 -96 76 -97q27 0 78 29l-6 -106q-29 -20 -58.5 -32.5t-66.5 -12.5q-66 0 -115 43t-49 118q-115 -168 -281 -168q-139 0 -221 98.5t-82 284.5zM291 348q0 -229 172 -229q113 0 195.5 110.5 t82.5 272.5l17 262q-66 23 -125 22q-158 0 -250 -116.5t-92 -321.5zM317 1178q0 41 28 68.5t69 27.5q39 0 65.5 -27.5t26.5 -68.5q0 -39 -26.5 -66t-65.5 -27t-68 27t-29 66zM662 1176q0 41 28.5 67.5t67.5 26.5q41 0 68.5 -27.5t27.5 -66.5q0 -41 -26.5 -68t-65.5 -27 q-43 0 -71.5 27t-28.5 68z" />
<glyph unicode="&#xe5;" horiz-adv-x="1028" d="M141 358q0 258 135.5 411t374.5 153q78 0 124 -8.5t130 -36.5l-39 -676q0 -96 76 -97q27 0 78 29l-6 -106q-29 -20 -58.5 -32.5t-66.5 -12.5q-66 0 -115 43t-49 118q-115 -168 -281 -168q-139 0 -221 98.5t-82 284.5zM291 348q0 -229 172 -229q113 0 195.5 110.5 t82.5 272.5l17 262q-66 23 -125 22q-158 0 -250 -116.5t-92 -321.5zM412 1161q0 86 59 145.5t145 59.5q82 0 139.5 -59.5t57.5 -145.5q0 -82 -57.5 -139t-143.5 -57q-82 0 -141 57t-59 139zM500 1163q0 -45 32.5 -77.5t79.5 -32.5t80 30.5t33 77.5q0 49 -30.5 82t-80.5 33 q-47 0 -80.5 -32t-33.5 -81z" />
<glyph unicode="&#xe6;" horiz-adv-x="1519" d="M139 369q0 260 134.5 406.5t369.5 146.5q131 0 252 -43l-12 -136q119 182 301 183q115 0 191.5 -71t76.5 -175q0 -145 -130 -231.5t-351 -86.5l-86 3q0 -115 69.5 -187t178.5 -72q59 0 115.5 23t131.5 76l-2 -142q-137 -90 -266 -90q-262 0 -342 265 q-61 -133 -141 -194.5t-191 -61.5q-139 0 -219 102t-80 285zM291 356q0 -236 168 -235q127 0 209 123t82 329l12 197q-51 12 -74.5 16.5t-58.5 4.5q-154 0 -246 -119t-92 -316zM889 485l67 -6q154 0 246 53.5t92 141.5q0 53 -34.5 86t-90.5 33q-102 0 -184 -90.5t-96 -217.5 z" />
<glyph unicode="&#xe7;" horiz-adv-x="825" d="M143 387q0 250 123 395.5t338 145.5q61 0 101.5 -8t103.5 -33l-8 -142q-66 27 -102.5 35t-92.5 8q-137 0 -225 -112.5t-88 -288.5q0 -279 239 -278q51 0 122 26.5t126 61.5l-10 -150q-115 -72 -260 -72l-16 -65q178 -18 178 -154q0 -82 -67.5 -131t-182.5 -49 q-63 0 -97 6t-110 33l31 102q78 -39 162 -39q61 0 99 21.5t38 56.5q0 70 -84 70l-33 -4l-47 59l29 103q-115 39 -191 130t-76 273z" />
<glyph unicode="&#xe8;" horiz-adv-x="897" d="M137 385q0 233 124 386t312 153q127 0 202 -68.5t75 -183.5q0 -145 -129 -229.5t-354 -84.5l-80 4q0 -121 62.5 -189.5t166.5 -68.5q121 0 254 95l-6 -142q-68 -43 -132.5 -63.5t-137.5 -20.5q-166 0 -261.5 110t-95.5 302zM291 487q14 -2 36.5 -4t39.5 -2 q154 0 244.5 51.5t90.5 137.5q0 53 -39.5 91t-95.5 38q-94 0 -177 -95.5t-99 -216.5zM293 1288l221 -2l150 -254h-115z" />
<glyph unicode="&#xe9;" horiz-adv-x="897" d="M137 385q0 233 124 386t312 153q127 0 202 -68.5t75 -183.5q0 -145 -129 -229.5t-354 -84.5l-80 4q0 -121 62.5 -189.5t166.5 -68.5q121 0 254 95l-6 -142q-68 -43 -132.5 -63.5t-137.5 -20.5q-166 0 -261.5 110t-95.5 302zM291 487q14 -2 36.5 -4t39.5 -2 q154 0 244.5 51.5t90.5 137.5q0 53 -39.5 91t-95.5 38q-94 0 -177 -95.5t-99 -216.5zM453 1034l147 256h223l-254 -256h-116z" />
<glyph unicode="&#xea;" horiz-adv-x="897" d="M137 385q0 233 124 386t312 153q127 0 202 -68.5t75 -183.5q0 -145 -129 -229.5t-354 -84.5l-80 4q0 -121 62.5 -189.5t166.5 -68.5q121 0 254 95l-6 -142q-68 -43 -132.5 -63.5t-137.5 -20.5q-166 0 -261.5 110t-95.5 302zM256 1034l209 256h233l154 -256h-113l-166 154 l-204 -154h-113zM291 487q14 -2 36.5 -4t39.5 -2q154 0 244.5 51.5t90.5 137.5q0 53 -39.5 91t-95.5 38q-94 0 -177 -95.5t-99 -216.5z" />
<glyph unicode="&#xeb;" horiz-adv-x="897" d="M137 385q0 233 124 386t312 153q127 0 202 -68.5t75 -183.5q0 -145 -129 -229.5t-354 -84.5l-80 4q0 -121 62.5 -189.5t166.5 -68.5q121 0 254 95l-6 -142q-68 -43 -132.5 -63.5t-137.5 -20.5q-166 0 -261.5 110t-95.5 302zM291 487q14 -2 36.5 -4t39.5 -2 q154 0 244.5 51.5t90.5 137.5q0 53 -39.5 91t-95.5 38q-94 0 -177 -95.5t-99 -216.5zM313 1176q0 39 27 67.5t66 28.5q41 0 67.5 -26.5t26.5 -69.5q0 -39 -27 -66t-67 -27q-39 0 -66 27t-27 66zM657 1176q0 39 29 67.5t70 28.5q37 0 65.5 -28.5t28.5 -69.5q0 -39 -27.5 -67 t-66.5 -28q-41 0 -70 27t-29 70z" />
<glyph unicode="&#xec;" horiz-adv-x="460" d="M47 1290h219l152 -256h-111zM145 209l37 692h142l-33 -676q0 -70 16.5 -95.5t57.5 -25.5q39 0 96 35l-6 -110q-78 -47 -146 -47q-84 0 -124 61t-40 166z" />
<glyph unicode="&#xed;" horiz-adv-x="460" d="M145 209l37 692h142l-33 -676q0 -70 16.5 -95.5t57.5 -25.5q39 0 96 35l-6 -110q-78 -47 -146 -47q-84 0 -124 61t-40 166zM178 1034l150 256h219l-254 -256h-115z" />
<glyph unicode="&#xee;" horiz-adv-x="460" d="M33 1040l160 252h178l116 -254h-84l-127 154l-157 -154zM145 209l37 692h142l-33 -676q0 -70 16.5 -95.5t57.5 -25.5q39 0 96 35l-6 -110q-78 -47 -146 -47q-84 0 -124 61t-40 166z" />
<glyph unicode="&#xef;" horiz-adv-x="460" d="M4 1176q0 41 27.5 70.5t70.5 29.5q39 0 66 -28.5t27 -69.5q0 -37 -27 -66t-68 -29q-39 0 -67.5 27t-28.5 66zM145 209l37 692h142l-33 -676q0 -70 16.5 -95.5t57.5 -25.5q39 0 96 35l-6 -110q-78 -47 -146 -47q-84 0 -124 61t-40 166zM350 1178q0 41 26.5 67.5t67.5 26.5 t69 -27.5t28 -68.5t-27 -68t-65 -27q-41 0 -70 27t-29 70z" />
<glyph unicode="&#xf0;" horiz-adv-x="1056" d="M135 414q0 215 107.5 361.5t312.5 146.5q94 0 172 -60q-20 74 -66.5 158t-91.5 133l-207 -96l-67 71l213 97q-68 74 -139 131l116 57q55 -45 84 -70.5t60 -60.5l205 94l67 -71l-209 -95q109 -117 172.5 -295t63.5 -407q0 -246 -98.5 -387t-305.5 -141q-197 0 -293 112.5 t-96 321.5zM281 414q0 -133 58 -222.5t183 -89.5q137 0 198.5 112t61.5 255t-54 236.5t-179 93.5q-123 0 -195.5 -103.5t-72.5 -281.5z" />
<glyph unicode="&#xf1;" horiz-adv-x="1024" d="M143 0l33 612q0 117 -4 176.5t-18 112.5h139q10 -35 14 -58.5t10 -90.5q57 80 133 126t162 46q121 0 187.5 -79t66.5 -231l-18 -383q0 -70 16.5 -98.5t57.5 -28.5q18 0 43.5 9.5t50.5 25.5l-6 -106q-66 -51 -146 -51q-78 0 -122 52t-44 163l21 415q0 170 -127 170 q-121 0 -203 -105.5t-82 -289.5l-24 -387h-140zM268 1034q41 248 193 248q43 0 133 -43t125 -43q78 0 98 94h88q-10 -115 -62 -177t-134 -62q-27 0 -122 46t-136 46q-68 0 -91 -109h-92z" />
<glyph unicode="&#xf2;" horiz-adv-x="1024" d="M135 406q0 238 116 380t312 142q178 0 277.5 -113.5t99.5 -316.5q0 -242 -114.5 -384.5t-311.5 -142.5q-178 0 -278.5 115t-100.5 320zM285 399q0 -299 233 -299q125 0 201 109t76 287q0 145 -61.5 225t-176.5 80q-127 0 -199.5 -105.5t-72.5 -296.5zM307 1288h215 l152 -252h-113z" />
<glyph unicode="&#xf3;" horiz-adv-x="1024" d="M135 406q0 238 116 380t312 142q178 0 277.5 -113.5t99.5 -316.5q0 -242 -114.5 -384.5t-311.5 -142.5q-178 0 -278.5 115t-100.5 320zM285 399q0 -299 233 -299q125 0 201 109t76 287q0 145 -61.5 225t-176.5 80q-127 0 -199.5 -105.5t-72.5 -296.5zM465 1036l143 254 h228l-258 -254h-113z" />
<glyph unicode="&#xf4;" horiz-adv-x="1024" d="M135 406q0 238 116 380t312 142q178 0 277.5 -113.5t99.5 -316.5q0 -242 -114.5 -384.5t-311.5 -142.5q-178 0 -278.5 115t-100.5 320zM272 1034l209 264l221 -2l146 -262l-105 -2l-159 160l-203 -158h-109zM285 399q0 -299 233 -299q125 0 201 109t76 287 q0 145 -61.5 225t-176.5 80q-127 0 -199.5 -105.5t-72.5 -296.5z" />
<glyph unicode="&#xf5;" horiz-adv-x="1024" d="M135 406q0 238 116 380t312 142q178 0 277.5 -113.5t99.5 -316.5q0 -242 -114.5 -384.5t-311.5 -142.5q-178 0 -278.5 115t-100.5 320zM258 1034q41 248 193 248q43 0 133 -43t125 -43q78 0 98 94h88q-10 -115 -62.5 -177t-134.5 -62q-27 0 -122 46t-136 46 q-68 0 -90 -109h-92zM285 399q0 -299 233 -299q125 0 201 109t76 287q0 145 -61.5 225t-176.5 80q-127 0 -199.5 -105.5t-72.5 -296.5z" />
<glyph unicode="&#xf6;" horiz-adv-x="1024" d="M135 406q0 238 116 380t312 142q178 0 277.5 -113.5t99.5 -316.5q0 -242 -114.5 -384.5t-311.5 -142.5q-178 0 -278.5 115t-100.5 320zM285 399q0 -299 233 -299q125 0 201 109t76 287q0 145 -61.5 225t-176.5 80q-127 0 -199.5 -105.5t-72.5 -296.5zM307 1178 q0 41 26.5 69.5t67.5 28.5t68 -28.5t27 -69.5q0 -39 -27 -66t-68 -27q-37 0 -65.5 27t-28.5 66zM651 1176q0 41 29 69.5t70 28.5q39 0 65.5 -28.5t26.5 -69.5q0 -39 -27 -66t-67 -27q-39 0 -68 27t-29 66z" />
<glyph unicode="&#xf7;" d="M27 434v154h972v-154h-972zM406 844q0 43 30.5 73.5t71.5 30.5q43 0 73.5 -30.5t30.5 -73.5q0 -41 -30.5 -72t-71.5 -31q-43 0 -73.5 29t-30.5 74zM408 172q0 43 28.5 73.5t73.5 30.5q43 0 73.5 -28.5t30.5 -73.5q0 -41 -30.5 -71.5t-73.5 -30.5t-72.5 29.5t-29.5 70.5z " />
<glyph unicode="&#xf8;" horiz-adv-x="1024" d="M76 10l125 137q-59 94 -60 256q0 240 110.5 381.5t301.5 141.5q150 0 264 -103l113 123l63 -59l-116 -131q59 -121 59 -264q0 -238 -112.5 -379.5t-301.5 -141.5q-170 0 -264 105l-119 -131zM285 403q0 -55 2 -73.5t16 -69.5l424 467q-39 43 -71.5 57.5t-102.5 14.5 q-129 0 -198.5 -102.5t-69.5 -293.5zM346 170q41 -45 76 -59.5t102 -14.5q123 0 197 106.5t74 282.5q0 49 -4.5 78t-18.5 80z" />
<glyph unicode="&#xf9;" horiz-adv-x="1024" d="M164 266q10 117 17 232.5t7 201.5v25q0 43 -2 88t-8 88h148q4 -27 4 -60.5v-66.5q0 -119 -8.5 -256t-14.5 -239q0 -174 144 -175q102 0 191 102.5t89 407.5l12 287h144l-39 -682q0 -119 78 -119q20 0 36.5 6t57.5 31l-8 -108q-70 -47 -140 -47q-145 0 -159 151 q-111 -156 -281 -156q-129 0 -198.5 75t-69.5 214zM274 1292h218l155 -258h-108z" />
<glyph unicode="&#xfa;" horiz-adv-x="1024" d="M164 266q10 117 17 232.5t7 201.5v25q0 43 -2 88t-8 88h148q4 -27 4 -60.5v-66.5q0 -119 -8.5 -256t-14.5 -239q0 -174 144 -175q102 0 191 102.5t89 407.5l12 287h144l-39 -682q0 -119 78 -119q20 0 36.5 6t57.5 31l-8 -108q-70 -47 -140 -47q-145 0 -159 151 q-111 -156 -281 -156q-129 0 -198.5 75t-69.5 214zM430 1036l145 254h226l-258 -254h-113z" />
<glyph unicode="&#xfb;" horiz-adv-x="1024" d="M164 266q10 117 17 232.5t7 201.5v25q0 43 -2 88t-8 88h148q4 -27 4 -60.5v-66.5q0 -119 -8.5 -256t-14.5 -239q0 -174 144 -175q102 0 191 102.5t89 407.5l12 287h144l-39 -682q0 -119 78 -119q20 0 36.5 6t57.5 31l-8 -108q-70 -47 -140 -47q-145 0 -159 151 q-111 -156 -281 -156q-129 0 -198.5 75t-69.5 214zM240 1036l211 256h227l160 -260h-113l-170 162l-203 -158h-112z" />
<glyph unicode="&#xfc;" horiz-adv-x="1024" d="M164 266q10 117 17 232.5t7 201.5v25q0 43 -2 88t-8 88h148q4 -27 4 -60.5v-66.5q0 -119 -8.5 -256t-14.5 -239q0 -174 144 -175q102 0 191 102.5t89 407.5l12 287h144l-39 -682q0 -119 78 -119q20 0 36.5 6t57.5 31l-8 -108q-70 -47 -140 -47q-145 0 -159 151 q-111 -156 -281 -156q-129 0 -198.5 75t-69.5 214zM274 1176q0 41 28 68.5t69 27.5q39 0 65.5 -27.5t26.5 -68.5q0 -37 -26.5 -66t-65.5 -29q-41 0 -69 28t-28 67zM623 1171q0 43 27.5 71t68.5 28q39 0 66.5 -27.5t27.5 -68.5q0 -39 -27.5 -67t-66.5 -28t-67.5 27t-28.5 65z " />
<glyph unicode="&#xfd;" horiz-adv-x="993" d="M168 334q0 168 9 320.5t9 158.5q0 41 -6 88h135q6 -47 7 -106q0 -61 -8.5 -215t-8.5 -232q0 -139 26.5 -189t108.5 -50q127 0 206 106.5t79 314.5l18 371h142l-45 -895q0 -248 -114 -359.5t-327 -111.5q-61 0 -92 4t-98 23l8 125q111 -25 189 -25q143 0 218.5 85 t75.5 259l9 123q-121 -154 -285 -154q-131 0 -193.5 81t-62.5 278zM418 1042l170 261h243l-288 -261h-125z" />
<glyph unicode="&#xfe;" horiz-adv-x="1024" d="M127 -465l104 1868h146l-35 -621l4 -4q55 72 123 108t158 36q164 0 238.5 -106t74.5 -294q0 -227 -112.5 -384.5t-311.5 -157.5q-68 0 -118 19t-97 56l-29 -520h-145zM311 195q35 -45 75 -69t101 -24q135 0 221.5 117t86.5 307q0 121 -41 191.5t-140 70.5 q-131 0 -207.5 -106.5t-76.5 -249.5z" />
<glyph unicode="&#xff;" horiz-adv-x="993" d="M166 334q0 133 9 287.5t9 179.5v37q0 18 -1 34.5t-3 28.5h144q0 -78 -10.5 -303t-10.5 -309t29.5 -132t107.5 -48q127 0 206 106.5t79 314.5l18 371h142l-45 -895q0 -248 -114 -359.5t-327 -111.5q-61 0 -92 4t-98 23l8 125q111 -25 189 -25q143 0 218.5 85t75.5 259 l9 123q-121 -154 -285 -154q-129 0 -193.5 82t-64.5 277zM297 1178q0 41 26.5 69.5t67.5 28.5q39 0 66.5 -27.5t27.5 -68.5q0 -37 -26.5 -66t-65.5 -29t-67.5 27t-28.5 66zM639 1178q0 39 28.5 67.5t69.5 28.5t67.5 -26.5t26.5 -69.5q0 -37 -26.5 -66t-67.5 -29t-69.5 27 t-28.5 68z" />
<glyph unicode="&#x152;" horiz-adv-x="1783" d="M129 590q0 328 147.5 512t407.5 184q125 0 212 -43t161 -141l8 170h686l-10 -142h-533l-22 -413h483l-6 -135h-485l-23 -447h537l-4 -135h-691l9 156q-92 -94 -182.5 -135t-205.5 -41q-231 0 -360 159.5t-129 450.5zM287 582q0 -223 92 -348t256 -125q180 0 288.5 147 t108.5 395q0 236 -93 367t-267 131q-186 0 -285.5 -146.5t-99.5 -420.5z" />
<glyph unicode="&#x153;" horiz-adv-x="1552" d="M131 401q0 246 112.5 385.5t313.5 139.5q242 0 330 -213q113 217 321 217q123 0 197 -69.5t74 -184.5q0 -152 -146.5 -237t-408.5 -85q10 -119 71.5 -183.5t163.5 -64.5q125 0 260 103v-139q-115 -94 -295 -95q-94 0 -158.5 42t-119.5 137q-49 -88 -139.5 -137.5 t-204.5 -49.5q-174 0 -272.5 115t-98.5 319zM279 406q0 -150 60 -231t173 -81q129 0 204 103.5t75 279.5q0 152 -61.5 236t-176.5 84q-127 0 -200.5 -104.5t-73.5 -286.5zM924 475q195 0 300 53.5t105 149.5q0 53 -36 87t-89 34q-106 0 -172.5 -73t-107.5 -251z" />
<glyph unicode="&#x178;" horiz-adv-x="1024" d="M104 1272h160l289 -547l342 547h168l-442 -680l-35 -592h-148l33 584zM258 1520q0 45 32 74.5t77 29.5t74.5 -31.5t29.5 -76.5q0 -43 -30.5 -74t-73.5 -31q-45 0 -77 32t-32 77zM709 1516q0 45 30.5 77.5t75.5 32.5t75 -31.5t30 -76.5q0 -43 -31 -74t-76 -31 q-43 0 -73.5 28.5t-30.5 74.5z" />
<glyph unicode="&#x2c6;" horiz-adv-x="460" d="M-66 1032l209 258h230l155 -258h-108l-172 156l-205 -156h-109z" />
<glyph unicode="&#x2dc;" horiz-adv-x="460" d="M-90 1044q35 246 190 246q61 0 145.5 -43t116.5 -43q72 0 101 94h88q-31 -240 -199 -239q-51 0 -139 47t-123 47q-70 0 -88 -109h-92z" />
<glyph unicode="&#x2000;" horiz-adv-x="870" />
<glyph unicode="&#x2001;" horiz-adv-x="1741" />
<glyph unicode="&#x2002;" horiz-adv-x="870" />
<glyph unicode="&#x2003;" horiz-adv-x="1741" />
<glyph unicode="&#x2004;" horiz-adv-x="580" />
<glyph unicode="&#x2005;" horiz-adv-x="435" />
<glyph unicode="&#x2006;" horiz-adv-x="290" />
<glyph unicode="&#x2007;" horiz-adv-x="290" />
<glyph unicode="&#x2008;" horiz-adv-x="217" />
<glyph unicode="&#x2009;" horiz-adv-x="348" />
<glyph unicode="&#x200a;" horiz-adv-x="96" />
<glyph unicode="&#x2010;" horiz-adv-x="528" d="M57 401v127h465v-127h-465z" />
<glyph unicode="&#x2011;" horiz-adv-x="528" d="M57 401v127h465v-127h-465z" />
<glyph unicode="&#x2012;" horiz-adv-x="528" d="M57 401v127h465v-127h-465z" />
<glyph unicode="&#x2013;" horiz-adv-x="1024" d="M55 401l6 129h963l-10 -129h-959z" />
<glyph unicode="&#x2014;" horiz-adv-x="2048" d="M35 399l6 131l2015 2l-8 -131z" />
<glyph unicode="&#x2018;" horiz-adv-x="528" d="M203 915q0 100 59.5 203t157.5 172l51 -65q-78 -74 -105.5 -124t-27.5 -114q0 -35 40 -98.5t40 -81.5q0 -31 -25.5 -54.5t-60.5 -23.5q-55 0 -92 53.5t-37 132.5z" />
<glyph unicode="&#x2019;" horiz-adv-x="528" d="M170 788q72 74 98.5 126.5t26.5 113.5q0 41 -42 100.5t-42 85.5q0 29 27.5 51.5t58.5 22.5q55 0 94 -53t39 -129q0 -113 -42 -195t-163 -184z" />
<glyph unicode="&#x201a;" horiz-adv-x="528" d="M96 -307q74 63 103.5 113.5t29.5 113.5q0 33 -36.5 100.5t-36.5 81.5q0 33 24.5 57.5t61.5 24.5q51 0 92 -55t41 -127q0 -106 -48 -195.5t-169 -185.5z" />
<glyph unicode="&#x201c;" horiz-adv-x="892" d="M203 918q0 100 60.5 203.5t156.5 168.5l51 -65q-78 -74 -105.5 -124t-27.5 -114q0 -41 40 -95t40 -81q0 -33 -24.5 -57.5t-61.5 -24.5q-55 0 -92 53.5t-37 135.5zM563 922q0 98 55.5 195t155.5 175l53 -65q-74 -74 -99.5 -124t-25.5 -114q0 -39 41 -100.5t41 -83.5 q0 -31 -24.5 -53.5t-61.5 -22.5q-61 0 -98 52.5t-37 140.5z" />
<glyph unicode="&#x201d;" horiz-adv-x="1026" d="M170 788q72 74 98.5 126.5t26.5 113.5q0 37 -42 100.5t-42 85.5q0 31 25.5 52.5t60.5 21.5q55 0 94 -53t39 -129q0 -135 -52 -208t-81 -103.5t-72 -67.5zM522 795q133 102 133 241q0 35 -41 97.5t-41 80.5q0 31 26 54.5t56 23.5q55 0 96.5 -55t41.5 -129 q0 -145 -60.5 -221t-83 -97.5t-71.5 -58.5z" />
<glyph unicode="&#x201e;" horiz-adv-x="892" d="M109 -301q119 92 118 219q0 39 -34.5 100.5t-34.5 81.5q0 33 24.5 55.5t63.5 22.5q51 0 90 -54t39 -126q0 -100 -57.5 -199.5t-153.5 -165.5zM471 -303q123 109 123 225q0 35 -34 94.5t-34 79.5q0 33 24.5 57.5t59.5 24.5q53 0 94 -54t41 -126q0 -96 -62 -199.5 t-159 -167.5z" />
<glyph unicode="&#x2022;" horiz-adv-x="448" d="M35 682q0 82 55 139.5t135 57.5t137.5 -57.5t57.5 -137.5t-56.5 -136t-138.5 -56q-80 0 -135 55t-55 135z" />
<glyph unicode="&#x2026;" horiz-adv-x="972" d="M63 86q0 43 27 71.5t70 28.5q41 0 68.5 -29.5t27.5 -70.5t-28.5 -67.5t-67.5 -26.5t-68 26.5t-29 67.5zM391 86q0 41 27.5 68.5t66.5 27.5q41 0 70 -26.5t29 -69.5q0 -41 -29 -69.5t-70 -28.5q-37 0 -65.5 28.5t-28.5 69.5zM719 86q0 41 26.5 69.5t69.5 28.5 q41 0 68.5 -27.5t27.5 -68.5t-27.5 -68.5t-68.5 -27.5t-68.5 27.5t-27.5 66.5z" />
<glyph unicode="&#x202f;" horiz-adv-x="348" />
<glyph unicode="&#x2039;" horiz-adv-x="528" d="M113 463l221 344h151l-211 -348l172 -350h-143z" />
<glyph unicode="&#x203a;" horiz-adv-x="528" d="M113 807l151 -2l217 -342l-188 -357h-141l172 355z" />
<glyph unicode="&#x205f;" horiz-adv-x="435" />
<glyph unicode="&#x2122;" horiz-adv-x="862" d="M94 1190v49h314v-49h-123v-363h-66v363h-125zM436 827v412h113l92 -293l100 293h109v-412h-59v373l-136 -373l-37 2l-122 375v-375z" />
<glyph unicode="&#x25fc;" horiz-adv-x="901" d="M0 0v901h901v-901h-901z" />
</font>
</defs>
</svg>
